<svg width="64" height="64" viewBox="0 0 64 64" fill="none" xmlns="http://www.w3.org/2000/svg">
<path fill-rule="evenodd" clip-rule="evenodd" d="M64 32.0718C64 30.0364 63.8106 28.0504 63.4192 26.0005L63.2668 25.2121H63.2464C61.4972 17.505 56.9084 10.5406 50.5626 6.00727C50.1256 5.69406 49.5206 5.79588 49.2069 6.23127C48.8951 6.66667 48.9942 7.27273 49.4302 7.584C55.5915 11.9864 59.9919 18.8344 61.5079 26.3719L61.5477 26.5687C61.8916 28.4257 62.0576 30.2274 62.0576 32.0718C62.0576 32.607 62.4917 33.0415 63.0288 33.0415C63.5659 33.0415 64 32.607 64 32.0718ZM7.85952 13.9927C12.3396 7.99903 18.866 3.9137 26.2393 2.48921C28.1068 2.12364 30.0327 1.93939 31.9615 1.93939C36.5591 1.93939 40.9926 2.96824 45.1424 4.99588C45.6261 5.23152 46.2078 5.0337 46.4419 4.55176C46.6769 4.07079 46.4778 3.48994 45.9961 3.2543C41.5792 1.09479 36.8582 0 31.9615 0C29.9074 0 27.8563 0.196848 25.8683 0.585697C18.0211 2.1023 11.0732 6.45139 6.30271 12.833C5.98124 13.2625 6.07059 13.8696 6.49986 14.1896C6.67467 14.3195 6.87765 14.3825 7.07966 14.3825C7.37684 14.3825 7.66917 14.2478 7.85952 13.9927ZM1.96538 40.1687C2.48691 40.0436 2.80837 39.52 2.68406 38.9993C2.66464 38.9188 2.64521 38.8509 2.62676 38.7879H2.6287L2.42475 37.631C1.12725 31.0769 2.14796 24.1687 5.25674 18.1779C5.50342 17.7028 5.36745 17.1171 4.89157 16.8708C4.41472 16.6245 3.92912 16.8107 3.68244 17.2858C0.388172 23.6325 -1.06958 30.9498 0.872795 37.9016V37.9064C0.872795 38.6405 0.818409 38.9101 0.923297 39.2145C0.945634 39.2805 0.77082 39.3513 0.7951 39.4531C0.901931 39.8962 1.30012 40.1968 1.73909 40.1968C1.81388 40.1949 1.88963 40.1852 1.96538 40.1687ZM24.9437 62.6492C32.7074 52.3181 35.0877 43.105 32.9084 31.8419C32.8064 31.3164 32.2946 30.9721 31.7702 31.0739C31.2438 31.1758 30.9 31.6839 31.001 32.2104C33.0968 43.0225 30.8903 51.5035 23.3908 61.4846C23.0683 61.9132 23.1557 62.5212 23.585 62.8412C23.7598 62.9721 23.9647 63.0352 24.1667 63.0352C24.462 63.0381 24.7533 62.9042 24.9437 62.6492ZM29.1946 63.4114C36.7815 52.703 39.0327 43.041 36.7213 31.1069C36.4746 29.8327 35.7452 28.7312 34.6692 28.0048C33.596 27.2805 32.3033 27.0177 31.0321 27.265C29.7588 27.5113 28.6575 28.2376 27.9311 29.312C27.2056 30.3855 26.9414 31.6781 27.1881 32.9493C28.0534 37.4187 28.0563 41.4565 27.1978 45.2936C27.0813 45.8162 27.4105 46.3341 27.934 46.4504C28.4604 46.5678 28.977 46.2381 29.0936 45.7154C30.0113 41.6145 30.0123 37.3159 29.0955 32.5789C28.9479 31.8148 29.1062 31.039 29.5413 30.3942C29.9764 29.7493 30.6368 29.3139 31.4021 29.1656C32.1664 29.0182 32.9395 29.1753 33.5824 29.6087C34.2292 30.0441 34.6662 30.7055 34.8168 31.4715C37.0175 42.8364 34.8624 52.0543 27.6106 62.2885C27.3008 62.7258 27.4047 63.3299 27.8427 63.6412C28.0136 63.7615 28.2088 63.8196 28.4031 63.8196C28.7051 63.8196 29.0052 63.6781 29.1946 63.4114ZM21.0288 61.375C23.9434 57.6417 26.0508 54.1789 27.4707 50.7859C27.6776 50.2914 27.4435 49.7231 26.9482 49.5166C26.451 49.3081 25.8838 49.5418 25.6779 50.0373C24.326 53.2684 22.304 56.5867 19.4973 60.1813C19.1671 60.6041 19.2428 61.2121 19.6663 61.5408C19.844 61.6795 20.0538 61.7464 20.2626 61.7464C20.552 61.7484 20.8375 61.6204 21.0288 61.375ZM17.4354 59.6567C24.4008 50.975 26.7715 43.9428 25.6157 35.3862C25.5439 34.8538 25.0515 34.4882 24.5232 34.5552C23.9919 34.6269 23.619 35.1147 23.6909 35.6461C24.7825 43.7227 22.6031 50.1159 15.9204 58.4456C15.5843 58.8645 15.6523 59.4754 16.0709 59.808C16.2496 59.9515 16.4642 60.0213 16.6779 60.0213C16.9615 60.0204 17.2441 59.8982 17.4354 59.6567ZM40.4817 39.7576C41.0188 39.7576 41.4461 39.3367 41.4383 38.8034C41.3966 36.0737 41.0945 33.2538 40.5332 30.368C39.7388 26.2681 36.1347 23.2931 31.9595 23.2931C31.4011 23.2931 30.8398 23.3474 30.292 23.4531C27.999 23.8972 26.0168 25.2063 24.7096 27.1389C24.0822 28.0679 23.6442 29.0938 23.4082 30.1886C23.2956 30.7122 23.6287 31.2281 24.1531 31.3406C24.6795 31.4502 25.1943 31.1195 25.3069 30.5968C25.4905 29.7445 25.8323 28.9445 26.3199 28.2221C27.3357 26.719 28.878 25.6989 30.662 25.3537C31.0884 25.2713 31.5254 25.2257 31.9595 25.2257C35.2053 25.2257 38.0091 27.5336 38.6268 30.7219C39.1638 33.4972 39.4561 36.2162 39.496 38.8325C39.5037 39.3629 39.9359 39.7585 40.4672 39.7585C40.471 39.7576 40.4769 39.7576 40.4817 39.7576ZM33.7708 63.5588C37.9897 57.0725 40.4108 50.7093 41.1713 44.1057C41.2315 43.5733 40.8508 43.0924 40.3176 43.0322C39.7825 42.9721 39.3027 43.3532 39.2425 43.8846C38.516 50.1828 36.193 56.2725 32.1412 62.5018C31.8488 62.9518 31.977 63.552 32.4267 63.8439C32.5908 63.9496 32.7744 64 32.955 64C33.2726 64 33.5863 63.8448 33.7708 63.5588ZM38.7093 62.975C44.9084 52.3675 46.7012 41.7716 44.349 29.6291C43.6585 26.0693 41.4568 22.9721 38.3111 21.1336C37.8488 20.8621 37.2535 21.0172 36.9835 21.4798C36.7125 21.9423 36.8679 22.5358 37.3302 22.8063C39.9942 24.3636 41.8569 26.9847 42.4425 29.9976C44.6986 41.6514 42.9816 51.8196 37.033 61.9976C36.764 62.4611 36.9204 63.0545 37.3817 63.3231C37.5351 63.4143 37.7041 63.456 37.8712 63.456C38.2033 63.456 38.5287 63.2863 38.7093 62.975ZM14.1635 57.5321C21.1395 48.9464 23.1188 42.5833 21.4678 34.0558C20.9249 31.2553 21.5057 28.4121 23.1043 26.0499C24.7028 23.6868 27.125 22.0878 29.9268 21.5447C30.8844 21.3576 31.878 21.311 32.8404 21.3876C33.3697 21.4303 33.8436 21.0327 33.8864 20.4994C33.9301 19.9661 33.5319 19.4977 32.9968 19.455C31.8595 19.3629 30.6863 19.4211 29.5559 19.6402C26.2451 20.2802 23.382 22.1712 21.494 24.9629C19.606 27.7537 18.9194 31.1137 19.5604 34.4223C21.0861 42.303 19.2146 48.2347 12.6552 56.3074C12.3173 56.7244 12.3804 57.3353 12.797 57.6708C12.9767 57.8162 13.1933 57.889 13.4079 57.889C13.6915 57.8909 13.9712 57.7687 14.1635 57.5321ZM43.9994 61.4129C45.4523 58.5096 46.6225 55.5161 47.4782 52.5149C47.6238 52 47.3257 51.4638 46.81 51.3173C46.2933 51.169 45.7562 51.4696 45.6106 51.9845C44.7889 54.8703 43.6643 57.7493 42.2638 60.545C42.024 61.024 42.2172 61.6068 42.697 61.8463C42.8378 61.9142 42.9854 61.9472 43.1311 61.9472C43.4866 61.9491 43.8284 61.7542 43.9994 61.4129ZM48.6358 47.3716C49.5934 41.5292 49.439 35.4832 48.1619 28.8921C46.6614 21.1491 39.8485 15.5287 31.9634 15.5287C30.9078 15.5287 29.8501 15.6305 28.8207 15.8313C24.4901 16.6672 20.7462 19.1399 18.2775 22.7927C15.8077 26.4436 14.9103 30.8373 15.7485 35.1651C16.1719 37.3508 16.2855 39.1855 16.1068 40.9406C16.0525 41.4739 16.4409 41.9491 16.9741 42.0044C17.516 42.048 17.9842 41.6708 18.0385 41.1375C18.2386 39.1884 18.1162 37.1733 17.6559 34.7956C16.9149 30.977 17.7074 27.1001 19.8867 23.8778C22.0651 20.6555 25.3681 18.4737 29.1907 17.7358C30.0988 17.5583 31.0321 17.4691 31.9625 17.4691C38.921 17.4691 44.9317 22.4281 46.2554 29.2616C47.4879 35.6238 47.6384 41.4458 46.7187 47.0594C46.6323 47.5879 46.9897 48.0863 47.5209 48.1716C47.5743 48.1813 47.6248 48.1852 47.6782 48.1852C48.1454 48.1833 48.5581 47.8468 48.6358 47.3716ZM11.1985 55.0206C13.7702 51.839 15.5581 49.0153 16.6624 46.3913C16.8702 45.8967 16.6381 45.3285 16.1428 45.121C15.6465 44.9144 15.0793 45.1452 14.8715 45.6378C13.8391 48.0921 12.1425 50.7627 9.68633 53.8027C9.34932 54.2196 9.41536 54.8305 9.832 55.1661C10.0117 55.3096 10.2273 55.3804 10.4409 55.3804C10.7255 55.3804 11.0071 55.2572 11.1985 55.0206ZM8.54324 52.1231C14.8793 44.1348 14.7142 40.0465 13.8411 35.5326C12.9039 30.6977 13.9071 25.7862 16.6663 21.7038C17.6569 20.2395 18.8466 18.9265 20.2043 17.8027C20.617 17.4604 20.6743 16.8495 20.3315 16.4373C19.9887 16.0252 19.3768 15.969 18.9641 16.3103C17.4646 17.5515 16.1496 19.0012 15.056 20.6187C12.0065 25.1297 10.8984 30.5571 11.9337 35.8992C12.7378 40.0524 12.8563 43.5607 7.02041 50.9178C6.6873 51.3387 6.75819 51.9476 7.17969 52.2802C7.35839 52.4218 7.57011 52.4897 7.78182 52.4897C8.06833 52.4907 8.35191 52.3646 8.54324 52.1231ZM49.5798 58.528C53.3752 48.9668 54.1356 39.3154 51.9748 28.1532C51.4212 25.2897 50.281 22.6308 48.5882 20.2492C48.2774 19.8128 47.6724 19.7101 47.2334 20.0204C46.7964 20.3307 46.6925 20.9358 47.0042 21.3731C48.5358 23.5268 49.5672 25.9326 50.0673 28.5227C52.1554 39.3047 51.427 48.6119 47.7744 57.8153C47.5772 58.3127 47.821 58.8771 48.3202 59.0739C48.4377 59.1205 48.5571 59.1418 48.6766 59.1418C49.0631 59.1418 49.4293 58.9101 49.5798 58.528ZM45.0376 17.6611C45.3794 17.248 45.3202 16.6361 44.9045 16.2958C41.2606 13.2975 36.665 11.6461 31.9615 11.6461C30.6562 11.6461 29.35 11.7712 28.0806 12.0194C26.5267 12.32 25.0039 12.8019 23.5559 13.4536C23.0674 13.6737 22.8488 14.2478 23.0693 14.7355C23.2888 15.2233 23.8628 15.4415 24.3532 15.2213C25.6643 14.6318 27.0434 14.1954 28.4516 13.9229C29.5996 13.6989 30.7805 13.5855 31.9615 13.5855C36.2143 13.5855 40.373 15.0798 43.6692 17.792C43.8498 17.9413 44.0673 18.0141 44.2859 18.0141C44.5665 18.0141 44.8433 17.8938 45.0376 17.6611ZM55.4691 31.3745C55.9994 31.2931 56.3636 30.7976 56.281 30.2681C56.1363 29.3246 55.9751 28.3753 55.7886 27.4162C53.5821 16.0291 43.5623 7.76436 31.9615 7.76436C30.4086 7.76436 28.8537 7.9137 27.3435 8.20849C20.9764 9.44 15.4697 13.0754 11.8385 18.4456C9.90193 21.3091 8.6219 24.4752 8.03336 27.8545C7.9411 28.3821 8.29558 28.8844 8.82391 28.9765C9.35806 29.0686 9.85531 28.7147 9.94757 28.1872C10.4885 25.0783 11.6666 22.1663 13.4477 19.5307C16.7886 14.5901 21.8543 11.2456 27.7135 10.112C29.1043 9.84146 30.5329 9.70376 31.9615 9.70376C42.6339 9.70376 51.8524 17.3081 53.8822 27.7847C54.0628 28.7205 54.2201 29.6456 54.361 30.5658C54.4338 31.0448 54.8485 31.3872 55.3195 31.3872C55.3691 31.3862 55.4186 31.3823 55.4691 31.3745ZM55.2836 53.7784C56.8482 47.8982 57.3697 41.9055 56.8822 35.4579C56.8414 34.9236 56.3752 34.5261 55.842 34.5639C55.3059 34.6036 54.9048 35.0691 54.9456 35.6024C55.4176 41.8308 54.9145 47.6131 53.4073 53.279C53.2694 53.7959 53.5792 54.3282 54.0968 54.4659C54.1803 54.4873 54.2658 54.4979 54.3474 54.4979C54.7766 54.4989 55.169 54.2119 55.2836 53.7784ZM6.21433 48.7952C11.1829 42.2419 10.6216 39.3406 10.0272 36.2667C9.82715 35.2388 9.69895 34.1799 9.64456 33.1152C9.61834 32.5789 9.17062 32.1678 8.62579 32.1959C8.09066 32.223 7.67791 32.6788 7.7051 33.2131C7.76337 34.367 7.90322 35.519 8.1198 36.6352C8.67338 39.4977 9.11138 41.759 4.66528 47.6228C4.34188 48.0495 4.4254 48.6584 4.85369 48.9804C5.02948 49.1132 5.23537 49.1772 5.43932 49.1772C5.73262 49.1801 6.023 49.0473 6.21433 48.7952ZM4.24282 44.9105C6.96797 40.9028 6.61834 39.0962 6.21433 37.0056C4.88283 30.1353 6.3095 23.1573 10.2302 17.3566C14.1518 11.5559 20.0994 7.62958 26.9774 6.30012C29.6957 5.76873 32.5423 5.6737 35.3616 6.04412C35.8967 6.10715 36.3823 5.73964 36.4503 5.20921C36.5202 4.67782 36.1473 4.19103 35.6141 4.12121C32.5898 3.72364 29.5267 3.82545 26.6073 4.39661C19.2214 5.82497 12.833 10.0422 8.62093 16.2725C4.40986 22.5018 2.87733 29.9966 4.30789 37.375C4.67014 39.2465 4.90905 40.481 2.63744 43.8216C2.3354 44.2647 2.45195 44.8688 2.89578 45.1695C3.06282 45.2829 3.25221 45.3372 3.44062 45.3372C3.74945 45.3362 4.05441 45.1879 4.24282 44.9105ZM59.6976 46.9702C59.6666 46.9702 59.6335 46.9682 59.5976 46.9663C59.0644 46.9101 58.6769 46.4349 58.7294 45.9016C59.3373 39.9467 58.9964 33.7804 57.6941 27.0458C55.8954 17.7716 49.1933 10.1527 40.203 7.16121C39.6951 6.99152 39.4192 6.44267 39.5892 5.93455C39.7592 5.42739 40.305 5.15103 40.8177 5.3217C50.4704 8.53333 57.6698 16.7176 59.6005 26.6783C60.9417 33.6019 61.2894 39.9544 60.663 46.0994C60.6144 46.5988 60.191 46.9702 59.6976 46.9702Z" fill="#003780"/>
</svg>
