<svg width="282" height="218" viewBox="0 0 282 218" fill="none" xmlns="http://www.w3.org/2000/svg">
<circle cx="145.333" cy="118.909" r="99.0909" fill="#F2F1F9"/>
<circle cx="101.733" cy="6.60606" r="6.60606" fill="#003780"/>
<circle cx="264.903" cy="45.5818" r="16.5152" fill="#FF4267"/>
<circle cx="241.782" cy="179.685" r="6.60606" fill="#0890FE"/>
<circle cx="68.7031" cy="179.685" r="13.2121" fill="#FFAF2A"/>
<circle cx="6.60606" cy="92.4848" r="6.60606" fill="#52D5BA"/>
<g filter="url(#filter0_d_1_3892)">
<path d="M117.778 176.923C114.881 176.89 112.556 174.209 112.586 170.935L113.57 64.0598C113.6 60.7859 115.973 58.1587 118.871 58.1917L172.326 58.8007C175.223 58.8337 177.548 61.5144 177.518 64.7883L176.534 171.663C176.504 174.937 174.131 177.565 171.233 177.532L117.778 176.923Z" fill="#003780"/>
<path d="M171.851 61.1149C174.008 61.1149 175.75 63.1032 175.75 65.5638V172.659C175.75 175.12 174.008 177.108 171.851 177.108H118.816C116.659 177.108 114.917 175.12 114.917 172.659V65.5638C114.917 63.1032 116.659 61.1149 118.816 61.1149H171.851ZM171.851 58.1324H118.816C115.222 58.1324 112.303 61.4629 112.303 65.5638V172.659C112.303 176.76 115.222 180.09 118.816 180.09H171.851C175.445 180.09 178.364 176.76 178.364 172.659V65.5638C178.364 61.4629 175.445 58.1324 171.851 58.1324Z" fill="white"/>
</g>
<path d="M125.515 62.0536V60.165H164.135V62.4077C163.593 63.6352 161.538 64.0995 160.578 64.1782C151.036 64.2175 131.342 64.2726 128.903 64.1782C126.464 64.0837 125.628 62.7224 125.515 62.0536Z" fill="white"/>
<path d="M146.779 129.112L148.017 135.702H142.177L143.729 129.112H146.779Z" stroke="white" stroke-miterlimit="10" stroke-linecap="round" stroke-linejoin="round"/>
<path d="M146.778 125.502V129.112H143.729V125.502H145.078H146.778Z" stroke="white" stroke-miterlimit="10" stroke-linecap="round" stroke-linejoin="round"/>
<path d="M145.077 124.515V125.502H143.729H140.188V120.085L140.466 119.973L145.077 124.515Z" stroke="white" stroke-miterlimit="10" stroke-linecap="round" stroke-linejoin="round"/>
<path d="M145.39 101.733C149.598 101.733 153.005 105.222 153.005 109.519C153.005 113.821 149.598 117.309 145.39 117.309C141.187 117.309 137.775 113.821 137.775 109.519C137.776 105.222 141.187 101.733 145.39 101.733Z" stroke="white" stroke-miterlimit="10" stroke-linecap="round" stroke-linejoin="round"/>
<path d="M150.324 120.085V125.502H146.778H145.078V124.515L150.042 119.973L150.324 120.085Z" stroke="white" stroke-miterlimit="10" stroke-linecap="round" stroke-linejoin="round"/>
<path d="M143.729 125.503V129.112L142.178 135.702L142.173 135.723H129.932V128.721V128.715C131.733 128.416 133.1 126.814 133.1 124.891C133.1 124.251 132.946 123.641 132.673 123.106L140.188 120.086V125.502H143.729V125.503Z" stroke="white" stroke-miterlimit="10" stroke-linecap="round" stroke-linejoin="round"/>
<path d="M133.1 124.891C133.1 126.814 131.732 128.415 129.931 128.716C129.728 128.752 129.524 128.772 129.31 128.772C127.211 128.772 125.515 127.032 125.515 124.892C125.515 122.757 127.211 121.017 129.31 121.017C130.773 121.017 132.041 121.867 132.672 123.107C132.946 123.641 133.1 124.251 133.1 124.891Z" stroke="white" stroke-miterlimit="10" stroke-linecap="round" stroke-linejoin="round"/>
<path d="M161.218 127.601C162.561 127.601 163.659 128.73 163.659 130.103V131.39H158.771V130.103C158.771 128.73 159.869 127.601 161.218 127.601Z" stroke="white" stroke-miterlimit="10" stroke-linecap="round" stroke-linejoin="round"/>
<path d="M165.151 131.39V136.541C165.151 137.019 164.773 137.406 164.311 137.406H158.069C157.636 137.406 157.283 137.04 157.283 136.597V135.722V131.39H158.77H163.659H165.151V131.39Z" stroke="white" stroke-miterlimit="10" stroke-linecap="round" stroke-linejoin="round"/>
<path d="M145.39 101.733C149.598 101.733 153.005 105.222 153.005 109.519C153.005 113.821 149.598 117.309 145.39 117.309C141.187 117.309 137.775 113.821 137.775 109.519C137.776 105.222 141.187 101.733 145.39 101.733Z" stroke="white" stroke-miterlimit="2.6131" stroke-linecap="round" stroke-linejoin="round"/>
<path d="M132.673 123.106L140.188 120.085L140.467 119.973L145.078 124.515L150.042 119.973L150.325 120.085L160.581 124.21" stroke="white" stroke-miterlimit="2.6131" stroke-linecap="round" stroke-linejoin="round"/>
<path d="M142.173 135.722H129.932V128.72" stroke="white" stroke-miterlimit="2.6131" stroke-linecap="round" stroke-linejoin="round"/>
<path d="M157.283 135.722H148.021" stroke="white" stroke-miterlimit="2.6131" stroke-linecap="round" stroke-linejoin="round"/>
<path d="M155.412 128.481V135.702H148.016H142.177H135.099V128.481" stroke="white" stroke-miterlimit="2.6131" stroke-linecap="round" stroke-linejoin="round"/>
<path d="M143.729 125.502H140.188V120.085V119.973" stroke="white" stroke-miterlimit="2.6131" stroke-linecap="round" stroke-linejoin="round"/>
<path d="M150.324 119.973V120.085V125.502H146.778" stroke="white" stroke-miterlimit="2.6131" stroke-linecap="round" stroke-linejoin="round"/>
<path d="M143.729 129.112V125.502H145.078H146.778V129.112" stroke="white" stroke-miterlimit="2.6131" stroke-linecap="round" stroke-linejoin="round"/>
<path d="M142.173 135.723H148.022L148.017 135.702L146.778 129.112H143.729L142.177 135.702L142.173 135.723Z" stroke="white" stroke-miterlimit="2.6131" stroke-linecap="round" stroke-linejoin="round"/>
<path d="M163.659 131.39H165.151V136.541C165.151 137.019 164.773 137.406 164.311 137.406H158.069C157.636 137.406 157.283 137.04 157.283 136.597V135.722V131.39H158.77" stroke="white" stroke-miterlimit="2.6131" stroke-linecap="round" stroke-linejoin="round"/>
<path d="M158.771 131.39V130.103C158.771 128.73 159.87 127.601 161.218 127.601C162.561 127.601 163.659 128.73 163.659 130.103V131.39H158.771Z" stroke="white" stroke-miterlimit="2.6131" stroke-linecap="round" stroke-linejoin="round"/>
<path d="M159.929 135.693L161.218 134.401L162.5 133.104" stroke="white" stroke-miterlimit="2.6131" stroke-linecap="round" stroke-linejoin="round"/>
<path d="M162.5 135.693L161.218 134.401L159.929 133.104" stroke="white" stroke-miterlimit="2.6131" stroke-linecap="round" stroke-linejoin="round"/>
<path d="M129.931 128.714C129.728 128.75 129.524 128.771 129.31 128.771C127.211 128.771 125.515 127.031 125.515 124.891C125.515 122.755 127.211 121.016 129.31 121.016C130.773 121.016 132.041 121.866 132.672 123.106C132.946 123.64 133.1 124.251 133.1 124.891C133.1 126.813 131.732 128.415 129.931 128.714Z" stroke="white" stroke-miterlimit="2.6131" stroke-linecap="round" stroke-linejoin="round"/>
<path d="M127.688 124.337L128.474 125.858L131.748 123.896" stroke="white" stroke-miterlimit="2.6131" stroke-linecap="round" stroke-linejoin="round"/>
<defs>
<filter id="filter0_d_1_3892" x="97.3032" y="47.1324" width="96.0605" height="151.958" filterUnits="userSpaceOnUse" color-interpolation-filters="sRGB">
<feFlood flood-opacity="0" result="BackgroundImageFix"/>
<feColorMatrix in="SourceAlpha" type="matrix" values="0 0 0 0 0 0 0 0 0 0 0 0 0 0 0 0 0 0 127 0" result="hardAlpha"/>
<feOffset dy="4"/>
<feGaussianBlur stdDeviation="7.5"/>
<feColorMatrix type="matrix" values="0 0 0 0 0 0 0 0 0 0 0 0 0 0 0 0 0 0 0.1 0"/>
<feBlend mode="normal" in2="BackgroundImageFix" result="effect1_dropShadow_1_3892"/>
<feBlend mode="normal" in="SourceGraphic" in2="effect1_dropShadow_1_3892" result="shape"/>
</filter>
</defs>
</svg>
