<svg width="60" height="60" viewBox="0 0 60 60" fill="none" xmlns="http://www.w3.org/2000/svg">
<rect width="60" height="60" rx="30" fill="white"/>
<path d="M42.375 15.375C44.2358 15.375 45.75 16.8892 45.75 18.75V35.625C45.75 37.4858 44.2358 39 42.375 39H29.668C28.6971 42.249 25.6856 44.625 22.125 44.625C17.7825 44.625 14.25 41.0925 14.25 36.75C14.25 34.599 15.1188 32.6497 16.5205 31.2266C16.5171 31.1917 16.5 31.161 16.5 31.125V16.5C16.5 15.879 17.004 15.375 17.625 15.375H42.375ZM22.125 31.125C19.0234 31.125 16.5 33.6484 16.5 36.75C16.5 39.8516 19.0234 42.375 22.125 42.375C25.2266 42.375 27.75 39.8516 27.75 36.75C27.75 33.6484 25.2266 31.125 22.125 31.125ZM22.125 32.8125C22.746 32.8125 23.25 33.3165 23.25 33.9375V35.625H24.9375C25.5585 35.625 26.0625 36.129 26.0625 36.75C26.0625 37.371 25.5585 37.875 24.9375 37.875H23.25V39.5625C23.25 40.1835 22.746 40.6875 22.125 40.6875C21.504 40.6875 21 40.1835 21 39.5625V37.875H19.3125C18.6915 37.875 18.1875 37.371 18.1875 36.75C18.1875 36.129 18.6915 35.625 19.3125 35.625H21V33.9375C21 33.3165 21.504 32.8125 22.125 32.8125ZM18.75 29.6455C19.7749 29.1561 20.9156 28.875 22.125 28.875C26.4675 28.875 30 32.4075 30 36.75H42.375C42.9949 36.75 43.5 36.2449 43.5 35.625V31.125H40.6875C38.5163 31.125 36.75 29.3588 36.75 27.1875C36.75 25.0162 38.5163 23.25 40.6875 23.25H43.5V18.75C43.5 18.1301 42.9949 17.625 42.375 17.625H18.75V29.6455ZM29.8604 22C30.3536 22.0001 30.827 22.1962 31.1758 22.5449C31.5245 22.8937 31.7197 23.3672 31.7197 23.8604V25.7207H32.96C33.3024 25.7207 33.5801 25.9984 33.5801 26.3408C33.5799 26.6831 33.3023 26.9609 32.96 26.9609H31.7197V29.4404C31.7197 29.7692 31.8505 30.0848 32.083 30.3174C32.3155 30.5499 32.6313 30.6806 32.96 30.6807C33.2888 30.6807 33.6044 30.5499 33.8369 30.3174C33.867 30.2873 33.8952 30.2554 33.9219 30.2227C33.534 30.0131 33.2705 29.6027 33.2705 29.1309C33.2706 28.4461 33.8259 27.8906 34.5107 27.8906C35.1954 27.8908 35.7508 28.4462 35.751 29.1309C35.751 29.4829 35.6027 29.7997 35.3672 30.0254C35.2606 30.464 35.0383 30.8699 34.7139 31.1943C34.2488 31.6593 33.6177 31.9209 32.96 31.9209C32.3025 31.9208 31.672 31.6591 31.207 31.1943C30.7419 30.7292 30.4805 30.0982 30.4805 29.4404V26.9609H29.2402C28.8979 26.9609 28.6203 26.6831 28.6201 26.3408C28.6201 25.9984 28.8978 25.7207 29.2402 25.7207H30.4805V23.8604C30.4805 23.696 30.415 23.5381 30.2988 23.4219C30.1826 23.3056 30.0247 23.2403 29.8604 23.2402L28.6816 22.4209C29.0126 22.1499 29.4289 22 29.8604 22ZM40.6875 25.5C39.7571 25.5 39 26.2571 39 27.1875C39 28.1179 39.7571 28.875 40.6875 28.875H43.5V25.5H40.6875ZM29.7383 23.252C29.6192 23.2758 29.509 23.3347 29.4219 23.4219C29.3056 23.5381 29.2402 23.6959 29.2402 23.8604C29.2401 24.2026 28.9624 24.4804 28.6201 24.4805C28.2778 24.4805 28.0001 24.2027 28 23.8604C28 23.367 28.1961 22.8938 28.5449 22.5449L29.7383 23.252Z" fill="#335F99"/>
</svg>
