<svg width="60" height="60" viewBox="0 0 60 60" fill="none" xmlns="http://www.w3.org/2000/svg">
<rect width="60" height="60" rx="30" fill="white"/>
<g clip-path="url(#clip0_159_193)">
<path fill-rule="evenodd" clip-rule="evenodd" d="M36.75 45.75C39.1369 45.75 41.4261 44.8018 43.114 43.114C44.8018 41.4261 45.75 39.1369 45.75 36.75C45.75 34.3631 44.8018 32.0739 43.114 30.386C41.4261 28.6982 39.1369 27.75 36.75 27.75C34.3631 27.75 32.0739 28.6982 30.386 30.386C28.6982 32.0739 27.75 34.3631 27.75 36.75C27.75 39.1369 28.6982 41.4261 30.386 43.114C32.0739 44.8018 34.3631 45.75 36.75 45.75ZM48 36.75C48 39.7337 46.8147 42.5952 44.705 44.705C42.5952 46.8147 39.7337 48 36.75 48C33.7663 48 30.9048 46.8147 28.795 44.705C26.6853 42.5952 25.5 39.7337 25.5 36.75C25.5 33.7663 26.6853 30.9048 28.795 28.795C30.9048 26.6853 33.7663 25.5 36.75 25.5C39.7337 25.5 42.5952 26.6853 44.705 28.795C46.8147 30.9048 48 33.7663 48 36.75Z" fill="#335F99"/>
<path d="M33.2355 38.874C33.3413 40.215 34.401 41.259 36.3023 41.385V42.375H37.146V41.3783C39.1148 41.241 40.2645 40.188 40.2645 38.6625C40.2645 37.272 39.387 36.5565 37.812 36.1875L37.146 36.03V33.33C37.992 33.4267 38.5275 33.888 38.6558 34.527H40.1363C40.0305 33.2333 38.9213 32.223 37.146 32.1128V31.125H36.3023V32.1375C34.6215 32.3017 33.4785 33.312 33.4785 34.743C33.4785 36.0075 34.329 36.813 35.7443 37.1415L36.3023 37.2787V40.1407C35.4383 40.0103 34.8645 39.5333 34.7363 38.874H33.2355ZM36.2955 35.8275C35.4653 35.6363 35.0153 35.2425 35.0153 34.653C35.0153 33.9915 35.5013 33.4965 36.3023 33.3525V35.8275H36.2955ZM37.2675 37.506C38.2778 37.74 38.7413 38.118 38.7413 38.7862C38.7413 39.549 38.163 40.071 37.146 40.1678V37.479L37.2675 37.506Z" fill="#335F99"/>
<path d="M14.25 12C13.6533 12 13.081 12.2371 12.659 12.659C12.2371 13.081 12 13.6533 12 14.25V32.25C12 32.8467 12.2371 33.419 12.659 33.841C13.081 34.2629 13.6533 34.5 14.25 34.5H23.4368C23.5688 33.7245 23.7622 32.9745 24.0173 32.25H18.75C18.75 31.0565 18.2759 29.9119 17.432 29.068C16.5881 28.2241 15.4435 27.75 14.25 27.75V18.75C15.4435 18.75 16.5881 18.2759 17.432 17.432C18.2759 16.5881 18.75 15.4435 18.75 14.25H41.25C41.25 15.4435 41.7241 16.5881 42.568 17.432C43.4119 18.2759 44.5565 18.75 45.75 18.75V26.688C46.605 27.453 47.3633 28.326 48 29.2845V14.25C48 13.6533 47.7629 13.081 47.341 12.659C46.919 12.2371 46.3467 12 45.75 12H14.25Z" fill="#335F99"/>
<path d="M34.4955 23.4368L34.5 23.25C34.4995 22.4751 34.299 21.7134 33.9177 21.0388C33.5365 20.3641 32.9875 19.7994 32.3239 19.3992C31.6603 18.999 30.9046 18.777 30.13 18.7546C29.3554 18.7322 28.5882 18.9102 27.9026 19.2714C27.217 19.6326 26.6363 20.1647 26.2167 20.8162C25.7971 21.4677 25.5529 22.2165 25.5077 22.9901C25.4624 23.7637 25.6178 24.5359 25.9586 25.2318C26.2994 25.9278 26.8142 26.5239 27.453 26.9625C29.3979 25.1134 31.8497 23.8859 34.4955 23.4368Z" fill="#335F99"/>
</g>
<defs>
<clipPath id="clip0_159_193">
<rect width="36" height="36" fill="white" transform="translate(12 12)"/>
</clipPath>
</defs>
</svg>
