<svg width="60" height="60" viewBox="0 0 60 60" fill="none" xmlns="http://www.w3.org/2000/svg">
<rect width="60" height="60" rx="30" fill="white"/>
<g clip-path="url(#clip0_159_203)">
<path d="M40.6847 23.8574C41.3248 23.8574 41.8439 24.3769 41.8439 25.0176V27.2529C41.8439 27.8936 41.3244 28.4131 40.6837 28.4131H38.7755V46.7891C38.7754 47.2547 38.3974 47.6328 37.9318 47.6328H22.0675C21.6013 47.6328 21.2239 47.2547 21.2238 46.7891V28.4131H19.3156C18.6749 28.4131 18.1554 27.8936 18.1554 27.2529V25.0176C18.1554 24.3769 18.6749 23.8574 19.3156 23.8574H40.6847ZM22.9122 43.4609L25.3781 45.9453H34.6222L37.089 43.4609V26.4941H22.9122V43.4609ZM30.0001 28.7412C32.1478 28.7413 33.8885 30.4822 33.8888 32.6299C33.8888 34.7777 32.148 36.5194 30.0001 36.5195C27.8522 36.5195 26.1105 34.7778 26.1105 32.6299C26.1107 30.4822 27.8524 28.7412 30.0001 28.7412ZM22.9376 18.1123C23.6248 18.1125 24.1818 18.6702 24.1818 19.3574V20.6338C24.1816 21.3209 23.6247 21.8777 22.9376 21.8779H21.6613C20.974 21.8779 20.4169 21.3216 20.4161 20.6338V19.3574C20.4161 18.67 20.9739 18.1123 21.6613 18.1123H22.9376ZM30.6378 18.1123C31.3252 18.1123 31.8829 18.67 31.8829 19.3574V20.6338C31.8827 21.321 31.3251 21.8779 30.6378 21.8779H29.3615C28.6742 21.8779 28.1171 21.3215 28.1163 20.6338V19.3574C28.1163 18.6701 28.6741 18.1123 29.3615 18.1123H30.6378ZM38.339 18.1123C39.0264 18.1123 39.5841 18.67 39.5841 19.3574V20.6338C39.5839 21.321 39.0262 21.8779 38.339 21.8779H37.0626C36.3755 21.8778 35.8187 21.3215 35.8185 20.6338V19.3574C35.8185 18.6701 36.3753 18.1124 37.0626 18.1123H38.339ZM22.9376 12.3682C23.6248 12.3684 24.1818 12.926 24.1818 13.6133V14.8896C24.1816 15.5767 23.6247 16.1336 22.9376 16.1338H21.6613C20.974 16.1338 20.4169 15.5769 20.4161 14.8896V13.6133C20.4161 12.9259 20.9739 12.3682 21.6613 12.3682H22.9376ZM30.6378 12.3682C31.3252 12.3682 31.8829 12.9259 31.8829 13.6133V14.8896C31.8827 15.5769 31.3251 16.1338 30.6378 16.1338H29.3615C28.6742 16.1338 28.1171 15.5768 28.1163 14.8896V13.6133C28.1163 12.9259 28.6741 12.3682 29.3615 12.3682H30.6378ZM38.339 12.3682C39.0264 12.3682 39.5841 12.9259 39.5841 13.6133V14.8896C39.5839 15.5769 39.0262 16.1338 38.339 16.1338H37.0626C36.3755 16.1337 35.8187 15.5768 35.8185 14.8896V13.6133C35.8185 12.926 36.3753 12.3683 37.0626 12.3682H38.339Z" fill="#335F99"/>
</g>
<defs>
<clipPath id="clip0_159_203">
<rect width="36" height="36" fill="white" transform="translate(12 12)"/>
</clipPath>
</defs>
</svg>
