<svg width="60" height="60" viewBox="0 0 60 60" fill="none" xmlns="http://www.w3.org/2000/svg">
<rect width="60" height="60" rx="30" fill="white"/>
<g clip-path="url(#clip0_159_270)">
<path d="M36.3529 35.6639C36.9377 35.6639 37.4117 36.1379 37.4117 36.7227C37.4117 37.3075 36.9377 37.7815 36.3529 37.7815H30C29.4152 37.7815 28.9411 37.3075 28.9411 36.7227C28.9411 36.1379 29.4152 35.6639 30 35.6639V29.912C27.931 31.1121 26.8235 32.5537 26.8235 34.0757C26.8235 36.9311 28.0936 39.4711 30.6973 41.7494C31.1373 42.1345 31.1819 42.8034 30.7969 43.2435C30.4118 43.6836 29.7429 43.7281 29.3028 43.3431C26.2595 40.6802 24.7059 37.5731 24.7059 34.0757C24.7059 28.4671 33.3644 24.5463 46.9412 24.5463C47.526 24.5463 48 25.0203 48 25.6051C48 26.1899 47.526 26.664 46.9412 26.664V31.9581C47.526 31.9581 48 32.4321 48 33.0169C48 33.6017 47.526 34.0757 46.9412 34.0757H40.5882C40.0034 34.0757 39.5294 33.6017 39.5294 33.0169C39.5294 32.4321 40.0034 31.9581 40.5882 31.9581V26.9892C39.062 27.155 37.6477 27.3805 36.353 27.6573L36.3529 35.6639ZM42.7058 26.7999V31.9581H44.8235V26.6966C44.1004 26.7193 43.3944 26.7538 42.7058 26.7999ZM34.0301 28.2522C33.3498 28.4582 32.7116 28.682 32.1176 28.9223V35.6639H34.2352V28.2522H34.0301ZM16.6315 42.032C16.9155 42.5432 16.7313 43.1878 16.2201 43.4718C15.7089 43.7558 15.0643 43.5716 14.7803 43.0604C12.9311 39.7318 12 36.38 12 33.0168C12 21.7079 24.9078 15.1004 47.0132 16.6075C47.5966 16.6473 48.0373 17.1525 47.9975 17.7359C47.9578 18.3193 47.4525 18.76 46.8692 18.7203C25.8196 17.2851 14.1177 23.2753 14.1177 33.0168C14.1177 36.0066 14.9513 39.0077 16.6315 42.032ZM22.1449 39.9194C22.4261 40.4321 22.2385 41.0757 21.7257 41.3569C21.213 41.6381 20.5695 41.4504 20.2882 40.9377C20.0122 40.4346 19.7656 39.9256 19.5483 39.4111C19.3209 38.8724 19.5732 38.2513 20.1119 38.0238C20.6507 37.7964 21.2717 38.0487 21.4992 38.5875C21.6882 39.035 21.9034 39.479 22.1449 39.9194ZM20.4733 33.8175C20.4854 34.4021 20.0212 34.8858 19.4366 34.8979C18.8519 34.9099 18.3682 34.4457 18.3562 33.8611C18.3541 33.7571 18.3529 33.653 18.3529 33.5485C18.3529 33.0419 18.4021 32.5419 18.5 32.0486C18.6139 31.4749 19.1712 31.1024 19.7448 31.2162C20.3184 31.3301 20.691 31.8874 20.5771 32.4609C20.5061 32.8185 20.4706 33.1803 20.4706 33.5483C20.4706 33.6382 20.4715 33.7279 20.4733 33.8175ZM22.974 28.5402C22.5445 28.937 21.8745 28.9104 21.4778 28.4808C21.081 28.0513 21.1076 27.3814 21.5371 26.9846C21.9423 26.6103 22.3837 26.2488 22.86 25.9011C23.3323 25.5563 23.9947 25.6595 24.3395 26.1318C24.6844 26.6041 24.5811 27.2665 24.1088 27.6114C23.697 27.9121 23.3184 28.2221 22.974 28.5402ZM28.5312 25.247C27.9877 25.4628 27.3722 25.1972 27.1564 24.6537C26.9406 24.1102 27.2062 23.4947 27.7497 23.2789C28.2473 23.0813 28.7619 22.8928 29.2929 22.7135C29.847 22.5265 30.4477 22.8241 30.6347 23.3781C30.8218 23.9322 30.5242 24.5329 29.9701 24.72C29.4738 24.8874 28.994 25.0632 28.5312 25.247ZM35.0029 23.4184C34.4286 23.5285 33.8738 23.152 33.7638 22.5777C33.6537 22.0034 34.0302 21.4486 34.6045 21.3386C35.1278 21.2383 35.6607 21.1453 36.203 21.0595C36.7806 20.9681 37.3229 21.3623 37.4143 21.9399C37.5056 22.5175 37.1115 23.0597 36.5339 23.1512C36.014 23.2334 35.5035 23.3225 35.0029 23.4184ZM41.6376 22.588C41.0542 22.6269 40.5496 22.1853 40.5108 21.6019C40.4719 21.0184 40.9135 20.5139 41.4969 20.4751C42.0279 20.4397 42.5649 20.4104 43.1079 20.3872C43.6921 20.3622 44.186 20.8156 44.2109 21.3998C44.2359 21.984 43.7825 22.4779 43.1983 22.5029C42.672 22.5254 42.1517 22.5538 41.6376 22.588Z" fill="#335F99"/>
</g>
<defs>
<clipPath id="clip0_159_270">
<rect width="36" height="36" fill="white" transform="translate(12 12)"/>
</clipPath>
</defs>
</svg>
