<svg width="60" height="60" viewBox="0 0 60 60" fill="none" xmlns="http://www.w3.org/2000/svg">
<rect width="60" height="60" rx="30" fill="white"/>
<path fill-rule="evenodd" clip-rule="evenodd" d="M48 36V48H42V47.0947L40.2393 47.7901C39.8884 47.9289 39.5143 48.0003 39.1367 48H30.6826C30.1246 48 29.578 47.8446 29.1035 47.5508L18.1797 41.0147C17.4404 40.5863 16.9877 39.7942 16.9941 38.9395C16.9941 38.5208 17.1035 38.1087 17.3115 37.7451C17.5494 37.3279 17.9086 36.9925 18.3418 36.7852C18.5336 36.6903 18.7377 36.6232 18.9482 36.586C19.5066 36.4787 20.0858 36.5742 20.5801 36.8555L26.6748 40.1533C26.9402 39.4136 27.549 38.8488 28.3066 38.6397L35.2354 36.7803C35.6906 36.6602 36.1601 36.5988 36.6309 36.5996H38.9307C39.4734 36.6 40.006 36.7478 40.4717 37.0264L42 37.9414V36H48ZM19.3984 37.7451C19.3214 37.7451 19.2438 37.7526 19.168 37.7666C19.064 37.7848 18.9634 37.818 18.8682 37.8643C18.6522 37.9668 18.4721 38.1327 18.3525 38.3399C18.248 38.5225 18.1933 38.7293 18.1924 38.9395C18.1895 39.3685 18.4165 39.7667 18.7881 39.9815L29.7266 46.5254C30.013 46.7047 30.3446 46.7995 30.6826 46.7998H39.1387C39.3645 46.7995 39.5888 46.7567 39.7988 46.6739L42 45.8037V39.3399L39.8545 38.0557C39.5755 37.8886 39.2562 37.7999 38.9307 37.7998H36.6309C36.2651 37.7998 35.9004 37.8479 35.5469 37.9424L28.6201 39.7959C28.1348 39.931 27.7831 40.3519 27.7373 40.8535C27.7328 40.903 27.737 41.0415 27.7373 41.0498C27.7414 41.1248 27.7531 41.1998 27.7725 41.2725C27.9152 41.795 28.3907 42.1572 28.9326 42.1563C29.0066 42.1498 29.3588 42.0775 29.6318 42.0147L35.8457 40.3545L36.1543 41.5137L29.9209 43.1817C29.5971 43.2683 29.2664 43.327 28.9326 43.3574C27.8472 43.3563 26.8965 42.6294 26.6123 41.5821C26.6026 41.5454 26.6023 41.5093 26.5947 41.4727L19.9863 37.9014C19.8074 37.7989 19.6046 37.7446 19.3984 37.7451ZM43.2002 37.2002V46.7998H46.7998V37.2002H43.2002ZM18 12V13.1563L18.6094 13.1778C18.9108 13.1898 19.2109 13.1249 19.4805 12.9893L20.8252 12.3164C21.2419 12.1092 21.7008 12.0007 22.166 12H29.71C31.1428 11.996 32.5179 12.5658 33.5283 13.5821L36.7461 16.7998H48V32.4004H22.7998V24.7403C21.5814 24.6957 20.3985 24.3141 19.3828 23.6397L19.0205 23.4004H18V25.2002H12V12H18ZM31.2988 18L32.498 19.2002H42.5996V19.7998C42.5996 21.1252 43.6746 22.2002 45 22.2002H45.5996V27H45C43.6746 27 42.5996 28.075 42.5996 29.4004V30H28.2002V29.4004C28.2002 28.075 27.1252 27 25.7998 27H25.2002V22.2002H25.7998C26.5595 22.1988 27.2733 21.8363 27.7236 21.2246L26.7002 20.2012C25.8998 20.72 24.9513 20.9631 24 20.8916V31.2002H46.7998V18H31.2988ZM33.415 20.4004C33.7014 21.1079 33.6286 21.9102 33.2188 22.5537C34.3317 21.3725 36.1774 21.2749 37.4082 22.333C38.6393 23.3912 38.8194 25.2309 37.8184 26.5088C36.8172 27.7862 34.9881 28.0512 33.666 27.1094C32.344 26.1675 31.9973 24.352 32.8779 22.9883C31.9366 23.9126 30.4271 23.9112 29.4873 22.9854L28.582 22.0801C28.0328 22.7543 27.2577 23.2061 26.4004 23.3506V25.8496C27.9098 26.1079 29.0925 27.2903 29.3506 28.7998H41.4502C41.7084 27.2903 42.8908 26.1077 44.4004 25.8496V23.3506C42.8909 23.0925 41.7085 21.9099 41.4502 20.4004H33.415ZM35.4004 22.7998C34.4065 22.7998 33.5998 23.6058 33.5996 24.5996C33.5996 25.5937 34.4063 26.4004 35.4004 26.4004C36.3942 26.4002 37.2002 25.5935 37.2002 24.5996C37.2 23.6059 36.3941 22.8 35.4004 22.7998ZM13.2002 13.2002V24H16.7998V13.2002H13.2002ZM22.166 13.2002C21.8863 13.2003 21.6104 13.2656 21.3604 13.3906L20.0166 14.0625C19.5669 14.2866 19.0679 14.3948 18.5654 14.377L18 14.3574V22.2002H19.3799L20.0469 22.6416C20.8657 23.1853 21.8178 23.4954 22.7998 23.5391V20.6397C22.3582 20.4774 21.9457 20.2449 21.5781 19.9512L21.2266 19.666L21.9824 18.7344L22.3301 19.0156C23.5189 19.966 25.2142 19.9409 26.374 18.9561L26.7939 18.5957L30.334 22.1358C30.8048 22.6045 31.5671 22.6035 32.0361 22.1328C32.5049 21.6617 32.503 20.8994 32.0322 20.4307L27.7939 16.1924L28.6416 15.3438L30.0986 16.7998H35.0498L32.6797 14.4297C31.894 13.6396 30.8243 13.1971 29.71 13.2002H22.166Z" fill="#335F99"/>
</svg>
