<svg width="60" height="60" viewBox="0 0 60 60" fill="none" xmlns="http://www.w3.org/2000/svg">
<rect width="60" height="60" rx="30" fill="white"/>
<path d="M22.1387 14.2535C20.2855 14.2535 18.7628 15.7785 18.7628 17.6317V42.425C18.7628 44.2783 20.2855 45.8031 22.1387 45.8031H37.9179C39.7711 45.8031 41.2938 44.2783 41.2938 42.425V17.6317C41.2938 15.7785 39.7711 14.2535 37.9179 14.2535H22.1387ZM22.1387 16.5071H37.9179C38.5617 16.5071 39.0403 16.988 39.0403 17.6317V42.425C39.0403 43.0688 38.5617 43.5496 37.9179 43.5496H22.1387C21.495 43.5496 21.0164 43.0688 21.0164 42.425V17.6317C21.0164 16.988 21.495 16.5071 22.1387 16.5071ZM30.0239 17.6317C29.8738 17.6283 29.7246 17.6549 29.5849 17.71C29.4453 17.7652 29.318 17.8476 29.2107 17.9526C29.1033 18.0575 29.018 18.1829 28.9598 18.3213C28.9016 18.4597 28.8716 18.6083 28.8716 18.7584C28.8716 18.9086 28.9016 19.0572 28.9598 19.1956C29.018 19.334 29.1033 19.4593 29.2107 19.5643C29.318 19.6692 29.4453 19.7517 29.5849 19.8068C29.7246 19.8619 29.8738 19.8886 30.0239 19.8852C30.174 19.8886 30.3233 19.8619 30.4629 19.8068C30.6026 19.7517 30.7298 19.6692 30.8372 19.5643C30.9445 19.4593 31.0298 19.334 31.0881 19.1956C31.1463 19.0572 31.1763 18.9086 31.1763 18.7584C31.1763 18.6083 31.1463 18.4597 31.0881 18.3213C31.0298 18.1829 30.9445 18.0575 30.8372 17.9526C30.7298 17.8476 30.6026 17.7652 30.4629 17.71C30.3233 17.6549 30.174 17.6283 30.0239 17.6317ZM30.0085 22.1211C29.8604 22.1237 29.7142 22.1555 29.5783 22.2147C29.4425 22.2738 29.3196 22.3592 29.2168 22.4659C29.114 22.5726 29.0332 22.6986 28.9791 22.8365C28.925 22.9745 28.8987 23.1218 28.9016 23.2699V23.4768C27.5959 23.9448 26.648 25.1891 26.648 26.648C26.648 28.391 27.9984 29.832 29.7004 29.9997C29.8061 30.0263 29.9151 30.0374 30.0239 30.0327C30.6596 30.0327 31.1551 30.5195 31.1551 31.1551C31.1551 31.7671 30.6915 32.2299 30.09 32.2643C30.0393 32.2616 29.9886 32.2623 29.9381 32.2665C29.5697 32.2385 29.2388 32.0442 29.0512 31.7207C28.9816 31.5843 28.8849 31.4635 28.767 31.3657C28.6491 31.2679 28.5125 31.1952 28.3655 31.1519C28.2186 31.1087 28.0644 31.0959 27.9123 31.1143C27.7602 31.1327 27.6135 31.1819 27.4811 31.2589C27.3487 31.3358 27.2333 31.439 27.1421 31.5621C27.051 31.6852 26.9858 31.8255 26.9507 31.9746C26.9155 32.1237 26.9112 32.2784 26.9378 32.4292C26.9645 32.5801 27.0217 32.7239 27.1058 32.8519C27.5142 33.5563 28.1569 34.0701 28.9016 34.333V34.5332C28.8982 34.6833 28.9249 34.8325 28.98 34.9722C29.0352 35.1118 29.1176 35.239 29.2226 35.3463C29.3276 35.4536 29.4529 35.5389 29.5913 35.5971C29.7296 35.6553 29.8782 35.6853 30.0283 35.6853C30.1784 35.6853 30.327 35.6553 30.4654 35.5971C30.6038 35.5389 30.7291 35.4536 30.8341 35.3463C30.939 35.239 31.0215 35.1118 31.0766 34.9722C31.1318 34.8325 31.1584 34.6833 31.1551 34.5332V34.322C32.4593 33.8519 33.4108 32.6113 33.4108 31.1551C33.4108 29.379 31.9989 27.9212 30.2506 27.8012C30.176 27.7862 30.1 27.7789 30.0239 27.7792C29.3883 27.7792 28.9016 27.2836 28.9016 26.648C28.9016 26.0124 29.3883 25.5235 30.0239 25.5235C30.4277 25.5235 30.8031 25.733 31.0055 26.0824C31.0767 26.216 31.1742 26.3339 31.292 26.429C31.4098 26.5241 31.5456 26.5944 31.6912 26.6359C31.8369 26.6773 31.9893 26.689 32.1396 26.6702C32.2898 26.6514 32.4347 26.6025 32.5657 26.5265C32.6966 26.4504 32.8108 26.3488 32.9016 26.2276C32.9924 26.1064 33.0578 25.9682 33.094 25.8212C33.1301 25.6741 33.1363 25.5213 33.1121 25.3719C33.0879 25.2224 33.0338 25.0794 32.9531 24.9513C32.546 24.2484 31.8995 23.7358 31.1551 23.4724V23.2699C31.1581 23.1184 31.1305 22.9679 31.0739 22.8273C31.0174 22.6867 30.9331 22.559 30.826 22.4518C30.719 22.3445 30.5914 22.26 30.451 22.2032C30.3105 22.1464 30.16 22.1185 30.0085 22.1211ZM28.336 39.0403C28.1859 39.0369 28.0366 39.0636 27.897 39.1187C27.7573 39.1738 27.6301 39.2563 27.5227 39.3612C27.4154 39.4662 27.3301 39.5916 27.2719 39.7299C27.2136 39.8683 27.1836 40.017 27.1836 40.1671C27.1836 40.3172 27.2136 40.4658 27.2719 40.6042C27.3301 40.7426 27.4154 40.868 27.5227 40.9729C27.6301 41.0779 27.7573 41.1604 27.897 41.2155C28.0366 41.2706 28.1859 41.2972 28.336 41.2939H31.7207C31.8708 41.2972 32.02 41.2706 32.1597 41.2155C32.2994 41.1604 32.4266 41.0779 32.5339 40.9729C32.6413 40.868 32.7266 40.7426 32.7848 40.6042C32.843 40.4658 32.873 40.3172 32.873 40.1671C32.873 40.017 32.843 39.8683 32.7848 39.7299C32.7266 39.5916 32.6413 39.4662 32.5339 39.3612C32.4266 39.2563 32.2994 39.1738 32.1597 39.1187C32.02 39.0636 31.8708 39.0369 31.7207 39.0403H28.336Z" fill="#335F99"/>
<rect x="24" y="22" width="12" height="15" fill="white"/>
<path d="M27.6567 24.1993C28.1459 24.1993 28.6154 24.3936 28.9614 24.7394C29.3074 25.0853 29.5023 25.5549 29.5024 26.0441V27.8898H30.7319C31.0716 27.8898 31.3472 28.1653 31.3472 28.505C31.3471 28.8446 31.0715 29.1202 30.7319 29.1202H29.5024V31.5802C29.5026 31.9063 29.6322 32.2187 29.8628 32.4493C30.0934 32.6799 30.4059 32.8096 30.7319 32.8097C31.0581 32.8097 31.3714 32.68 31.6021 32.4493C31.6319 32.4195 31.6597 32.388 31.686 32.3556C31.3015 32.1477 31.0396 31.7414 31.0396 31.2736C31.0396 30.5942 31.5907 30.0431 32.27 30.0431C32.9494 30.0431 33.5005 30.5942 33.5005 31.2736C33.5004 31.6227 33.3532 31.9364 33.1196 32.1603C33.0139 32.5951 32.7938 32.9978 32.4722 33.3195C32.0108 33.7808 31.3844 34.0402 30.7319 34.0402C30.0796 34.0401 29.4539 33.7807 28.9927 33.3195C28.5314 32.8582 28.2721 32.2325 28.272 31.5802V29.1202H27.0415C26.7021 29.12 26.4274 28.8444 26.4272 28.505C26.4272 28.1655 26.702 27.89 27.0415 27.8898H28.272V26.0441C28.2719 25.8811 28.2075 25.7247 28.0923 25.6095C27.9769 25.4941 27.8198 25.4298 27.6567 25.4298L26.4878 24.6173C26.816 24.3484 27.2287 24.1994 27.6567 24.1993ZM27.5366 25.4415C27.4184 25.4652 27.3087 25.523 27.2222 25.6095C27.1069 25.7247 27.0426 25.8811 27.0425 26.0441C27.0425 26.3837 26.7668 26.6592 26.4272 26.6593C26.0876 26.6593 25.812 26.3837 25.812 26.0441C25.8121 25.5549 26.0061 25.0853 26.3521 24.7394L27.5366 25.4415Z" fill="#335F99"/>
</svg>
