<svg width="60" height="60" viewBox="0 0 60 60" fill="none" xmlns="http://www.w3.org/2000/svg">
<rect width="60" height="60" rx="30" fill="white"/>
<g clip-path="url(#clip0_159_252)">
<path d="M47.3994 12C47.6724 11.9999 47.9114 12.1842 47.9805 12.4482C48.0495 12.7123 47.9313 12.9895 47.6934 13.123L40.0908 17.4004H41.3994C41.622 17.4016 41.8449 17.4174 42.0654 17.4482C42.1173 17.4548 42.1676 17.4614 42.2178 17.4697C42.4079 17.4993 42.596 17.5425 42.7803 17.5977C42.946 17.65 43.1075 17.7147 43.2637 17.791C43.3008 17.8084 43.3371 17.8251 43.373 17.8438C43.6352 17.9786 43.8788 18.1471 44.0977 18.3447L44.1689 18.4102C44.3376 18.5721 44.4896 18.7507 44.6221 18.9434L44.6641 19.0068C44.7144 19.0847 44.7593 19.1599 44.7959 19.2275L44.8008 19.2344C45.2869 19.3264 45.7363 19.5564 46.0947 19.8975C46.9611 20.7038 47.3994 22.0842 47.3994 24V40.1992C47.3994 41.0296 47.0794 43.4399 43.6465 44.1768L47.7324 46.9004C47.9522 47.047 48.0509 47.3203 47.9746 47.5732C47.8979 47.8263 47.6639 48.0001 47.3994 48H22.7998C22.676 48 22.5553 47.9611 22.4541 47.8896L12.2539 40.6895C12.0947 40.5769 11.9999 40.3941 12 40.1992V22.2002C12 22.1889 12.0056 22.179 12.0068 22.166C12.011 22.1253 12.02 22.085 12.0322 22.0459C12.04 22.0104 12.0506 21.9749 12.0645 21.9414C12.0817 21.9099 12.1016 21.8796 12.124 21.8516C12.1472 21.8172 12.1745 21.7857 12.2041 21.7568C12.2124 21.7497 12.2158 21.7386 12.2246 21.7314L24.2246 12.1318C24.331 12.0467 24.4634 12 24.5996 12H47.3994ZM13.2002 39.8887L22.9902 46.7998H27.2559L13.2002 38.2686V39.8887ZM13.2002 36.8623L29.5674 46.7998H45.4199L41.7969 44.3848C41.6631 44.3884 41.5392 44.3994 41.3994 44.3994H31.7998C29.431 44.3994 27.9972 43.8162 27.123 43.0723L19.8604 38.9795L13.2217 35.2383C13.2139 35.2342 13.2079 35.2288 13.2002 35.2246V36.8623ZM44.9482 21.2646V21.3242C44.9158 21.845 44.8676 22.3587 44.8076 22.8604V22.8721C44.496 25.3384 43.9139 27.7633 43.0723 30.1025C42.7061 31.1183 41.7439 31.7966 40.6641 31.7998H32.5352C31.455 31.797 30.4922 31.1187 30.126 30.1025C29.2843 27.7634 28.7022 25.3384 28.3906 22.8721V22.8623C28.33 22.3608 28.2824 21.8479 28.25 21.3271V21.2666C28.2356 21.0334 28.223 20.7991 28.2158 20.5635L28.2051 20.5684C28.1835 20.5809 28.1653 20.5959 28.1377 20.6133C28.1104 20.6304 28.083 20.6463 28.0557 20.667C28.001 20.7077 27.9482 20.7522 27.8994 20.7998C27.4873 21.197 27 22.0754 27 24V40.1992C27.0011 40.3658 27.0165 40.5325 27.0469 40.6963C27.0535 40.7305 27.0592 40.7656 27.0664 40.7998C27.0985 40.9469 27.1447 41.0908 27.2031 41.2295C27.2163 41.2612 27.2327 41.2908 27.2471 41.3213C27.3053 41.4438 27.3744 41.5614 27.4531 41.6719C27.4669 41.691 27.4783 41.7124 27.4932 41.7314C27.5864 41.8516 27.69 41.9633 27.8027 42.0654C28.5977 42.7992 29.9602 43.1992 31.7998 43.1992V40.7998C31.7998 39.8058 32.6056 39.0001 33.5996 39H40.2002C41.1941 39.0002 42 39.8059 42 40.7998V43.1836C44.6776 43.0467 46.1992 41.9769 46.1992 40.1992V24C46.1992 22.0753 45.7122 21.197 45.2988 20.7998C45.2046 20.7062 45.0979 20.6262 44.9824 20.5605C44.9752 20.7968 44.9626 21.0308 44.9482 21.2646ZM33.5996 40.2002C33.2683 40.2003 33 40.4685 33 40.7998V43.1992H40.7998V40.7998C40.7998 40.4686 40.5314 40.2004 40.2002 40.2002H33.5996ZM20.9863 22.3516C20.5567 23.2373 20.3559 24.2168 20.4004 25.2002V25.8516L22.5391 25.376C22.8943 25.297 23.2668 25.3837 23.5508 25.6113C23.8347 25.8392 24.0001 26.1838 24 26.5479V33.4111C24.0013 33.786 23.8258 34.1397 23.5264 34.3652C23.2288 34.5942 22.8396 34.6688 22.4785 34.5664L20.4004 33.9893V36.2588C20.4115 36.864 20.4968 37.4661 20.6562 38.0508L25.877 40.9902C25.8465 40.8273 25.8259 40.6626 25.8164 40.4971C25.8074 40.3861 25.8027 40.282 25.8027 40.1992V23.9971C25.8027 23.7794 25.8099 23.5656 25.8213 23.3594C25.8254 23.2934 25.8312 23.2308 25.8359 23.166C25.8468 23.028 25.8588 22.8912 25.875 22.7598C25.8834 22.6891 25.8931 22.62 25.9033 22.5518C25.9189 22.4272 25.9395 22.3085 25.9629 22.1924C25.9755 22.1294 25.9882 22.0638 26.002 22.0039C26.0313 21.875 26.0646 21.7508 26.1006 21.6309C26.1126 21.5931 26.1232 21.5497 26.1357 21.5107C26.1842 21.3591 26.2403 21.2096 26.3037 21.0635C26.3193 21.0281 26.3374 20.9957 26.3535 20.9609C26.4027 20.8584 26.4537 20.757 26.5088 20.6611C26.5339 20.6174 26.5598 20.581 26.5879 20.5361C26.6161 20.4911 26.6428 20.442 26.6729 20.3994L20.9863 22.3516ZM16.2002 34.2002C16.201 34.6897 16.2659 35.1771 16.3945 35.6494L19.2822 37.2754C19.2273 36.8525 19.2 36.4264 19.2002 36V33.6533L16.2002 32.8193V34.2002ZM31.1133 33.3672C31.8042 33.3196 32.4399 33.7467 32.6572 34.4043L32.9209 35.1973C33.0902 35.6999 32.9847 36.2549 32.6426 36.6602C32.3575 37.0024 31.9346 37.2003 31.4893 37.2002C31.4158 37.2001 31.3423 37.1948 31.2695 37.1846C28.605 36.7957 28.0449 35.7061 28.0449 34.8613C28.0451 33.6951 29.7934 33.45 31.1133 33.3672ZM42.0859 33.3672C43.4029 33.45 45.1546 33.6951 45.1572 34.8613C45.1572 35.7061 44.5966 36.7957 41.9326 37.1846C41.8598 37.1948 41.7864 37.2001 41.7129 37.2002C41.2675 37.2004 40.8447 37.0024 40.5596 36.6602C40.2161 36.2548 40.1095 35.6991 40.2783 35.1953L40.542 34.4043C40.7599 33.7471 41.3952 33.3203 42.0859 33.3672ZM31.1885 34.5654C30.5235 34.5554 29.8635 34.6847 29.252 34.9463C29.3726 35.6399 30.9468 35.9241 31.4424 35.9961C31.5482 36.0123 31.6546 35.9711 31.7217 35.8877C31.7962 35.8016 31.8193 35.6819 31.7822 35.5742L31.5186 34.7842C31.4713 34.6444 31.3357 34.5544 31.1885 34.5654ZM42.0137 34.5654C41.8666 34.5548 41.731 34.6445 41.6836 34.7842L41.4199 35.5752C41.3831 35.6827 41.4055 35.8015 41.4795 35.8877C41.5462 35.972 41.6536 36.0135 41.7598 35.9961C42.2531 35.9241 43.8266 35.6393 43.9502 34.9463C43.3388 34.6847 42.6786 34.5554 42.0137 34.5654ZM13.2002 33.1484C13.2004 33.5814 13.4335 33.9808 13.8105 34.1934L15.0312 34.8809C15.0109 34.6584 15 34.431 15 34.2002V32.4893L13.2002 31.9893V33.1484ZM20.4004 27.0811V32.7432L22.7998 33.4111V26.5479L20.4004 27.0811ZM16.2002 28.0146V31.5771L19.2002 32.4102V27.3477L16.2002 28.0146ZM13.2002 28.6797V30.7441L15 31.2432V28.2803L13.2002 28.6797ZM29.6719 23.3994C29.9921 25.545 30.5231 27.6544 31.2559 29.6963C31.4501 30.2364 31.9612 30.5973 32.5352 30.5996H34.2852C34.5547 29.5412 35.5075 28.8009 36.5996 28.8008C37.6917 28.8008 38.6446 29.5412 38.9141 30.5996H40.6641C41.2382 30.5974 41.7501 30.2366 41.9443 29.6963C42.6771 27.6545 43.2065 25.545 43.5264 23.3994H29.6719ZM36.5996 30.001C36.1715 30.001 35.7761 30.2291 35.5615 30.5996H37.6387C37.4242 30.2289 37.0279 30.001 36.5996 30.001ZM14.0098 24.75C13.5254 24.9166 13.2003 25.3725 13.2002 25.8848V27.4521L15 27.0518V25.7998C14.9988 25.3161 15.0466 24.8332 15.1436 24.3594L14.0098 24.75ZM16.5391 23.8799C16.3085 24.4935 16.1937 25.1444 16.2002 25.7998V26.7852L19.2002 26.1182V25.2002C19.1923 24.4095 19.2965 23.6209 19.5098 22.8594L16.5391 23.8799ZM24.8105 13.2002L13.2002 22.4912V23.8115C13.3334 23.7324 13.4741 23.666 13.6201 23.6143L15.8877 22.835L29.1943 18.2637C29.3889 18.101 29.6007 17.96 29.8262 17.8438C29.8621 17.8252 29.898 17.8074 29.9346 17.79C30.2668 17.6344 30.6201 17.527 30.9824 17.4697C31.0326 17.4613 31.0828 17.4539 31.1348 17.4473C31.3551 17.4167 31.5774 17.4004 31.7998 17.3994H37.6426L45.1094 13.2002H24.8105ZM31.7998 18.5996C31.6194 18.5998 31.4392 18.6134 31.2607 18.6396L31.1865 18.6494C31.0418 18.6739 30.8984 18.7095 30.7588 18.7549L30.6865 18.7803C30.567 18.8225 30.45 18.8734 30.3379 18.9326C30.3237 18.941 30.3102 18.9493 30.2959 18.957C30.1991 19.0115 30.1066 19.0729 30.0186 19.1406L30.0039 19.1514C29.9536 19.1897 29.9142 19.2307 29.8711 19.2715C29.6755 19.4545 29.5153 19.6726 29.3994 19.9141C29.4018 20.2507 29.4133 20.5954 29.4307 20.9434C29.4342 21.005 29.4378 21.0681 29.4414 21.1279C29.4648 21.4776 29.4878 21.8374 29.5244 22.1973H43.6768C43.7127 21.838 43.7394 21.4836 43.7598 21.1328C43.7634 21.0692 43.7675 21.0024 43.7705 20.9424C43.7885 20.5933 43.8018 20.2478 43.8018 19.9102C43.7958 19.8964 43.7832 19.8755 43.7754 19.8594C43.761 19.8288 43.7459 19.7978 43.7236 19.7588C43.7104 19.7354 43.69 19.7077 43.6738 19.6826C43.6456 19.6412 43.6195 19.5989 43.5859 19.5527C43.5632 19.5227 43.5342 19.4898 43.5078 19.458C43.4689 19.4119 43.4262 19.3656 43.3789 19.3184C43.3448 19.2848 43.3068 19.2516 43.2686 19.2188C43.2127 19.1719 43.1525 19.1257 43.0889 19.0801C43.0439 19.0465 42.9963 19.0179 42.9453 18.9873C42.8677 18.9431 42.788 18.9028 42.7061 18.8672C42.6503 18.8414 42.5942 18.8148 42.5342 18.792C42.4255 18.7541 42.3146 18.7226 42.2021 18.6982L42.1836 18.6934C42.1285 18.6808 42.0814 18.6645 42.0215 18.6543C41.8161 18.6183 41.6079 18.5995 41.3994 18.5996H31.7998ZM40.7998 19.7998C41.1311 19.7999 41.3994 20.069 41.3994 20.4004C41.3992 20.7315 41.131 21 40.7998 21H32.3994C32.0684 20.9998 31.8 20.7314 31.7998 20.4004C31.7998 20.0691 32.0682 19.8 32.3994 19.7998H40.7998Z" fill="#335F99"/>
</g>
<defs>
<clipPath id="clip0_159_252">
<rect width="36" height="36" fill="white" transform="translate(12 12)"/>
</clipPath>
</defs>
</svg>
