<svg width="60" height="60" viewBox="0 0 60 60" fill="none" xmlns="http://www.w3.org/2000/svg">
<rect width="60" height="60" rx="30" fill="white"/>
<g clip-path="url(#clip0_159_227)">
<path d="M45.0901 35.2354L39.052 48L37.1643 43.9492C37.1643 43.9492 26.2739 49.1885 17.9534 34.7852C27.0299 40.2763 33.4778 36.2285 33.4778 36.2285L31.3616 31.6895L45.0901 35.2354ZM26.8479 12C33.4268 12.0001 38.7815 17.3552 38.7815 23.9375C38.7815 26.6948 37.8389 29.2349 36.2639 31.2588C36.1515 31.4038 36.0312 31.5443 35.9143 31.6826L33.6731 31.0234C33.8046 30.8953 33.9333 30.7676 34.0559 30.6338C35.6938 28.8755 36.7013 26.5218 36.7014 23.9355C36.7014 18.5018 32.2816 14.0801 26.8479 14.0801C21.4142 14.0801 16.9924 18.5018 16.9924 23.9355C16.9927 29.3714 21.4143 33.792 26.8479 33.792C28.1224 33.792 29.3352 33.5361 30.4534 33.0918L31.2375 35.0254C29.8775 35.5688 28.3992 35.874 26.8479 35.874C20.2668 35.874 14.9106 30.5155 14.9104 23.9355C14.9104 17.3554 20.2678 12 26.8479 12ZM24.9202 18.4014C25.4293 18.4014 25.9176 18.6039 26.2776 18.9639C26.6377 19.3239 26.8401 19.8121 26.8401 20.3213V22.2412H28.1194C28.4727 22.2412 28.7598 22.5276 28.76 22.8809C28.76 23.2343 28.4728 23.5215 28.1194 23.5215H26.8401V26.0811C26.8401 26.4204 26.9752 26.7463 27.2151 26.9863C27.455 27.2261 27.7812 27.3603 28.1204 27.3604C28.4594 27.3602 28.7848 27.226 29.0247 26.9863C29.0557 26.9553 29.0841 26.9214 29.1116 26.8877C28.7118 26.6713 28.4398 26.2482 28.4397 25.7617C28.4397 25.0549 29.0132 24.4816 29.72 24.4814C30.4268 24.4815 31.0002 25.0549 31.0002 25.7617C31.0001 26.125 30.847 26.4517 30.6038 26.6846C30.4937 27.1371 30.2647 27.5559 29.9299 27.8906C29.45 28.3705 28.7991 28.6405 28.1204 28.6406C27.4416 28.6406 26.7898 28.3706 26.3098 27.8906C25.83 27.4107 25.5599 26.7597 25.5598 26.0811V23.5215H24.2805C23.9272 23.5214 23.6399 23.2342 23.6399 22.8809C23.6401 22.5276 23.9273 22.2413 24.2805 22.2412H25.5598V20.3213C25.5598 20.1516 25.4923 19.9891 25.3723 19.8691C25.2523 19.7492 25.0898 19.6817 24.9202 19.6816L23.7034 18.8359C24.0449 18.5561 24.4748 18.4014 24.9202 18.4014ZM24.7952 19.6934C24.672 19.7179 24.5581 19.7791 24.468 19.8691C24.3481 19.9891 24.2805 20.1516 24.2805 20.3213C24.2805 20.6747 23.9933 20.9609 23.6399 20.9609C23.2867 20.9606 23.0003 20.6745 23.0002 20.3213C23.0002 19.8122 23.2028 19.3239 23.5627 18.9639L24.7952 19.6934Z" fill="#335F99"/>
</g>
<defs>
<clipPath id="clip0_159_227">
<rect width="36" height="36" fill="white" transform="translate(12 12)"/>
</clipPath>
</defs>
</svg>
