<svg width="343" height="287" viewBox="0 0 343 287" fill="none" xmlns="http://www.w3.org/2000/svg">
<mask id="mask0_1_1414" style="mask-type:luminance" maskUnits="userSpaceOnUse" x="7" y="83" width="88" height="130">
<path d="M7.5 83.0242H94.42V212.038H7.5V83.0242Z" fill="white"/>
</mask>
<g mask="url(#mask0_1_1414)">
<path d="M55.0557 211.53C54.0392 211.53 53.0142 211.397 51.985 211.107L16.3748 201.19C13.3852 200.357 10.9124 198.41 9.40049 195.706C7.89289 192.999 7.53414 189.868 8.38831 186.896L35.9181 91.4382C37.6649 85.3864 44.0113 81.8416 50.0845 83.5286L85.6989 93.4455C88.6842 94.2783 91.1613 96.2258 92.6689 98.9292C94.1765 101.637 94.5438 104.763 93.6811 107.744L66.1556 203.206C64.6992 208.224 60.0611 211.53 55.0557 211.53ZM53.9795 203.949C56.1362 204.551 58.387 203.287 59.0105 201.139L86.536 105.681C86.8435 104.622 86.7154 103.508 86.1815 102.551C85.6434 101.59 84.7679 100.898 83.7045 100.603L48.0857 90.6865C45.9289 90.0843 43.6782 91.3485 43.0504 93.4967L15.5249 188.954C15.2216 190.009 15.3498 191.124 15.8836 192.085C16.4175 193.041 17.2973 193.733 18.3564 194.032L53.9795 203.949Z" fill="#003780"/>
</g>
<path d="M59.7751 129.414C58.6561 129.414 57.5244 129.256 56.4182 128.953C53.2066 128.061 50.5373 125.972 48.9016 123.072C47.2658 120.172 46.8601 116.807 47.7484 113.604C49.5934 106.98 56.4823 103.093 63.1064 104.934C69.7304 106.779 73.6169 113.672 71.7761 120.292C70.8835 123.504 68.7951 126.173 65.8952 127.809C63.9904 128.872 61.8977 129.414 59.7751 129.414ZM59.7495 111.908C58.891 111.908 58.0454 112.13 57.2809 112.562C56.1065 113.224 55.2651 114.3 54.9021 115.594C54.159 118.272 55.7264 121.052 58.3999 121.795C59.694 122.158 61.0564 121.988 62.2308 121.326C63.4053 120.664 64.2467 119.587 64.6097 118.293C65.3528 115.62 63.7854 112.839 61.1076 112.096C60.6549 111.968 60.2022 111.908 59.7495 111.908Z" fill="#003780"/>
<mask id="mask1_1_1414" style="mask-type:luminance" maskUnits="userSpaceOnUse" x="248" y="83" width="88" height="130">
<path d="M248.58 83.0242H335.5V212.038H248.58V83.0242Z" fill="white"/>
</mask>
<g mask="url(#mask1_1_1414)">
<path d="M287.876 211.529C282.866 211.529 278.228 208.228 276.78 203.197L249.25 107.74C248.396 104.759 248.755 101.628 250.263 98.9204C251.775 96.2169 254.247 94.2694 257.237 93.4366L292.856 83.5198C298.92 81.8328 305.28 85.3776 307.026 91.4293L334.552 186.887C335.406 189.868 335.047 192.998 333.54 195.697C332.032 198.401 329.555 200.348 326.565 201.181L290.947 211.098C289.922 211.389 288.888 211.529 287.876 211.529ZM295.935 90.5367C295.568 90.5367 295.205 90.5837 294.842 90.6862L259.219 100.603C258.159 100.898 257.28 101.59 256.746 102.551C256.212 103.507 256.084 104.622 256.387 105.681L283.913 201.139C284.532 203.287 286.791 204.551 288.948 203.949L324.558 194.032C325.622 193.733 326.501 193.041 327.035 192.084C327.569 191.123 327.697 190.009 327.394 188.954L299.864 93.4964C299.36 91.7027 297.712 90.5367 295.935 90.5367Z" fill="#003780"/>
</g>
<path d="M282.896 129.414C277.438 129.414 272.416 125.801 270.882 120.288C269.99 117.076 270.4 113.715 272.036 110.815C273.671 107.915 276.341 105.827 279.552 104.934C286.172 103.093 293.065 106.98 294.91 113.604C296.751 120.228 292.864 127.117 286.24 128.962C285.117 129.265 283.998 129.414 282.896 129.414ZM282.888 111.908C282.444 111.908 281.991 111.968 281.542 112.096C280.248 112.459 279.172 113.301 278.51 114.475C277.848 115.65 277.686 116.999 278.04 118.302C278.408 119.596 279.245 120.672 280.419 121.334C281.589 121.996 282.948 122.158 284.25 121.804C286.924 121.061 288.495 118.28 287.748 115.603C287.12 113.373 285.096 111.908 282.888 111.908Z" fill="#003780"/>
<path d="M243.946 212.013C241.952 212.013 240.303 210.437 240.235 208.43C240.162 206.38 241.759 204.663 243.809 204.582C243.997 204.573 262.366 203.762 276.712 193.832C278.399 192.666 280.718 193.089 281.884 194.776C283.05 196.463 282.627 198.773 280.94 199.948C264.766 211.146 244.92 211.983 244.087 212.013C244.036 212.013 243.989 212.013 243.946 212.013Z" fill="#003780"/>
<path d="M76.2477 207.695C75.2996 207.695 74.3472 207.332 73.6168 206.61L62.6024 195.592C61.1503 194.144 61.1503 191.786 62.6024 190.338C64.0502 188.891 66.4077 188.891 67.8555 190.338L78.8742 201.353C80.3221 202.805 80.3221 205.158 78.8742 206.61C78.1525 207.336 77.2001 207.695 76.2477 207.695Z" fill="#003780"/>
<path d="M149.202 274.329C144.346 274.329 139.499 272.484 135.804 268.789L129.466 262.447C128.014 260.999 128.014 258.642 129.466 257.194C130.914 255.742 133.272 255.742 134.72 257.194L141.062 263.536C145.55 268.025 152.849 268.025 157.338 263.536C159.516 261.371 160.716 258.48 160.716 255.4C160.716 253.91 160.43 252.449 159.875 251.07C159.302 249.648 158.453 248.371 157.346 247.264C155.899 245.812 155.899 243.455 157.346 242.007C158.798 240.559 161.152 240.559 162.604 242.007L176.719 256.118C181.208 260.607 188.506 260.607 192.995 256.118C195.169 253.944 196.373 251.044 196.373 247.978C196.373 244.907 195.173 242.016 192.995 239.837C191.547 238.385 191.547 236.032 192.995 234.58C194.447 233.132 196.805 233.132 198.252 234.58C201.827 238.155 203.796 242.912 203.796 247.978C203.796 253.039 201.827 257.796 198.252 261.371C190.864 268.76 178.846 268.76 171.461 261.371L167.989 257.899C167.455 262.024 165.585 265.83 162.595 268.807C158.892 272.484 154.045 274.329 149.202 274.329Z" fill="#003780"/>
<path d="M212.585 251.565C207.73 251.565 202.882 249.724 199.188 246.03L164.513 211.359C163.065 209.911 163.065 207.554 164.513 206.102C165.961 204.654 168.318 204.654 169.766 206.102L204.437 240.772C208.925 245.261 216.229 245.261 220.717 240.772C225.206 236.284 225.206 228.985 220.717 224.492L186.038 189.825C184.59 188.373 184.59 186.02 186.038 184.568C187.49 183.12 189.848 183.12 191.295 184.568L225.97 219.239C233.359 226.627 233.359 238.645 225.97 246.03C222.285 249.724 217.429 251.565 212.585 251.565Z" fill="#003780"/>
<path d="M228.917 224.838C223.852 224.838 219.094 222.865 215.519 219.282C214.072 217.834 214.072 215.476 215.519 214.028C216.972 212.576 219.325 212.576 220.777 214.028C222.955 216.207 225.838 217.402 228.917 217.402C231.992 217.402 234.875 216.207 237.053 214.028C238.778 212.294 239.893 210.112 240.273 207.716C240.376 207.101 240.431 206.499 240.431 205.888C240.431 202.817 239.231 199.926 237.053 197.739L182.002 142.688C177.996 138.682 172.115 137.153 166.67 138.682C163.872 139.472 161.352 141.019 159.384 143.158L142.228 161.788C142.189 161.822 142.159 161.86 142.125 161.899C134.049 169.971 120.925 169.971 112.853 161.899C106.37 155.416 104.905 145.635 109.201 137.555C114.715 127.19 124.247 112.985 138.341 104.106C138.392 104.076 138.444 104.037 138.495 104.007C150.086 96.7513 162.787 94.3127 176.241 96.7513C178.265 97.0503 206.273 101.355 228.247 116.414L252.056 106.126C253.944 105.314 256.127 106.177 256.938 108.065C257.758 109.948 256.887 112.139 254.999 112.951L229.28 124.063C228.076 124.584 226.683 124.426 225.629 123.662C204.616 108.466 175.408 104.14 175.122 104.106C175.075 104.097 175.023 104.089 174.981 104.08C163.321 101.957 152.328 104.076 142.309 110.392C142.258 110.422 142.211 110.452 142.159 110.482C129.522 118.503 120.835 131.516 115.766 141.048C113.015 146.22 113.95 152.486 118.106 156.641C123.257 161.792 131.636 161.817 136.817 156.692L153.921 138.127C156.821 134.975 160.537 132.69 164.662 131.533C172.696 129.274 181.366 131.533 187.268 137.435L242.319 192.486C245.894 196.07 247.862 200.827 247.862 205.88C247.862 206.905 247.781 207.925 247.619 208.908C247 212.824 245.172 216.42 242.323 219.277C238.736 222.865 233.978 224.838 228.917 224.838Z" fill="#003780"/>
<path d="M88.7227 115.65C87.0271 115.65 85.4982 114.48 85.101 112.754C84.6483 110.756 85.8996 108.766 87.8984 108.304C112.063 102.803 139.234 103.504 140.413 103.534C142.42 103.585 144.043 105.225 144.043 107.249C144.043 109.338 142.309 111.038 140.212 110.965C139.097 110.935 112.823 110.252 89.5469 115.552C89.2736 115.62 88.996 115.65 88.7227 115.65Z" fill="#003780"/>
<path d="M84.8961 222.472C81.253 222.472 77.8235 221.054 75.2525 218.479C72.6815 215.908 71.2635 212.483 71.2635 208.84C71.2635 205.197 72.6815 201.78 75.2525 199.2L86.9845 187.469C92.2974 182.156 100.95 182.156 106.263 187.469C108.838 190.04 110.256 193.469 110.256 197.112C110.256 200.751 108.838 204.18 106.263 206.751C104.815 208.199 102.458 208.199 101.01 206.751C99.5621 205.304 99.5621 202.946 101.01 201.494C102.184 200.319 102.825 198.769 102.825 197.112C102.825 195.451 102.176 193.9 101.01 192.726C98.5926 190.309 94.6634 190.309 92.2376 192.726L80.5099 204.454C79.3354 205.628 78.6948 207.183 78.6948 208.84C78.6948 210.497 79.3397 212.051 80.5099 213.226C81.6844 214.4 83.2347 215.041 84.8961 215.041C86.5531 215.041 88.1034 214.392 89.2779 213.226C90.73 211.774 93.0875 211.774 94.5353 213.226C95.9831 214.674 95.9831 217.031 94.5353 218.479C91.9557 221.054 88.5348 222.472 84.8961 222.472Z" fill="#003780"/>
<path d="M94.736 240.679C91.2425 240.679 87.7575 239.346 85.0967 236.694C82.5214 234.119 81.1035 230.693 81.1035 227.05C81.1035 223.407 82.5214 219.982 85.0967 217.411L101.001 201.502C106.319 196.189 114.971 196.189 120.284 201.502C122.855 204.082 124.277 207.503 124.277 211.146C124.277 214.784 122.855 218.214 120.284 220.785C118.836 222.233 116.479 222.233 115.031 220.785C113.579 219.337 113.579 216.98 115.031 215.528C116.205 214.353 116.842 212.803 116.842 211.146C116.842 209.484 116.197 207.934 115.031 206.76C112.614 204.342 108.672 204.342 106.259 206.76L90.3499 222.664C89.1754 223.839 88.5348 225.393 88.5348 227.05C88.5348 228.707 89.1839 230.262 90.3499 231.436C92.7672 233.854 96.6963 233.854 99.1222 231.436C100.57 229.989 102.927 229.989 104.375 231.436C105.827 232.884 105.827 235.242 104.375 236.694C101.723 239.346 98.2296 240.679 94.736 240.679Z" fill="#003780"/>
<path d="M104.145 259.325C100.506 259.325 97.0765 257.907 94.5054 255.336C91.9344 252.765 90.5122 249.335 90.5122 245.692C90.5122 242.049 91.9344 238.633 94.5054 236.053L115.035 215.523C120.353 210.206 129.005 210.206 134.318 215.523C136.889 218.103 138.311 221.519 138.311 225.162C138.311 228.805 136.889 232.231 134.318 234.806L113.788 255.336C111.209 257.907 107.788 259.325 104.145 259.325ZM124.67 218.965C123.077 218.965 121.497 219.568 120.284 220.776L99.7543 241.306C98.5798 242.481 97.9392 244.035 97.9392 245.692C97.9392 247.349 98.5884 248.904 99.7543 250.078C100.929 251.253 102.483 251.893 104.14 251.893C105.798 251.893 107.352 251.244 108.527 250.078L129.056 229.548C130.231 228.374 130.867 226.819 130.867 225.162C130.867 223.505 130.222 221.951 129.056 220.776C127.852 219.568 126.259 218.965 124.67 218.965Z" fill="#003780"/>
<path d="M124.128 267.393C120.485 267.393 117.06 265.97 114.484 263.399C111.913 260.828 110.495 257.403 110.495 253.76C110.495 250.117 111.913 246.692 114.484 244.117C115.937 242.669 118.294 242.669 119.742 244.117C121.19 245.569 121.19 247.922 119.742 249.374C118.567 250.548 117.927 252.103 117.927 253.76C117.927 255.417 118.576 256.972 119.742 258.146C120.916 259.321 122.471 259.957 124.128 259.957C125.785 259.957 127.34 259.312 128.514 258.146L143.082 243.574C145.499 241.161 145.499 237.219 143.082 234.806C140.665 232.389 136.735 232.389 134.31 234.806C132.862 236.254 130.504 236.254 129.057 234.806C127.604 233.354 127.604 230.997 129.057 229.549C134.369 224.236 143.022 224.236 148.339 229.549C153.652 234.862 153.652 243.514 148.339 248.832L133.767 263.399C131.196 265.97 127.771 267.393 124.128 267.393Z" fill="#003780"/>
<mask id="mask2_1_1414" style="mask-type:luminance" maskUnits="userSpaceOnUse" x="113" y="0" width="117" height="115">
<path d="M113.007 0H229.993V114.732H113.007V0Z" fill="white"/>
</mask>
<g mask="url(#mask2_1_1414)">
<path d="M209.066 113.915C208.289 113.915 207.499 113.672 206.833 113.164C205.197 111.925 204.868 109.597 206.111 107.962C216.775 93.8765 222.413 77.0025 222.413 59.1846V27.6146L171.462 7.80644L120.523 27.606V59.176C120.523 75.7383 125.452 91.6301 134.779 105.134C135.945 106.826 135.523 109.145 133.836 110.311C132.149 111.477 129.83 111.054 128.664 109.367C118.469 94.6197 113.084 77.263 113.084 59.1846V25.0734C113.084 23.5402 114.027 22.165 115.454 21.6098L170.112 0.362377C170.979 0.0292524 171.94 0.0292524 172.803 0.362377L227.457 21.6098C228.887 22.165 229.831 23.5402 229.831 25.0734V59.1846C229.831 78.6382 223.673 97.0583 212.026 112.45C211.3 113.403 210.19 113.915 209.066 113.915Z" fill="#003780"/>
</g>
<path d="M189.933 107.279C189.036 107.279 188.135 106.959 187.422 106.306C185.905 104.913 185.807 102.564 187.191 101.057C197.702 89.5938 203.493 74.727 203.493 59.1855V40.5476L171.462 28.0895L139.435 40.5433V59.1769C139.435 73.9711 144.735 88.2869 154.357 99.5021C155.698 101.065 155.518 103.406 153.955 104.742C152.405 106.083 150.056 105.904 148.715 104.341C137.931 91.7805 131.99 75.7392 131.99 59.1684V37.9936C131.99 36.4604 132.934 35.0852 134.365 34.5299L170.112 20.6369C170.979 20.2995 171.94 20.2995 172.803 20.6369L208.549 34.5299C209.976 35.0852 210.92 36.4604 210.92 37.9936V59.1684C210.92 76.5806 204.437 93.2283 192.67 106.066C191.94 106.869 190.937 107.279 189.933 107.279Z" fill="#003780"/>
<path d="M164.184 83.4817C163.236 83.4817 162.284 83.1187 161.553 82.3969L151.205 72.053C149.757 70.6009 149.757 68.2434 151.205 66.7956C152.657 65.3478 155.015 65.3478 156.462 66.7956L164.184 74.5172L186.465 52.2406C187.913 50.7928 190.27 50.7928 191.718 52.2406C193.17 53.6927 193.17 56.0459 191.718 57.498L166.811 82.4055C166.089 83.1187 165.136 83.4817 164.184 83.4817Z" fill="#003780"/>
</svg>
