<svg width="321" height="322" viewBox="0 0 321 322" fill="none" xmlns="http://www.w3.org/2000/svg">
<path d="M181.488 125.272L181.409 125.193C181.409 125.193 181.33 125.115 181.256 125.115C181.72 125.504 181.641 125.425 181.488 125.272Z" fill="#003780"/>
<path d="M59.3456 191.307C59.4245 191.001 59.5034 190.922 59.3456 191.307V191.307Z" fill="#003780"/>
<path d="M316.123 70.4085C308.828 55.5868 301.765 40.6908 294.781 25.7902C292.92 21.8319 291.059 17.9524 289.194 13.9941C288.266 11.9801 287.333 9.9615 286.326 7.94289C285.546 6.31408 284.539 4.8384 283.221 3.59939C280.349 1.11209 276.623 -0.205813 272.901 0.0262126C268.553 0.337125 264.595 2.50887 260.715 4.21658C244.886 11.1263 229.132 18.2633 213.456 25.7113C198.017 33.0062 182.727 40.6119 167.52 48.2966C163.641 50.3106 159.682 52.2503 155.803 54.2689C152.077 56.1297 148.044 57.8374 144.782 60.399C142.067 62.4965 139.895 65.6752 139.273 69.0906C138.884 71.2624 138.884 73.3599 139.431 75.5316C139.974 77.7034 141.06 79.722 141.988 81.7406C146.104 90.8963 150.369 100.052 154.796 109.133C143.464 111.226 132.211 113.788 121.036 116.503C114.753 118.057 108.391 119.686 102.103 121.394C96.6738 122.865 91.1609 124.73 86.3533 127.677C81.3834 130.781 77.2719 135.051 74.6361 140.327C72.0745 145.45 70.6777 151.037 69.4341 156.545C67.1092 166.866 64.7008 177.186 61.0534 187.043C60.5893 188.207 60.1995 189.367 59.7355 190.532C59.6566 190.764 59.5034 191.001 59.4246 191.307V191.233C59.4246 191.307 59.3457 191.307 59.3457 191.386C59.1136 192.008 58.8027 192.551 58.5707 193.173C57.5637 195.423 56.4778 197.595 55.3131 199.767C52.8304 204.421 50.0368 208.848 46.9324 213.113C46.9324 213.113 46.9324 213.113 46.9324 213.192C45.8465 212.259 44.6817 211.405 43.517 210.551C40.1016 208.069 35.8369 206.055 31.5677 207.451C30.0131 207.916 28.6163 208.69 27.2984 209.465C21.3215 212.802 16.0453 217.693 11.312 222.579C9.06132 224.909 6.96845 227.313 5.02873 229.8C2.54607 232.9 0.448567 236.241 0.0634059 240.274C-0.247506 243.067 0.606344 245.94 2.15627 248.19C3.16325 249.587 4.32802 250.984 5.41389 252.302C7.8223 255.174 10.305 257.968 12.7876 260.761C19.4607 268.209 26.2915 275.583 33.1965 282.878C40.0227 290.094 46.8535 297.31 53.7585 304.447C56.3201 307.087 58.8816 309.723 61.4432 312.364C64.3899 315.389 67.4155 318.726 71.2996 320.433C74.3252 321.751 77.5828 322.062 80.6873 320.976C84.1769 319.737 87.1283 317.487 89.843 315.078C92.8686 312.443 95.6621 309.57 98.4557 306.698C101.249 303.825 104.043 301.032 106.526 297.932C108.544 295.449 110.642 292.577 111.185 289.314C111.649 286.215 111.027 283.263 109.398 280.627C108.312 278.92 107.068 277.365 105.672 275.815C105.908 275.425 106.14 275.04 106.372 274.729C106.451 274.65 106.451 274.572 106.526 274.497C106.526 274.497 106.526 274.497 106.451 274.572C106.526 274.572 106.526 274.497 106.526 274.418L106.604 274.339C106.683 274.261 106.683 274.186 106.762 274.186C106.836 274.107 106.915 274.029 106.915 273.95C107.226 273.565 107.611 273.175 108.001 272.79C108.159 272.632 108.391 272.479 108.544 272.321C108.934 272.089 109.245 271.857 109.63 271.625C110.02 271.393 110.405 271.156 110.795 271.003C110.953 270.924 111.185 270.85 111.338 270.692C115.992 269.142 120.572 267.124 124.61 264.33C134.387 257.657 142.225 248.733 146.958 237.791C149.594 231.74 151.38 225.373 152.852 219.011C154.174 213.424 155.339 207.683 157.042 202.171C157.432 201.01 157.822 199.767 158.286 198.602C158.286 198.528 158.364 198.37 158.439 198.291C158.518 198.138 158.596 197.985 158.596 197.906C158.828 197.363 159.061 196.894 159.371 196.351C159.603 195.966 159.835 195.498 160.072 195.112C160.225 194.955 160.304 194.723 160.457 194.569C160.457 194.491 160.536 194.491 160.536 194.412C160.768 194.101 161 193.869 161.311 193.558C161.469 193.405 161.622 193.247 161.78 193.173C161.78 193.173 161.78 193.173 161.854 193.094C162.165 192.941 162.476 192.704 162.787 192.551C162.787 192.551 162.787 192.551 162.866 192.551C163.019 192.472 163.177 192.393 163.251 192.393C163.409 192.319 163.641 192.319 163.794 192.24H163.873C163.952 192.24 164.026 192.24 164.184 192.24C164.262 192.24 164.262 192.24 164.337 192.24C164.337 192.24 164.262 192.24 164.262 192.161C164.337 192.161 164.416 192.161 164.495 192.24H164.573H164.648C164.648 192.24 164.648 192.24 164.727 192.319H164.648C164.727 192.319 164.805 192.393 164.805 192.393C164.88 192.393 164.88 192.472 164.959 192.472C165.659 193.094 166.355 193.716 166.977 194.412C171.246 198.913 176.755 203.261 183.349 202.718C190.565 202.171 196.695 195.887 195.767 188.439C198.481 187.818 201.043 186.5 203.136 184.56C208.57 179.437 209.424 171.367 207.869 164.383C208.57 163.218 209.192 161.975 209.577 160.736C210.742 156.93 210.278 152.898 209.266 149.097C212.37 147.701 215.475 146.378 218.579 144.981C234.566 137.844 250.474 130.549 266.228 123.022C274.219 119.222 282.21 115.338 290.126 111.384C294.238 109.365 298.275 107.347 302.308 105.254C305.57 103.621 308.828 101.839 311.853 99.7411C314.336 97.9591 316.587 96.0194 318.373 93.4578C319.844 91.3603 320.698 88.8777 320.935 86.3161C321.478 80.6547 318.526 75.2207 316.123 70.4085ZM276.702 8.40694C276.702 8.40694 276.548 8.33269 276.391 8.2538C276.548 8.40694 276.702 8.40694 276.702 8.40694ZM262.502 11.9012C264.441 11.0474 266.381 10.1935 268.321 9.33968C268.785 9.10765 269.254 8.94987 269.718 8.71785C269.95 8.6436 270.182 8.56471 270.339 8.40694C271.036 8.17491 271.81 7.94289 272.511 7.78975C272.664 7.78975 272.822 7.78975 273.054 7.78975C273.444 7.78975 273.755 7.78975 274.14 7.78975C274.219 7.78975 274.372 7.78975 274.451 7.78975C274.451 7.78975 274.53 7.78975 274.604 7.78975H274.683C274.915 7.78975 275.073 7.78975 274.683 7.78975C274.994 7.864 275.458 7.94289 275.537 8.02178C275.537 8.02178 276.001 8.17491 276.312 8.2538C276.312 8.2538 276.391 8.2538 276.391 8.33269C276.548 8.40694 276.702 8.48582 276.855 8.56471C277.091 8.71785 277.323 8.87563 277.555 9.02876C277.477 9.02876 277.477 8.94987 277.477 8.94987C277.477 8.94987 277.555 9.02876 277.709 9.10765C277.945 9.26079 277.866 9.26079 277.787 9.18654C277.945 9.33967 278.098 9.49281 278.098 9.49281C278.098 9.49281 278.409 9.80372 278.641 10.0404C278.72 10.1935 278.794 10.3467 278.952 10.4256C279.495 11.2794 279.885 12.2121 280.27 13.066C281.203 15.0057 282.136 16.9454 282.985 18.8852C286.869 27.1081 290.669 35.2568 294.549 43.4844C292.688 44.4914 290.901 45.503 289.041 46.4311C287.412 47.285 285.704 48.1388 284.075 48.9138C283.221 49.3036 282.442 49.6934 281.588 50.0785C281.203 50.2363 280.813 50.4683 280.428 50.6215C280.191 50.7004 279.959 50.7792 279.727 50.9324H279.648C279.495 51.0113 279.342 51.0902 279.184 51.0902C275.695 52.5612 272.121 53.8048 268.474 54.7329C266.692 55.2016 264.831 55.5868 263.045 55.8977C262.655 55.9766 262.191 56.0555 261.801 56.1297C261.727 56.1297 261.727 56.1297 261.648 56.1297H261.569C261.337 56.1297 261.105 56.2086 260.873 56.2086C259.94 56.2875 259.007 56.3664 258.079 56.4406C256.293 56.5195 254.506 56.5195 252.724 56.3664C252.334 56.3664 251.87 56.2875 251.48 56.2086C251.406 56.2086 251.327 56.2086 251.327 56.2086C251.248 56.2086 251.248 56.2086 251.17 56.2086C251.016 56.2086 250.784 56.1297 250.627 56.1297C249.699 55.9766 248.845 55.8235 247.912 55.5868C247.058 55.3548 246.204 55.1227 245.35 54.8907C244.965 54.7329 244.575 54.5798 244.186 54.5009C243.954 54.4267 243.722 54.3478 243.568 54.2689C243.49 54.2689 243.179 54.1158 243.1 54.0369C241.392 53.2619 239.842 52.4081 238.292 51.3222C236.895 50.3894 235.963 49.6145 234.645 48.3708C233.633 47.4427 232.779 46.4311 231.851 45.4241C229.675 43.0157 227.582 40.533 225.331 38.2082C223.234 36.1107 220.751 33.86 218.036 32.1523C228.9 27.0339 239.842 21.9897 250.863 17.0197C254.743 15.3166 258.622 13.6089 262.502 11.9012ZM149.752 66.297C149.594 66.3759 149.673 66.3759 149.752 66.297V66.297ZM74.7103 313.682C74.8681 313.76 75.0212 313.76 74.7103 313.682V313.682ZM101.639 291.644C101.56 291.802 101.407 291.955 101.249 292.108C101.249 292.187 101.096 292.266 101.017 292.419L100.938 292.498C100.706 292.73 100.474 293.041 100.321 293.273C97.8339 296.224 95.0403 299.018 92.3256 301.811C89.6109 304.605 86.8963 307.319 83.9449 309.881C83.634 310.192 83.2488 310.503 82.9379 310.735C82.7801 310.888 82.627 311.046 82.395 311.12C82.395 311.12 82.395 311.12 82.3161 311.199C82.2372 311.278 82.0841 311.357 82.0841 311.431C81.9263 311.589 81.7732 311.663 81.62 311.742C81.2302 311.974 80.9193 312.206 80.5295 312.443C79.9866 312.753 79.3694 313.06 78.8264 313.371C78.8264 313.371 78.8264 313.371 78.7476 313.371C78.4366 313.45 78.1257 313.603 77.7359 313.682C77.5039 313.76 77.2719 313.76 77.0399 313.839H76.961C76.6501 313.839 76.418 313.839 76.1071 313.839C76.1071 313.839 76.0329 313.839 75.954 313.839C76.186 313.914 76.418 313.914 75.954 313.839H75.8751C75.7962 313.839 75.722 313.839 75.6431 313.839C75.722 313.839 75.722 313.839 75.7962 313.839C75.5642 313.76 75.3322 313.76 75.179 313.682C74.9424 313.603 74.6361 313.45 74.3994 313.371C74.3252 313.371 74.2463 313.296 74.1674 313.296C73.8565 313.139 73.5456 312.985 73.3135 312.828C73.0026 312.675 72.6964 312.443 72.3854 312.206C72.3065 312.132 72.2277 312.132 72.1488 312.053C72.1488 312.053 72.0745 311.974 71.9956 311.9C71.3738 311.357 70.6777 310.809 70.0559 310.192C69.5919 309.723 69.2021 309.338 68.738 308.869C66.5616 306.698 64.4688 304.526 62.3713 302.354C56.0092 295.834 49.8002 289.24 43.517 282.641C38.3939 277.212 33.2754 271.704 28.1523 266.27C31.7997 265.806 35.4471 265.263 39.0157 264.483C40.4914 264.172 41.4983 262.311 41.0343 260.915C40.4914 259.365 39.0946 258.585 37.4658 258.896C32.4958 259.908 28.1523 260.529 23.2659 260.993C23.187 260.915 23.1081 260.761 22.9549 260.683C21.5582 259.133 20.1614 257.657 18.7646 256.102C26.4446 255.406 34.1292 254.474 41.7304 253.467C43.2849 253.235 44.1388 251.295 43.749 249.898C43.2849 248.19 41.7304 247.647 40.1804 247.879C31.4888 249.044 22.7183 249.972 13.9524 250.752C12.7087 249.276 11.4697 247.879 10.2261 246.404C15.1914 245.55 20.2356 244.775 25.2056 243.921C26.6766 243.689 27.6882 241.749 27.2196 240.353C26.6766 238.724 25.2798 238.023 23.651 238.334L7.27937 241.049C7.27937 241.049 7.27937 240.895 7.27937 240.817C7.27937 240.663 7.27937 240.585 7.27937 240.431C7.27937 240.506 7.27937 240.585 7.27937 240.663C7.35362 240.431 7.4325 240.121 7.51139 239.884C7.59028 239.652 7.66453 239.341 7.74342 239.109C7.8223 238.956 7.90119 238.724 7.97544 238.566C8.36524 237.87 8.7504 237.169 9.21909 236.547C9.45112 236.162 9.76203 235.772 10.0729 235.387C10.2261 235.229 10.305 235.076 10.4581 234.919C14.4953 229.874 19.0755 225.141 24.0408 220.951C24.6626 220.408 25.2798 219.944 25.9017 219.48C25.9805 219.401 26.1337 219.322 26.2126 219.243C26.5235 219.011 26.8344 218.779 27.1453 218.547C28.3054 217.693 29.4702 216.992 30.7138 216.296C31.3357 215.985 31.8786 215.596 32.4958 215.363C32.5747 215.363 32.6536 215.289 32.8067 215.21C32.9645 215.131 33.2754 215.053 33.3496 214.978C33.4285 214.978 33.5863 214.899 33.7394 214.899C33.8926 214.899 34.1292 214.899 34.2035 214.899C34.2824 214.899 34.3613 214.899 34.4355 214.899C34.7464 214.978 35.1362 215.053 35.4471 215.131C35.526 215.131 35.526 215.131 35.6003 215.21C35.6792 215.21 35.6792 215.21 35.7581 215.289C35.8323 215.289 35.9112 215.363 35.9901 215.363C35.9112 215.363 35.9112 215.363 35.8323 215.289C36.301 215.521 36.765 215.753 37.1548 215.985C37.6978 216.296 38.1618 216.607 38.7048 216.992C38.9368 217.15 39.1735 217.303 39.4055 217.535C39.5586 217.614 39.7164 217.772 39.7906 217.846C39.8695 217.925 39.9484 217.925 40.0227 218.004C41.8881 219.401 43.6701 221.03 45.3778 222.658C50.2689 227.239 54.9233 232.051 59.5034 236.937C66.7983 244.696 73.9354 252.534 81.0724 260.451C85.8104 265.727 90.5437 271.082 95.277 276.437C95.9731 277.212 96.5949 277.987 97.2909 278.688C97.5276 279.073 97.7596 279.384 98.1448 279.616C98.5346 280.006 98.9244 280.47 99.3096 280.859C99.8525 281.402 100.321 282.024 100.864 282.641C101.017 282.799 101.175 282.952 101.328 283.184C101.328 283.263 101.407 283.263 101.407 283.342C101.56 283.495 101.639 283.653 101.792 283.885C102.103 284.349 102.414 284.818 102.725 285.361C102.804 285.514 102.878 285.672 102.957 285.904V285.825C102.957 285.904 102.957 285.904 103.036 285.978C103.036 286.057 103.115 286.136 103.115 286.215C103.189 286.368 103.189 286.447 103.189 286.447C103.268 286.6 103.268 286.832 103.347 286.989C103.347 286.989 103.347 287.068 103.347 287.143C103.347 287.3 103.347 287.454 103.347 287.611C103.347 287.686 103.347 287.686 103.347 287.764C103.189 288.228 103.189 288.697 102.957 289.161V289.24C102.804 289.551 102.646 289.862 102.493 290.168C102.414 290.558 102.024 291.101 101.639 291.644ZM164.262 192.087C164.184 192.087 164.184 192.087 164.105 192.008C164.184 192.008 164.262 192.008 164.262 192.087C164.337 192.087 164.337 192.087 164.262 192.087ZM164.805 192.161C164.88 192.161 164.88 192.161 164.805 192.161C164.88 192.161 164.959 192.161 164.805 192.161ZM186.3 193.637C186.374 193.558 186.453 193.484 186.453 193.484C186.453 193.558 186.374 193.637 186.3 193.637ZM187.307 192.63C187.386 192.551 187.386 192.472 187.386 192.472C187.386 192.551 187.386 192.63 187.307 192.63ZM188.161 190.532C188.161 190.611 188.161 190.69 188.161 190.764C188.161 190.69 188.161 190.69 188.161 190.611C188.082 190.843 188.008 191.154 187.929 191.386C187.85 191.465 187.771 191.776 187.771 191.85C187.618 192.161 187.465 192.398 187.307 192.704C187.228 192.783 187.154 192.862 187.154 192.862C186.917 193.094 186.685 193.326 186.374 193.558C186.3 193.637 186.3 193.637 186.3 193.637C186.221 193.716 186.068 193.795 185.989 193.795C185.678 193.948 185.446 194.101 185.135 194.259C185.135 194.259 185.135 194.259 185.057 194.259C185.135 194.18 185.214 194.18 185.289 194.18C185.289 194.18 185.214 194.18 185.057 194.259C184.671 194.491 184.903 194.337 185.057 194.259C184.978 194.259 184.903 194.337 184.825 194.337C184.514 194.412 184.203 194.569 183.892 194.644C183.892 194.644 183.739 194.723 183.581 194.723C183.507 194.723 183.428 194.723 183.349 194.723C183.038 194.723 182.653 194.723 182.342 194.723C182.263 194.723 182.11 194.723 182.031 194.723C181.177 194.569 180.402 194.337 179.627 194.101C179.548 194.101 179.548 194.101 179.469 194.027C179.316 193.948 179.158 193.869 179.005 193.795C178.694 193.637 178.384 193.484 178.073 193.326C177.451 193.015 176.908 192.63 176.291 192.161C176.291 192.161 176.291 192.161 176.212 192.161L176.133 192.087C175.901 191.929 175.669 191.697 175.437 191.465C174.968 191.001 174.425 190.532 173.961 190.068C173.186 189.293 172.407 188.439 171.632 187.66C169.924 185.957 167.984 184.481 165.58 184.17C163.251 183.859 160.689 184.56 158.675 185.646C154.559 188.05 152.309 192.551 150.68 196.894C148.819 202.017 147.733 207.373 146.489 212.649C145.093 218.779 143.622 224.988 141.445 230.886C141.213 231.582 140.902 232.204 140.67 232.9C140.67 232.979 140.359 233.601 140.359 233.68C140.359 233.754 140.28 233.754 140.28 233.833C140.206 234.065 140.048 234.297 139.974 234.533C139.352 235.851 138.731 237.09 138.109 238.334C136.791 240.817 135.241 243.225 133.533 245.471C133.454 245.55 133.454 245.55 133.454 245.629C133.454 245.629 133.454 245.629 133.375 245.708C133.143 245.94 132.99 246.172 132.754 246.483C132.29 247.026 131.9 247.568 131.436 248.033C130.508 249.044 129.575 250.051 128.642 250.984C127.635 251.912 126.623 252.845 125.617 253.777C125.152 254.163 124.61 254.631 124.141 255.016C124.067 255.095 123.756 255.327 123.598 255.485C123.445 255.638 123.213 255.796 123.055 255.87C120.883 257.499 118.554 259.054 116.071 260.293C115.528 260.604 114.985 260.836 114.442 261.072C114.363 261.072 114.289 261.147 114.289 261.147C114.052 261.225 113.899 261.304 113.667 261.379C112.734 261.768 111.802 262.079 110.795 262.469C108.855 263.244 106.836 263.94 105.129 265.105C103.268 266.349 101.718 267.898 100.395 269.685C98.4557 267.513 96.5949 265.416 94.6552 263.244C86.5065 254.088 78.2835 244.928 69.977 235.93C64.7008 230.185 59.3457 224.519 53.6843 219.09C53.3734 218.779 52.9836 218.468 52.6726 218.083C58.3387 210.319 63.1509 202.017 66.7983 193.173C70.752 183.706 73.3135 173.85 75.6431 163.84C76.8867 158.485 77.8937 153.13 79.6803 147.933C79.9123 147.311 80.1443 146.689 80.3764 146.067C80.3764 145.993 80.3764 145.993 80.4553 145.914C80.4553 145.914 80.4553 145.914 80.4553 145.835C80.6084 145.524 80.7662 145.213 80.9193 144.828C81.4622 143.663 82.0841 142.42 82.7801 141.334C83.1699 140.791 83.5597 140.248 83.8707 139.705C83.9449 139.626 83.9449 139.552 84.0238 139.552C84.2558 139.241 84.4878 139.009 84.7199 138.698C85.5737 137.686 86.5853 136.758 87.5923 135.983C87.8243 135.747 88.293 135.436 87.7501 135.826C88.0564 135.593 88.293 135.436 88.604 135.204C89.1469 134.819 89.6898 134.508 90.2328 134.118C91.3975 133.422 92.5577 132.8 93.7224 132.257C94.0333 132.099 94.2654 132.025 94.5763 131.867C94.734 131.793 94.8872 131.714 94.9661 131.714C95.5879 131.482 96.2051 131.245 96.748 131.013C97.9917 130.549 99.3096 130.085 100.627 129.695C106.526 127.835 112.502 126.438 118.479 124.883C131.051 121.704 143.696 118.753 156.425 116.428C156.968 116.349 157.511 116.27 158.054 116.117C158.364 116.813 158.75 117.514 159.061 118.21C159.761 119.607 160.383 120.925 161.079 122.322C160.457 122.711 159.835 123.022 159.218 123.412C145.482 131.171 132.447 140.174 119.408 149.018C117.7 150.183 116.071 151.269 114.363 152.434C112.656 153.594 111.802 155.923 112.967 157.71C114.052 159.418 116.461 160.346 118.243 159.107C130.972 150.568 143.543 141.724 156.657 133.886C159.914 131.946 163.251 130.006 166.587 128.22C168.295 127.292 170.003 126.438 171.71 125.584C171.943 125.505 172.1 125.426 172.253 125.352C172.564 125.194 172.954 125.115 173.26 124.962C174.04 124.73 174.736 124.498 175.511 124.34C175.822 124.261 176.212 124.187 176.523 124.108C177.14 124.029 177.762 124.029 178.384 124.029C178.462 124.029 178.848 124.108 179.005 124.108H179.084C179.316 124.187 179.548 124.187 179.78 124.261C179.859 124.261 180.17 124.419 180.323 124.498C180.555 124.572 180.713 124.73 180.945 124.809C180.945 124.809 180.945 124.809 181.024 124.809C180.945 124.73 180.945 124.73 180.866 124.651C180.945 124.73 181.024 124.809 181.098 124.883L181.177 124.962C181.256 125.041 181.33 125.041 181.409 125.115C181.567 125.273 181.641 125.426 181.799 125.505C182.031 125.895 182.263 126.206 182.421 126.591C182.495 126.749 182.574 126.902 182.574 126.981C182.727 127.445 182.885 127.909 182.964 128.378C182.964 128.531 183.038 128.688 183.038 128.842C183.038 128.92 183.038 128.92 183.038 128.999C183.038 129.542 183.117 130.006 183.117 130.549C183.117 131.092 183.117 131.635 183.038 132.099C183.038 132.178 182.964 132.41 182.964 132.568C182.964 132.336 183.117 131.793 182.964 132.489V132.568V132.642C182.964 132.642 182.964 132.642 182.964 132.568C182.885 132.953 182.806 133.264 182.727 133.654C182.574 134.429 182.342 135.204 182.11 135.983C181.952 136.368 181.878 136.758 181.72 137.143C181.641 137.301 181.641 137.38 181.567 137.533C181.567 137.533 181.567 137.533 181.567 137.612C180.866 139.083 180.091 140.48 179.237 141.802C178.848 142.42 178.384 143.041 177.919 143.663C177.841 143.816 177.609 144.053 177.53 144.127C177.219 144.517 176.908 144.828 176.597 145.213C174.425 147.701 172.021 149.951 169.46 152.044C168.838 152.587 168.216 153.051 167.599 153.52C167.288 153.752 166.898 154.063 166.587 154.295C166.587 154.295 166.513 154.374 166.434 154.448C166.276 154.527 165.97 154.838 165.97 154.759C164.416 155.923 162.866 157.167 161.311 158.332C158.596 160.425 155.882 162.596 153.399 165.005L153.32 165.079L153.241 165.158C150.759 167.641 148.429 170.355 146.568 173.386C144.629 176.564 143.074 179.98 141.835 183.469C139.431 189.989 137.956 196.741 135.394 203.182C135.241 203.493 135.162 203.804 135.004 204.115C134.93 204.268 134.93 204.347 134.851 204.5V204.579C134.54 205.354 134.15 206.129 133.765 206.909C133.064 208.305 132.368 209.623 131.515 210.941C131.125 211.642 130.661 212.259 130.197 212.881C130.039 213.113 129.417 214.046 129.96 213.271C129.728 213.582 129.496 213.892 129.264 214.199C128.257 215.363 127.166 216.449 126.006 217.461C125.927 217.54 125.849 217.614 125.695 217.693H125.617C125.306 217.925 124.995 218.157 124.684 218.389C124.067 218.858 123.366 219.243 122.67 219.554C120.883 220.487 120.182 223.122 121.273 224.83C122.433 226.617 124.684 227.239 126.549 226.227C139.663 219.243 143.385 203.878 147.422 190.922C147.965 189.214 148.508 187.428 149.13 185.72C149.441 184.945 149.673 184.249 149.984 183.469C150.058 183.395 150.295 182.773 150.369 182.62C150.606 182.152 150.759 181.687 150.991 181.298C151.766 179.669 152.62 178.119 153.631 176.564C154.095 175.868 154.559 175.246 155.028 174.625C155.181 174.472 155.413 174.082 155.571 174.003C155.882 173.618 156.193 173.307 156.499 172.917C157.2 172.142 157.975 171.367 158.75 170.592C158.75 170.666 158.907 170.592 159.061 170.355C159.061 170.355 158.986 170.355 158.986 170.434C158.907 170.513 158.828 170.513 158.75 170.592C158.75 170.592 158.75 170.592 158.828 170.513L158.907 170.434C159.139 170.281 159.371 170.123 159.603 169.97C160.146 169.58 160.768 169.27 161.39 169.037C161.39 169.037 161.39 169.037 161.469 169.037C161.469 169.037 161.543 168.959 161.622 168.959C161.701 168.959 161.701 168.959 161.78 168.884C161.854 168.884 161.854 168.805 161.933 168.805C161.933 168.805 161.854 168.805 161.854 168.884C162.165 168.805 162.397 168.652 162.708 168.573C163.33 168.341 164.026 168.184 164.727 168.031C164.88 168.031 165.116 167.952 165.269 167.952C165.423 167.952 165.891 167.873 165.966 167.873C166.666 167.798 167.362 167.798 168.142 167.873C168.453 167.873 168.759 167.952 169.07 167.952H169.149C169.85 168.105 170.546 168.263 171.168 168.416C171.4 168.495 171.632 168.573 171.864 168.652C171.943 168.727 172.021 168.727 172.175 168.805C172.796 169.116 173.26 169.502 173.882 169.812C173.961 169.891 174.04 169.891 174.04 169.97C174.272 170.202 174.504 170.355 174.736 170.592C174.894 170.745 175.126 171.135 175.358 171.288C175.437 171.367 175.511 171.52 175.59 171.599C175.822 171.91 175.98 172.295 176.212 172.685C176.291 172.843 176.523 173.307 176.523 173.46C176.597 173.618 176.676 173.771 176.676 173.929C176.834 174.314 176.987 174.782 177.219 175.168C179.084 179.59 181.409 184.323 185.831 186.732C186.374 187.043 186.917 187.275 187.465 187.428C187.465 187.507 187.539 187.586 187.539 187.66C187.618 187.818 187.697 188.593 187.771 188.75C187.771 188.903 187.771 188.982 187.771 189.135C187.771 189.446 187.771 189.757 187.771 190.068C188.161 190.379 188.161 190.453 188.161 190.532ZM194.913 154.916C197.317 154.142 199.646 153.209 201.976 152.197C202.05 152.666 202.129 153.051 202.282 153.52C202.282 153.752 202.361 153.905 202.361 154.142C202.44 154.374 202.44 154.759 202.361 154.142C202.44 154.527 202.44 154.991 202.44 155.302C202.44 155.691 202.44 156.155 202.44 156.545C202.44 156.698 202.44 156.935 202.44 157.088C202.44 157.088 202.44 157.088 202.44 157.167C202.282 157.863 202.129 158.485 201.897 159.181V159.26C201.897 159.26 201.897 159.339 201.818 159.339C201.665 159.65 201.433 160.035 201.275 160.346C201.196 160.425 201.043 160.578 200.964 160.736C200.811 160.889 200.653 161.047 200.5 161.2C200.421 161.279 200.11 161.511 199.957 161.668C199.799 161.743 199.646 161.9 199.488 161.975C199.256 162.132 198.946 162.211 198.714 162.364C198.639 162.364 198.56 162.443 198.56 162.443C198.249 162.522 198.017 162.596 197.707 162.675C197.628 162.675 197.474 162.754 197.396 162.754C197.085 162.754 196.695 162.754 196.389 162.754C196.152 162.754 195.688 162.675 195.377 162.675C195.298 162.675 195.224 162.675 195.145 162.596C194.755 162.518 194.291 162.364 193.901 162.286C193.748 162.211 193.595 162.211 193.437 162.132C193.358 162.132 193.284 162.054 193.284 162.054C193.052 161.9 192.662 161.743 192.662 161.668C192.351 161.511 191.962 161.279 191.655 161.047C191.498 160.968 191.344 160.815 191.187 160.736C191.187 160.736 191.187 160.736 191.108 160.657C190.491 160.114 189.948 159.65 189.405 159.028C189.168 158.717 188.862 158.485 188.625 158.174C188.551 158.021 188.393 157.942 188.314 157.784C188.314 157.71 188.24 157.71 188.161 157.631C187.771 157.167 187.465 156.624 187.154 156.081C189.79 156.155 192.43 155.691 194.913 154.916ZM195.846 162.675C195.92 162.675 195.92 162.675 195.846 162.675V162.675ZM175.669 171.367C175.511 171.288 175.59 171.288 175.669 171.367V171.367ZM193.595 180.913C193.516 180.913 193.516 180.913 193.437 180.913C192.894 180.987 193.358 180.913 193.595 180.913ZM200.885 171.446C200.885 171.831 200.811 172.142 200.811 172.532C200.811 172.606 200.811 172.685 200.811 172.685C200.811 172.764 200.732 172.917 200.732 172.917C200.579 173.618 200.421 174.239 200.268 174.857C200.189 175.168 200.036 175.4 199.957 175.636C199.878 175.789 199.799 175.868 199.799 176.021C199.567 176.564 199.256 177.033 198.871 177.576C198.871 177.576 198.871 177.65 198.792 177.729C198.714 177.808 198.714 177.808 198.639 177.882C198.639 177.961 198.56 177.961 198.56 177.961V177.882C198.403 178.119 198.171 178.351 198.017 178.504C197.785 178.736 197.628 178.894 197.396 179.126C197.317 179.205 197.242 179.205 197.242 179.279C196.774 179.59 196.31 179.901 195.846 180.133C195.767 180.133 195.767 180.212 195.688 180.212C195.456 180.291 195.224 180.37 194.992 180.444C194.681 180.523 194.37 180.602 193.98 180.676C193.901 180.676 193.748 180.755 193.669 180.755C193.126 180.676 192.583 180.834 192.04 180.834C191.887 180.755 191.266 180.676 191.187 180.676C190.955 180.602 190.801 180.523 190.565 180.523C190.18 180.291 189.79 180.059 189.405 179.827C189.405 179.827 189.405 179.827 189.326 179.827C189.168 179.669 188.936 179.516 188.783 179.358C188.472 179.047 188.161 178.662 187.85 178.272C187.697 178.04 187.539 177.882 187.465 177.65C187.154 177.186 186.917 176.722 186.611 176.253C186.142 175.4 185.678 174.546 185.289 173.618C185.214 173.386 185.135 173.228 185.057 172.996C184.903 172.606 184.746 172.295 184.592 171.91C183.66 169.659 182.806 167.798 181.177 165.933C179.158 163.608 176.365 161.975 173.418 161.121C172.875 160.968 172.253 160.815 171.632 160.736C172.175 160.272 172.796 159.882 173.339 159.418C174.968 158.174 176.523 156.777 178.073 155.381C180.713 161.432 184.978 166.945 191.187 169.427C194.291 170.666 197.707 170.745 200.885 169.738C200.885 170.281 200.885 170.898 200.885 171.446ZM312.707 87.7129C312.628 87.9496 312.475 88.1027 312.396 88.3347C312.164 88.7988 311.853 89.1886 311.621 89.5784C311.621 89.5784 311.621 89.6526 311.542 89.6526C311.389 89.8893 311.231 90.0424 310.999 90.2745C310.535 90.7431 310.146 91.2072 309.682 91.5924C309.449 91.829 309.217 91.9822 308.981 92.2142C308.907 92.2931 308.828 92.372 308.749 92.4462C308.749 92.4462 308.749 92.4462 308.828 92.4462C308.828 92.4462 308.828 92.4462 308.749 92.4462C308.675 92.5251 308.675 92.5251 308.596 92.604C308.517 92.6829 308.438 92.7571 308.438 92.6829C308.285 92.836 308.127 92.9149 308.053 92.9891C307.742 93.2258 307.431 93.4578 307.12 93.6899C304.016 95.7827 300.679 97.4904 297.342 99.1981C289.584 103.078 281.825 106.957 274.061 110.762C258.696 118.21 243.258 125.505 227.735 132.489C220.208 135.904 212.607 139.32 205.001 142.656C204.458 142.888 203.99 143.12 203.447 143.352C203.373 143.352 203.294 143.431 203.215 143.431C201.818 144.053 200.5 144.596 199.103 145.213C198.639 145.371 198.249 145.603 197.785 145.761C197.707 145.761 197.549 145.835 197.474 145.914C197.317 145.993 197.164 146.067 197.085 146.067C196.152 146.457 195.224 146.768 194.37 147.158C192.894 147.701 191.419 148.086 189.869 148.397C189.711 148.397 189.558 148.475 189.479 148.475C189.168 148.475 188.862 148.554 188.551 148.554C188.24 148.554 187.929 148.554 187.697 148.554C187.539 148.554 187.465 148.554 187.307 148.554C186.843 148.475 186.3 148.318 185.831 148.165C185.757 148.165 185.757 148.165 185.678 148.086C185.521 148.007 185.446 147.933 185.289 147.854C186.142 146.689 186.996 145.45 187.697 144.127C190.491 139.083 192.198 132.879 191.033 127.055C195.846 124.73 200.732 122.479 205.544 120.15C206.398 119.765 207.252 119.375 208.027 118.985C209.424 118.289 209.814 116.27 209.034 115.031C208.18 113.556 206.472 113.324 205.076 114.02C199.646 116.581 194.138 119.222 188.704 121.779C188.24 121.162 187.697 120.54 187.154 119.997C185.057 118.057 182.421 117.045 179.627 116.813C175.743 116.428 171.943 117.514 168.295 119.222C163.562 109.597 158.828 99.8988 154.327 90.1213C152.698 86.627 151.148 83.1374 149.515 79.6431C149.13 78.715 148.661 77.8611 148.276 76.9284C148.044 76.3855 147.812 75.8425 147.575 75.3785C147.501 75.1418 147.422 74.9098 147.343 74.5989C147.19 74.2137 147.111 73.8239 147.032 73.4341C147.032 73.4341 146.958 73.2021 146.958 73.049V72.9701C146.958 72.5849 146.958 72.274 146.958 71.8842C146.958 71.7311 146.958 71.5733 146.958 71.4202C147.032 71.0303 147.111 70.7194 147.19 70.3343C147.264 70.1765 147.264 70.0234 147.343 69.8656C147.343 69.7913 147.422 69.7124 147.422 69.6336C147.501 69.4804 147.575 69.3226 147.654 69.1695C147.812 68.8586 148.044 68.5477 148.276 68.2368C148.355 68.1579 148.429 68.0047 148.587 67.9259C148.819 67.6938 149.051 67.4618 149.283 67.1509C149.515 66.9189 149.905 66.6869 150.137 66.4502C150.295 66.3759 150.448 66.2182 150.606 66.1439C152.155 65.1323 153.863 64.3573 155.492 63.5035C157.432 62.4965 159.371 61.4849 161.311 60.5568C176.133 53.0299 190.955 45.5773 205.929 38.2824C207.637 37.4286 209.345 36.6536 211.053 35.7997C211.21 35.7997 211.595 35.8786 211.753 35.8786C212.06 35.9575 212.37 36.0318 212.681 36.1107C212.913 36.1895 213.15 36.2684 213.456 36.4216C213.535 36.4216 213.535 36.5005 213.614 36.5005C213.846 36.5747 214.078 36.7325 214.31 36.8114C214.932 37.1223 215.475 37.5074 216.018 37.8184C216.329 38.0504 216.64 38.2824 216.951 38.5191C217.03 38.5933 217.03 38.5933 217.104 38.6722C217.183 38.7511 217.415 38.9042 217.494 38.9831C218.811 40.069 219.976 41.1549 221.141 42.3196C225.642 46.8998 229.443 52.2503 234.719 56.0555C241.007 60.5568 248.766 62.6496 256.45 62.5707C264.13 62.4965 271.657 60.5568 278.72 57.7632C285.082 55.2805 291.212 52.2503 297.189 48.9138C299.361 53.5728 301.612 58.2272 303.862 62.8074C305.57 66.3759 307.352 69.9445 309.06 73.513C309.835 75.0676 310.614 76.6175 311.389 78.2463C311.542 78.5572 311.621 78.7892 311.774 79.1002C311.774 79.179 311.774 79.179 311.853 79.2579C312.085 79.8751 312.317 80.4181 312.475 81.0399C312.786 82.0515 313.018 83.0585 313.25 84.0655C313.25 84.3021 313.329 84.5342 313.329 84.7662C313.329 85.2302 313.329 85.6989 313.329 86.163C313.329 86.3161 313.25 86.4739 313.25 86.7059C312.939 86.9379 312.786 87.3277 312.707 87.7129Z" fill="#003780"/>
<path d="M308.285 92.6033C308.438 92.5244 308.517 92.4455 308.674 92.3712C308.364 92.4455 308.285 92.6033 308.285 92.6033Z" fill="#003780"/>
<path d="M277.787 9.10751C277.709 9.10751 277.709 9.02863 277.634 9.02863C277.634 9.10751 277.709 9.10751 277.787 9.10751Z" fill="#003780"/>
<path d="M217.183 88.7243C216.487 86.1628 214.853 83.759 213.693 81.4295C212.992 80.1116 212.37 78.8679 211.674 77.55C211.053 76.3853 210.589 75.2205 209.814 74.2135C208.338 72.1949 206.319 70.6403 203.916 69.9443C201.354 69.2435 198.792 69.5545 196.389 70.6403C191.73 72.7378 187.228 74.8307 182.653 77.0813C180.402 78.1719 178.152 79.2577 175.822 80.3436C173.729 81.3506 171.478 82.1255 169.771 83.759C166.513 86.8588 165.659 91.7499 167.441 95.8614C168.374 98.0331 169.46 100.131 170.546 102.224C171.632 104.474 172.717 106.883 174.114 108.901C176.755 112.623 181.488 114.484 185.91 113.166C188.314 112.47 190.723 111.147 193.052 110.14C195.377 109.133 197.707 108.047 199.957 106.957C202.282 105.871 204.612 104.711 206.941 103.546C208.96 102.534 211.21 101.606 212.992 100.284C216.64 97.5691 218.347 93.0678 217.183 88.7243ZM172.643 93.2998C172.564 92.8358 172.643 93.1467 172.643 93.2998V93.2998ZM179.158 105.797C178.926 105.56 179.005 105.718 179.158 105.797V105.797ZM211.442 93.2998C211.442 93.2998 211.21 93.7685 211.131 93.9217C211.053 94.0795 210.974 94.2326 210.899 94.3857C210.899 94.4646 210.899 94.4646 210.821 94.4646C210.51 94.7755 210.199 95.0864 209.888 95.3974C209.888 95.3974 209.888 95.3974 209.814 95.4762C209.814 95.4762 209.735 95.4762 209.735 95.5505C209.577 95.6294 209.424 95.7083 209.266 95.8614C208.881 96.0934 208.417 96.3301 208.027 96.4832C206.941 97.0262 205.855 97.648 204.69 98.1909C202.672 99.1979 200.732 100.21 198.714 101.138C194.602 103.077 190.491 104.943 186.374 106.725C185.446 107.115 184.978 107.347 184.124 107.579C184.124 107.579 183.892 107.658 183.739 107.658C183.66 107.658 183.507 107.658 183.428 107.658C183.196 107.658 182.964 107.658 182.727 107.658C182.653 107.658 182.342 107.658 182.263 107.579C181.952 107.504 181.72 107.504 181.409 107.347C181.33 107.347 181.177 107.268 181.098 107.268C181.024 107.268 180.866 107.115 180.787 107.115C180.481 106.957 180.17 106.725 179.859 106.572L179.78 106.493C179.627 106.34 179.391 106.108 179.237 105.95L179.158 105.871C179.084 105.718 178.926 105.56 178.848 105.407C178.537 104.864 178.23 104.321 177.994 103.857C177.451 102.845 176.908 101.838 176.444 100.906C175.437 98.887 174.425 96.873 173.497 94.8544C173.26 94.3857 173.028 93.8428 172.796 93.3787C172.796 93.3787 172.796 93.3787 172.796 93.2998C172.717 93.1467 172.717 92.9889 172.643 92.8358C172.564 92.6827 172.564 92.5249 172.485 92.2929C172.485 92.214 172.485 92.214 172.485 92.214C172.485 91.8288 172.485 91.3601 172.485 90.975C172.485 90.975 172.485 90.975 172.485 90.8961C172.485 90.8961 172.485 90.8961 172.485 90.8172C172.485 90.664 172.564 90.5063 172.564 90.3531C172.643 90.1954 172.643 90.0422 172.717 89.8891C172.717 89.8891 172.796 89.5782 172.875 89.4993C172.875 89.4204 172.954 89.3462 172.954 89.3462C173.028 89.1884 173.186 88.9563 173.26 88.7986C173.339 88.7243 173.339 88.6454 173.418 88.5665C173.418 88.5665 173.729 88.2556 173.729 88.1814C173.882 88.0236 173.961 87.9494 174.114 87.7916C174.193 87.7127 174.193 87.7127 174.193 87.7127C174.193 87.7127 174.272 87.7127 174.351 87.6385C174.736 87.4018 175.126 87.1698 175.511 87.0166C176.676 86.4737 177.841 85.9308 178.926 85.3878C181.256 84.3019 183.581 83.2114 185.91 82.0513C190.412 79.8749 194.913 77.7821 199.488 75.6845C199.024 75.9212 200.036 75.5314 200.189 75.5314C200.268 75.5314 200.5 75.4525 200.579 75.4525C200.653 75.4525 200.732 75.4525 200.885 75.4525C201.196 75.4525 201.507 75.4525 201.739 75.4525C201.818 75.4525 201.976 75.4525 202.05 75.5314C202.282 75.6103 202.519 75.6845 202.83 75.7634C202.904 75.7634 203.062 75.8423 203.136 75.8423C203.215 75.9212 203.294 75.9212 203.447 75.9955C203.679 76.1532 203.99 76.3064 204.226 76.4642C204.226 76.4642 204.769 76.9282 204.844 77.0071C204.922 77.1602 205.076 77.2391 205.155 77.3922C205.155 77.4711 205.387 77.7032 205.387 77.7821C206.472 79.6429 207.405 81.5826 208.338 83.5223C209.345 85.4621 210.357 87.4018 211.285 89.2673C211.363 89.4204 211.442 89.4993 211.517 89.6524C211.517 89.7313 211.596 89.8891 211.674 89.9633C211.753 90.2743 211.828 90.5852 211.906 90.8961C211.906 90.975 211.985 91.439 211.985 91.5921C211.985 91.8288 211.906 92.0608 211.985 92.214V92.2929C211.596 92.6038 211.517 92.9889 211.442 93.2998Z" fill="#003780"/>
<path d="M236.817 98.5765C230.686 101.528 224.556 104.4 218.347 107.347C217.494 107.737 216.561 108.201 215.707 108.591C214.31 109.287 213.925 111.305 214.7 112.544C215.554 114.02 217.262 114.252 218.658 113.556L237.127 104.785C237.981 104.4 238.909 103.932 239.763 103.546C241.16 102.846 241.55 100.827 240.775 99.5881C239.921 98.1914 238.213 97.8804 236.817 98.5765Z" fill="#003780"/>
<path d="M267.388 83.9128C261.258 86.8595 255.128 89.732 248.919 92.6833C248.07 93.0685 247.137 93.5372 246.283 93.9223C244.886 94.623 244.497 96.637 245.276 97.8807C246.125 99.3563 247.833 99.5884 249.23 98.8876C255.36 95.9409 261.49 93.0685 267.699 90.1218C268.553 89.732 269.486 89.2679 270.339 88.8781C271.736 88.182 272.121 86.1634 271.346 84.9198C270.571 83.523 268.864 83.2121 267.388 83.9128Z" fill="#003780"/>
<path d="M297.189 69.7908C291.059 72.7375 284.929 75.61 278.72 78.5567C277.866 78.9465 276.934 79.4106 276.08 79.8004C274.683 80.4964 274.298 82.5151 275.073 83.7587C275.927 85.2297 277.634 85.4618 279.031 84.7657C285.161 81.8143 291.291 78.9465 297.5 75.9952C298.349 75.61 299.282 75.1413 300.136 74.7562C301.533 74.0554 301.923 72.0368 301.143 70.7978C300.294 69.401 298.586 69.0901 297.189 69.7908Z" fill="#003780"/>
<path d="M188.082 190.69V190.611C188.082 190.532 188.082 190.532 188.082 190.454C188.082 190.454 188.082 190.454 188.082 190.379C188.161 190.222 188.082 190.3 188.082 190.69Z" fill="#003780"/>
<path d="M164.573 192.087C164.494 192.087 164.494 192.087 164.416 192.087C164.573 192.161 164.648 192.161 164.726 192.161C164.648 192.161 164.648 192.161 164.573 192.087Z" fill="#003780"/>
<path d="M106.525 274.497C106.836 274.186 106.836 274.108 106.762 274.186C106.762 274.261 106.683 274.34 106.525 274.497Z" fill="#003780"/>
<path d="M162.397 169.116C162.323 169.195 162.323 169.195 162.397 169.116C162.244 169.195 162.165 169.195 162.086 169.27C161.854 169.348 162.012 169.427 162.397 169.116Z" fill="#003780"/>
<path d="M198.56 178.04C198.639 177.882 198.713 177.808 198.792 177.729C198.792 177.729 198.792 177.65 198.871 177.65C198.871 177.65 198.713 177.729 198.56 178.04Z" fill="#003780"/>
<path d="M36.1431 215.21C36.0688 215.21 36.0688 215.21 36.0688 215.132C35.99 215.132 35.99 215.132 35.9111 215.053C35.6002 214.978 35.3681 214.978 36.1431 215.21Z" fill="#003780"/>
<path d="M103.421 286.135V286.056C103.421 285.977 103.347 285.824 103.347 285.745C103.347 285.745 103.347 285.745 103.347 285.671C103.347 286.056 103.421 286.135 103.421 286.135Z" fill="#003780"/>
<path d="M93.4114 137.997C90.0749 140.016 87.5134 143.273 86.5064 147.078C86.2744 147.774 86.4275 148.628 86.8173 149.329C87.2071 149.951 87.8243 150.494 88.525 150.647C90.0749 150.958 91.7037 150.183 92.0935 148.628C92.1724 148.243 92.3256 147.853 92.4833 147.464C92.7942 146.689 93.2583 145.993 93.7223 145.292C94.2653 144.67 94.8082 144.127 95.43 143.584C95.741 143.352 96.0519 143.199 96.3628 142.967C96.9846 142.577 97.5275 141.955 97.6807 141.259C97.8338 140.559 97.7596 139.626 97.3698 139.009C96.5948 137.686 94.8082 137.143 93.4114 137.997Z" fill="#003780"/>
<path d="M126.623 239.341C125.927 239.341 125.073 239.577 124.531 240.194C123.598 241.28 122.591 242.292 121.426 243.225C120.029 244.232 118.554 245.086 117.004 245.782C117.083 245.782 117.157 245.707 117.157 245.707C116.461 246.014 115.918 246.325 115.528 247.025C115.143 247.647 114.985 248.575 115.217 249.276C115.449 249.972 115.918 250.673 116.54 250.984C117.157 251.294 118.09 251.527 118.786 251.294C122.591 249.74 126.006 247.489 128.563 244.311C129.111 243.689 129.417 243.067 129.417 242.213C129.417 241.517 129.111 240.663 128.563 240.12C128.178 239.73 127.403 239.341 126.623 239.341Z" fill="#003780"/>
<path d="M195.767 53.8834C198.328 52.4077 200.964 50.932 203.526 49.4564C204.843 48.6814 205.386 46.8206 204.533 45.5027C203.679 44.1801 201.976 43.6372 200.579 44.491C198.017 45.9667 195.377 47.4424 192.815 48.9134C191.497 49.693 190.954 51.5539 191.808 52.8718C192.662 54.1897 194.37 54.7326 195.767 53.8834Z" fill="#003780"/>
</svg>
