<svg width="295" height="271" viewBox="0 0 295 271" fill="none" xmlns="http://www.w3.org/2000/svg">
<mask id="mask0_1_3693" style="mask-type:luminance" maskUnits="userSpaceOnUse" x="0" y="0" width="295" height="271">
<path d="M0 0H294.188V271H0V0Z" fill="white"/>
</mask>
<g mask="url(#mask0_1_3693)">
<path d="M161.757 50.2026V94.7939C161.757 97.287 163.939 99.2968 166.626 99.2968C169.313 99.2968 171.494 97.287 171.494 94.7939V50.2026C171.494 47.7172 173.68 45.2587 176.363 45.2587H259.138C261.821 45.2587 264.006 47.7172 264.006 50.2026V202.878C264.006 205.363 261.821 207.381 259.138 207.381H181.231C178.544 207.381 176.363 209.394 176.363 211.884C176.363 214.373 178.544 216.386 181.231 216.386H259.138C267.191 216.386 273.743 210.326 273.743 202.878V50.2026C273.743 42.7502 267.191 36.2491 259.138 36.2491H176.363C168.309 36.2491 161.757 42.7502 161.757 50.2026Z" fill="#003780"/>
<path d="M225.926 27.2434C228.613 27.2434 230.794 25.2298 230.794 22.7406C230.794 20.2514 228.613 18.2377 225.926 18.2377H206.448C203.761 18.2377 201.58 20.2514 201.58 22.7406C201.58 25.2298 203.761 27.2434 206.448 27.2434H225.926Z" fill="#003780"/>
<path d="M239.66 133.456C239.66 135.949 241.841 137.959 244.529 137.959C247.216 137.959 249.397 135.949 249.397 133.456V96.5545C249.397 94.0652 247.216 92.0516 244.529 92.0516C241.841 92.0516 239.66 94.0652 239.66 96.5545V133.456Z" fill="#003780"/>
<path d="M244.529 82.6048C247.216 82.6048 249.397 80.5911 249.397 78.1019V68.8737C249.397 66.3845 247.216 64.3709 244.529 64.3709C241.841 64.3709 239.66 66.3845 239.66 68.8737V78.1019C239.66 80.5911 241.841 82.6048 244.529 82.6048Z" fill="#003780"/>
<path d="M200.709 238.905C200.709 246.353 207.261 252.413 215.314 252.413C223.367 252.413 229.924 246.353 229.924 238.905C229.924 231.456 223.367 225.392 215.314 225.392C207.261 225.392 200.709 231.456 200.709 238.905ZM220.183 238.905C220.183 241.39 217.997 243.407 215.314 243.407C212.631 243.407 210.446 241.39 210.446 238.905C210.446 236.419 212.631 234.402 215.314 234.402C217.997 234.402 220.183 236.419 220.183 238.905Z" fill="#003780"/>
<mask id="mask1_1_3693" style="mask-type:luminance" maskUnits="userSpaceOnUse" x="142" y="0" width="152" height="271">
<path d="M142.13 0H293.594V271H142.13V0Z" fill="white"/>
</mask>
<g mask="url(#mask1_1_3693)">
<path d="M268.875 0.222397H166.626C153.203 0.222397 142.28 10.3251 142.28 22.7405V90.2911C142.28 92.7803 144.461 94.7939 147.148 94.7939C149.835 94.7939 152.017 92.7803 152.017 90.2911V22.7405C152.017 15.292 158.573 9.23195 166.626 9.23195H268.875C276.928 9.23195 283.48 15.292 283.48 22.7405V247.91C283.48 255.359 276.928 261.423 268.875 261.423H166.626C163.068 261.423 159.63 260.218 156.964 258.044C154.948 256.394 151.871 256.575 150.092 258.446C148.313 260.31 148.504 263.156 150.52 264.798C154.969 268.43 160.692 270.428 166.626 270.428H268.875C282.298 270.428 293.221 260.326 293.221 247.91V22.7405C293.221 10.3251 282.298 0.222397 268.875 0.222397Z" fill="#003780"/>
</g>
<mask id="mask2_1_3693" style="mask-type:luminance" maskUnits="userSpaceOnUse" x="0" y="89" width="11" height="12">
<path d="M0.594238 89.6698H10.4928V100.47H0.594238V89.6698Z" fill="white"/>
</mask>
<g mask="url(#mask2_1_3693)">
<path d="M5.76526 99.6919C8.37778 99.4119 10.5217 97.2678 10.3807 94.9205C10.2522 92.5732 7.93821 90.6516 5.23446 90.6248C2.52242 90.6018 0.436555 92.7381 0.577548 95.4C0.739275 98.0541 2.99102 99.9834 5.76526 99.6919Z" fill="#003780"/>
</g>
<path d="M1.48188 77.4269C1.03402 80.0619 2.9001 82.367 5.6702 82.5818C8.2993 82.7851 10.7916 81.0745 11.1938 78.754C11.5753 76.4297 9.72582 74.1246 7.08013 73.6029C4.42614 73.0813 1.9173 74.7919 1.48188 77.4269Z" fill="#003780"/>
<path d="M6.59481 59.0971C5.60371 61.6017 6.91412 64.2252 9.50175 64.9539C12.0935 65.6865 14.9134 64.4975 15.7842 62.2883C16.6053 60.0637 15.4027 57.4786 12.9851 56.4698C10.4638 55.4227 7.54029 56.5734 6.59481 59.0971Z" fill="#003780"/>
<path d="M15.7632 42.1672C14.2662 44.4417 14.9753 47.2838 17.3432 48.5035C19.7069 49.727 22.7009 49.0903 24.0155 47.0805C25.2429 45.0208 24.9029 42.4127 22.6636 40.89C20.5404 39.4402 17.1773 39.8391 15.7632 42.1672Z" fill="#003780"/>
<path d="M28.54 27.3777C26.5993 29.3491 26.6822 32.2833 28.7225 33.9364C30.7544 35.5894 33.7982 35.5204 35.5026 33.7791C37.3521 32.172 37.4433 29.3913 35.6353 27.5081C33.8438 25.6402 30.63 25.5482 28.54 27.3777Z" fill="#003780"/>
<path d="M44.4474 15.457C41.9759 16.8225 41.5363 19.91 43.1204 21.8661C44.775 23.9258 47.6198 24.2556 49.8093 23.059C51.9823 21.8431 52.6582 19.0854 51.3229 16.903C49.9835 14.7245 46.9065 14.0763 44.4474 15.457Z" fill="#003780"/>
<path d="M59.0483 13.217C60.2219 15.5337 62.9298 16.3698 65.3557 15.6526C67.7401 14.8471 68.9925 12.2582 68.1589 9.86865C67.3254 7.48298 64.4558 6.29015 61.7521 7.20683C59.011 8.04296 57.9204 10.9963 59.0483 13.217Z" fill="#003780"/>
<path d="M77.4643 7.47923C78.0573 9.86873 80.562 11.4374 83.0833 11.1498C85.5963 10.7969 87.4085 8.48029 87.1389 5.98722C86.8694 3.49799 84.3398 1.7912 81.4909 2.19776C78.6337 2.53529 76.8464 4.98233 77.4643 7.47923Z" fill="#003780"/>
<path d="M96.7844 5.46563C96.83 7.90116 98.9158 10.0605 101.454 10.1756C103.992 10.2945 106.289 8.36142 106.588 5.87219C106.878 3.37912 104.788 1.24276 101.91 1.11235C99.0402 0.974276 96.7387 2.88818 96.7844 5.46563Z" fill="#003780"/>
<path d="M119.634 12.7415C122.105 13.2976 124.776 11.8862 125.614 9.56955C126.489 7.13018 124.942 4.60644 122.143 3.96591C119.352 3.30237 116.66 4.76369 116.138 7.22607C115.607 9.68462 117.175 12.1585 119.634 12.7415Z" fill="#003780"/>
<path d="M69.2456 54.2644C69.2456 56.7536 71.4268 58.7672 74.114 58.7672H83.8508V67.7729C83.8508 70.266 86.0321 72.2796 88.7234 72.2796C91.4105 72.2796 93.5918 70.266 93.5918 67.7729V58.7672H103.329C106.016 58.7672 108.197 56.7536 108.197 54.2644C108.197 51.7751 106.016 49.7615 103.329 49.7615H93.5918V40.7558C93.5918 38.2627 91.4105 36.2491 88.7234 36.2491C86.0321 36.2491 83.8508 38.2627 83.8508 40.7558V49.7615H74.114C71.4268 49.7615 69.2456 51.7751 69.2456 54.2644Z" fill="#003780"/>
<mask id="mask3_1_3693" style="mask-type:luminance" maskUnits="userSpaceOnUse" x="0" y="85" width="187" height="186">
<path d="M0.938477 85.7423H186.717V271H0.938477V85.7423Z" fill="white"/>
</mask>
<g mask="url(#mask3_1_3693)">
<path d="M92.0905 86.4443L4.43015 113.036C2.35673 113.665 0.988265 115.494 1.0795 117.512C1.15414 119.05 3.01193 155.64 14.8844 192.894C31.0571 243.615 58.2729 270.429 93.5916 270.429C129.313 270.429 156.657 243.615 172.66 192.879C184.412 155.621 186.033 119.023 186.095 117.485C186.178 115.475 184.81 113.657 182.745 113.036L95.1177 86.4443C94.139 86.149 93.0774 86.1413 92.0905 86.4443ZM93.5916 261.423C25.1271 261.423 12.7363 142.312 11.0402 120.507L93.6041 95.4615L176.16 120.511C174.609 142.251 162.931 261.423 93.5916 261.423Z" fill="#003780"/>
</g>
<path d="M92.0034 104.59L23.8208 126.571C21.7889 127.231 20.4619 129.045 20.5614 131.028C20.8143 136.11 27.5447 255.351 93.604 255.351C160.443 255.351 166.398 136.083 166.622 131.001C166.709 129.026 165.382 127.223 163.358 126.571L95.2089 104.59C94.1763 104.256 93.0401 104.256 92.0034 104.59ZM156.678 133.954C155.255 152.886 145.581 246.346 93.6082 246.346C42.295 246.346 32.0689 152.928 30.5263 133.943L93.6082 113.607L156.678 133.954Z" fill="#003780"/>
<path d="M55.7764 179.846C55.7764 198.996 72.6209 214.572 93.322 214.572C114.019 214.572 130.863 198.996 130.863 179.846C130.863 160.703 114.019 145.127 93.322 145.127C72.6209 145.127 55.7764 160.703 55.7764 179.846ZM121.131 179.846C121.131 194.029 108.657 205.567 93.3261 205.567C77.9993 205.567 65.5215 194.029 65.5215 179.846C65.5215 165.67 77.9952 154.133 93.3261 154.133C108.661 154.133 121.131 165.666 121.131 179.846Z" fill="#003780"/>
<path d="M86.5628 177.445C84.7963 175.581 81.7234 175.377 79.6956 177.019C77.6678 178.653 77.4605 181.499 79.2312 183.374L87.6949 192.33C88.6196 193.308 89.9549 193.868 91.3607 193.868C91.3649 193.868 91.3773 193.868 91.3815 193.868C92.7914 193.865 94.1308 193.293 95.0514 192.3L110.731 175.412C112.481 173.525 112.248 170.683 110.208 169.06C108.172 167.446 105.095 167.657 103.345 169.544L91.3275 182.485L86.5628 177.445Z" fill="#003780"/>
<path d="M98.46 130.821C98.46 131.12 98.4268 131.411 98.3646 131.703C98.3024 131.99 98.2111 132.274 98.0909 132.547C97.9665 132.819 97.8172 133.08 97.6389 133.325C97.4606 133.571 97.2615 133.797 97.0334 134.008C96.8054 134.215 96.5607 134.403 96.2953 134.568C96.0299 134.733 95.7479 134.871 95.4535 134.982C95.1591 135.097 94.8522 135.182 94.5412 135.239C94.226 135.297 93.9109 135.327 93.5915 135.327C93.2722 135.327 92.9529 135.297 92.6419 135.239C92.3268 135.182 92.024 135.097 91.7255 134.982C91.431 134.871 91.1532 134.733 90.8837 134.568C90.6183 134.403 90.3736 134.215 90.1497 134.008C89.9216 133.797 89.7184 133.571 89.5401 133.325C89.3659 133.08 89.2125 132.819 89.0922 132.547C88.9678 132.274 88.8766 131.99 88.8144 131.703C88.7522 131.411 88.7231 131.12 88.7231 130.821C88.7231 130.525 88.7522 130.234 88.8144 129.942C88.8766 129.655 88.9678 129.371 89.0922 129.099C89.2125 128.826 89.3659 128.565 89.5401 128.32C89.7184 128.074 89.9216 127.848 90.1497 127.637C90.3736 127.43 90.6183 127.242 90.8837 127.077C91.1532 126.912 91.431 126.774 91.7255 126.663C92.024 126.548 92.3268 126.464 92.6419 126.406C92.9529 126.348 93.2722 126.318 93.5915 126.318C93.9109 126.318 94.226 126.348 94.5412 126.406C94.8522 126.464 95.1591 126.548 95.4535 126.663C95.7479 126.774 96.0299 126.912 96.2953 127.077C96.5607 127.242 96.8054 127.43 97.0334 127.637C97.2615 127.848 97.4606 128.074 97.6389 128.32C97.8172 128.565 97.9665 128.826 98.0909 129.099C98.2111 129.371 98.3024 129.655 98.3646 129.942C98.4268 130.234 98.46 130.525 98.46 130.821Z" fill="#003780"/>
<path d="M98.46 229.899C98.46 230.194 98.4268 230.486 98.3646 230.777C98.3024 231.065 98.2111 231.349 98.0909 231.621C97.9665 231.893 97.8172 232.154 97.6389 232.4C97.4606 232.645 97.2615 232.871 97.0334 233.082C96.8054 233.289 96.5607 233.477 96.2953 233.642C96.0299 233.807 95.7479 233.945 95.4535 234.057C95.1591 234.172 94.8522 234.256 94.5412 234.313C94.226 234.371 93.9109 234.402 93.5915 234.402C93.2722 234.402 92.9529 234.371 92.6419 234.313C92.3268 234.256 92.024 234.172 91.7255 234.057C91.431 233.945 91.1532 233.807 90.8837 233.642C90.6183 233.477 90.3736 233.289 90.1497 233.082C89.9216 232.871 89.7184 232.645 89.5401 232.4C89.3659 232.154 89.2125 231.893 89.0922 231.621C88.9678 231.349 88.8766 231.065 88.8144 230.777C88.7522 230.486 88.7231 230.194 88.7231 229.899C88.7231 229.604 88.7522 229.308 88.8144 229.021C88.8766 228.729 88.9678 228.449 89.0922 228.173C89.2125 227.901 89.3659 227.64 89.5401 227.394C89.7184 227.149 89.9216 226.923 90.1497 226.712C90.3736 226.504 90.6183 226.317 90.8837 226.152C91.1532 225.99 91.431 225.849 91.7255 225.737C92.024 225.622 92.3268 225.538 92.6419 225.48C92.9529 225.423 93.2722 225.392 93.5915 225.392C93.9109 225.392 94.226 225.423 94.5412 225.48C94.8522 225.538 95.1591 225.622 95.4535 225.737C95.7479 225.849 96.0299 225.99 96.2953 226.152C96.5607 226.317 96.8054 226.504 97.0334 226.712C97.2615 226.923 97.4606 227.149 97.6389 227.394C97.8172 227.64 97.9665 227.901 98.0909 228.173C98.2111 228.449 98.3024 228.729 98.3646 229.021C98.4268 229.308 98.46 229.604 98.46 229.899Z" fill="#003780"/>
</g>
</svg>
