<svg width="40" height="40" viewBox="0 0 40 40" fill="none" xmlns="http://www.w3.org/2000/svg">
<path d="M33.124 17.5104L31.1568 9.29762C30.812 7.86482 29.36 6.96482 27.9192 7.31842C26.652 7.62802 26.036 8.50562 25.7864 9.12322C25.4912 9.85202 24.1736 13.1544 23.8656 13.8368C23.7576 14.0736 23.5296 14.1984 23.4832 14.2192C23.2216 14.3352 20.6032 15.44 20.6032 15.44V15.4448C20.3427 15.5649 20.1219 15.757 19.9669 15.9983C19.8118 16.2397 19.729 16.5203 19.728 16.8072C19.728 17.6416 20.4112 18.3184 21.2536 18.3184C21.4352 18.3184 21.608 18.2808 21.7704 18.2232V18.2288L25.2464 16.784C25.7232 16.5616 25.956 16.28 26.1928 15.8696C26.292 15.6968 26.5936 14.9736 26.8392 14.38L28.9368 23.152L28.9344 36.744C28.9304 38.0944 29.8632 39.1952 31.2264 39.2C32.5912 39.2048 33.5776 38.1144 33.5864 36.7616L33.6 20.7192C33.5984 19.9648 33.2984 18.172 33.124 17.5104Z" fill="#335F99"/>
<path d="M25.5192 6.91205C27.2224 6.91205 28.6032 5.54383 28.6032 3.85605C28.6032 2.16827 27.2224 0.800049 25.5192 0.800049C23.8159 0.800049 22.4352 2.16827 22.4352 3.85605C22.4352 5.54383 23.8159 6.91205 25.5192 6.91205Z" fill="#335F99"/>
<path d="M13.7048 29.6816V33.1056C14.1264 33.0365 14.5099 32.8202 14.7872 32.4952C15.064 32.1696 15.2024 31.7888 15.2024 31.3504C15.2024 30.9584 15.0864 30.62 14.8544 30.3352C14.6192 30.0536 14.236 29.836 13.7048 29.6816ZM11.5896 24.364C11.3816 24.644 11.2768 24.9544 11.2768 25.2936C11.2768 25.6056 11.372 25.892 11.56 26.1576C11.7504 26.4248 12.0376 26.6408 12.4192 26.804V23.7664C12.0862 23.8725 11.7957 24.0818 11.5896 24.364ZM19.7256 20.2968H19.7288L14.9488 10.7072L14.948 10.716C14.7694 10.3473 14.4904 10.0364 14.1429 9.81913C13.7955 9.60189 13.3938 9.48713 12.984 9.48804H8.57842C7.37602 9.48724 6.40002 10.4536 6.40002 11.6456V39.2H19.9728V21.3784C19.9716 21.004 19.8872 20.6346 19.7256 20.2968ZM16.404 33.712C15.756 34.4376 14.8568 34.8824 13.7072 35.0456V36.688H12.4216V35.0896C11.3992 34.9672 10.5712 34.5888 9.93122 33.9576C9.29442 33.3248 8.88722 32.4328 8.71042 31.28L11.0224 31.0328C11.1033 31.4731 11.2854 31.8886 11.5544 32.2464C11.8128 32.5856 12.1024 32.8312 12.4208 32.9832V29.3048C11.264 28.9768 10.4136 28.48 9.87522 27.8184C9.33362 27.1544 9.06322 26.3488 9.06322 25.4C9.06322 24.44 9.36802 23.6336 9.98162 22.98C10.5928 22.328 11.4056 21.9512 12.4216 21.8528V20.9832H13.7072V21.8528C14.6448 21.9632 15.3928 22.2808 15.948 22.804C16.5016 23.3264 16.856 24.0296 17.0104 24.9072L14.7696 25.1968C14.6328 24.5072 14.2792 24.0376 13.7072 23.792V27.224C15.124 27.6056 16.0896 28.0984 16.604 28.7032C17.1168 29.3096 17.3744 30.0864 17.3744 31.0344C17.3744 32.0936 17.0512 32.9856 16.404 33.712Z" fill="#335F99"/>
</svg>
