<svg width="131" height="130" viewBox="0 0 131 130" fill="none" xmlns="http://www.w3.org/2000/svg">
<path d="M54.48 97.6853C53.6127 95.8825 52.8798 94.1196 51.9536 92.4676C48.4916 86.3071 45.0767 80.116 41.4167 74.0758C39.3876 70.7292 36.774 67.7739 33.616 65.3866C31.0849 63.4682 28.3534 62.1979 24.8867 63.1571C25.0281 62.7659 25.0941 62.4784 25.2284 62.2309C26.8239 59.3133 28.6457 56.5678 31.2828 54.4632C34.8603 51.6092 38.6923 51.1827 42.8873 53.0798C47.2142 55.0359 50.4877 58.241 53.4878 61.7478C55.8964 64.5688 58.0905 67.576 60.4118 70.5407C60.459 70.5054 60.5839 70.4488 60.6569 70.3522C65.2384 64.3096 69.7326 58.1962 74.4131 52.2314C84.6176 39.2223 95.171 26.4937 106.936 14.8516C111.027 10.8051 115.502 7.12625 119.987 3.5087C121.722 2.11352 123.899 1.16612 126.006 0.37191C128.349 -0.511858 129.843 0.202227 131 2.27142C130.72 2.58722 130.427 2.93837 130.112 3.26595C117.642 16.1478 106.462 30.0736 96.3941 44.8997C87.0521 58.6534 78.5939 72.9398 70.8521 87.6505C70.1945 88.9019 69.3603 89.7738 68.0947 90.4267C63.5604 92.7787 59.0732 95.2273 54.48 97.6853Z" fill="#FFA530"/>
<mask id="mask0_1_1708" style="mask-type:luminance" maskUnits="userSpaceOnUse" x="0" y="0" width="130" height="130">
<path d="M0 0.00146484H129.714V129.715H0V0.00146484Z" fill="white"/>
</mask>
<g mask="url(#mask0_1_1708)">
<path d="M121.184 33.9742L111.135 44.0232C114.034 50.4311 115.646 57.5484 115.646 65.038C115.646 93.2549 92.7765 116.124 64.5596 116.124C36.345 116.124 13.4754 93.2549 13.4754 65.038C13.4754 36.8211 36.345 13.9515 64.5596 13.9515C71.6156 13.9515 78.3275 15.382 84.4384 17.9674L94.5605 7.84526C85.6003 3.13184 75.391 0.46875 64.5572 0.46875C28.8954 0.46875 -0.0144043 29.3786 -0.0144043 65.0404C-0.0144043 100.705 28.8954 129.614 64.5572 129.614C100.221 129.614 129.131 100.705 129.131 65.0404C129.134 53.7776 126.254 43.1889 121.184 33.9742Z" fill="#FFA530"/>
</g>
</svg>
