<svg width="60" height="60" viewBox="0 0 60 60" fill="none" xmlns="http://www.w3.org/2000/svg">
<rect width="60" height="60" rx="30" fill="white"/>
<g clip-path="url(#clip0_1_3318)">
<path d="M21.3218 29.0283C20.9516 28.9778 20.5838 28.8894 20.2129 28.8686C19.4868 28.8277 18.7867 28.9555 18.1758 29.3724C17.2023 30.0368 16.8009 30.9918 16.8478 32.1445C16.8693 32.693 17.0841 33.159 17.6073 33.3998C18.1365 33.642 18.6589 33.5625 19.1152 33.2088C19.3352 33.0386 19.5084 32.8104 19.7276 32.5815C19.7128 32.8104 19.7046 33.0282 19.6845 33.2444C19.6711 33.3797 19.7172 33.4317 19.8562 33.4265C20.126 33.4176 20.398 33.4176 20.6678 33.4265C20.8142 33.4317 20.8476 33.3782 20.8573 33.2355C20.887 32.7703 20.9093 32.3021 20.9851 31.8428C21.127 30.9807 21.3024 30.1223 21.4667 29.2617C21.4912 29.1324 21.4711 29.0499 21.3218 29.0283ZM19.4571 31.9899C19.3791 32.1111 19.2758 32.2226 19.165 32.3155C18.9829 32.4723 18.7682 32.5392 18.5318 32.4448C18.297 32.3504 18.2123 32.1371 18.1981 31.9119C18.1498 31.1851 18.4018 30.5719 18.9599 30.1022C19.2564 29.8525 19.6095 29.7715 20.0316 29.889C19.8815 30.6121 19.8711 31.3553 19.4571 31.9899Z" fill="#335F99"/>
<path d="M34.5958 24.4498C33.9961 23.4198 32.6204 23.6836 32.6204 23.6836C32.5112 23.7081 32.3997 23.7349 32.289 23.7557C31.6201 23.8805 30.9899 24.1102 30.3864 24.4164C29.0747 25.0808 27.9004 25.9392 26.8451 26.9544C26.1435 27.6292 25.462 28.3278 24.8051 29.0479C23.6516 30.3136 22.6639 31.7033 21.8747 33.2276C21.4681 34.0117 21.1055 34.8188 20.9383 35.6965C20.907 35.8577 20.9591 36.0435 21.0111 36.207C21.0334 36.271 21.1523 36.3208 21.2355 36.3468C21.2578 36.3527 21.3255 36.2457 21.3552 36.1825C21.5477 35.7649 21.6993 35.3234 21.9349 34.9332C22.4053 34.1506 22.8973 33.3785 23.4242 32.6338C24.2692 31.4365 25.2376 30.3396 26.2736 29.3021C27.2524 28.3211 28.2542 27.3653 29.4894 26.7039C30.0564 26.3999 30.6316 26.1049 31.2269 25.8611C32.2503 25.439 33.3168 25.1529 34.416 24.9894C34.5319 24.973 34.6902 24.8801 34.7281 24.7835C34.7601 24.7003 34.5958 24.4498 34.5958 24.4498Z" fill="#335F99"/>
<path d="M17.0098 28.6069C16.9258 28.0191 16.4316 27.5204 15.7197 27.345C14.9044 27.1436 14.0869 27.2268 13.2701 27.3502C13.1623 27.3666 13.1319 27.4386 13.1126 27.5427C12.8004 29.1933 12.4823 30.8424 12.168 32.4923C12.1107 32.7903 12.0595 33.0913 12 33.4198C12.4177 33.4198 12.8086 33.4228 13.1988 33.4131C13.23 33.4116 13.2761 33.3292 13.285 33.2779C13.4113 32.6417 13.5362 32.0026 13.6521 31.3649C13.6744 31.2415 13.7138 31.2066 13.8446 31.2192C14.399 31.269 14.9445 31.2311 15.4796 31.0528C16.4978 30.7176 17.18 29.7797 17.0098 28.6069ZM15.6334 29.4943C15.432 29.9246 15.0656 30.129 14.6145 30.1773C14.3819 30.2026 14.1441 30.1825 13.8773 30.1825C13.9984 29.5389 14.1047 28.9681 14.2169 28.3988C14.2258 28.3565 14.2786 28.2978 14.3173 28.2918C14.6346 28.2495 14.9534 28.2257 15.2626 28.3364C15.6981 28.4895 15.8631 29.0068 15.6334 29.4943Z" fill="#335F99"/>
<path d="M23.4592 27.31C23.3403 26.2993 22.9048 25.438 22.2121 24.7037C22.1319 24.6175 22.0152 24.5543 21.9037 24.5134C21.7885 24.4718 21.7127 24.5372 21.7239 24.6688C21.7335 24.784 21.7439 24.9006 21.764 25.0151C21.9045 25.8096 22.0405 26.6055 22.1913 27.3992C22.3095 28.0191 22.4388 28.6374 22.5793 29.2527C22.6253 29.4519 22.7056 29.6481 22.8007 29.8302C22.8728 29.9692 22.9769 29.958 23.0735 29.8309C23.1144 29.7782 23.159 29.7239 23.1805 29.663C23.3886 29.093 23.4964 28.5044 23.509 27.8964C23.4926 27.701 23.4822 27.5048 23.4592 27.31Z" fill="#335F99"/>
<path d="M46.3078 29.8576C46.3338 29.5678 46.3554 29.2772 46.3799 28.9673C46.0217 28.9673 45.688 28.9628 45.3595 28.9732C45.3208 28.9747 45.2554 29.0557 45.2525 29.1025C45.1596 30.2537 44.9255 31.3826 44.6995 32.513C44.6423 32.8058 44.591 33.0994 44.5338 33.4219C44.9626 33.4219 45.3647 33.4249 45.7682 33.416C45.7987 33.4152 45.8433 33.3305 45.8537 33.2807C45.9801 32.6639 46.0774 32.0381 46.2268 31.4257C46.4416 30.5458 46.8043 30.2411 47.6634 30.1281C47.7013 30.1229 47.7578 30.0828 47.7652 30.0516C47.8462 29.6696 47.919 29.2876 48 28.8744C47.1714 28.7882 46.7091 29.2653 46.3078 29.8576Z" fill="#335F99"/>
<path d="M43.6918 31.3882C44.2358 31.1341 44.4989 30.7008 44.464 30.1271C44.4275 29.5392 44.1184 29.1215 43.538 28.961C42.5896 28.6994 41.7595 28.9528 41.0921 29.6626C40.4693 30.3233 40.2404 31.1318 40.3489 32.0244C40.4329 32.7238 40.8015 33.2328 41.5024 33.4246C42.282 33.6371 43.0467 33.5331 43.7862 33.2291C43.8367 33.2091 43.8947 33.1228 43.8932 33.0708C43.8791 32.8062 43.8471 32.5394 43.8181 32.2578C43.7275 32.2927 43.6584 32.3187 43.59 32.3418C43.1805 32.4919 42.7598 32.5565 42.3243 32.5045C41.8584 32.448 41.5507 32.1195 41.5938 31.6907C41.7231 31.6907 41.845 31.6937 41.9669 31.6907C42.5577 31.6773 43.1456 31.6424 43.6918 31.3882ZM42.9323 29.8246C43.0995 29.8707 43.2243 29.9584 43.2489 30.1397C43.2749 30.3344 43.1953 30.489 43.0222 30.5626C42.8624 30.6339 42.6885 30.6859 42.5138 30.709C42.2552 30.7439 41.9929 30.7469 41.7157 30.7647C41.7736 30.1546 42.4135 29.6826 42.9323 29.8246Z" fill="#335F99"/>
<path d="M35.4535 29.7963C35.4 29.3133 35.0744 28.9662 34.6025 28.8859C34.031 28.7923 33.536 28.9588 33.1057 29.3341C32.9883 29.4359 32.8776 29.5459 32.7498 29.6655C32.7676 29.4314 32.7862 29.2055 32.804 28.9707C32.422 28.9707 32.0668 28.9707 31.6974 28.9707C31.4239 30.4518 31.1549 31.9204 30.8792 33.4194C31.305 33.4194 31.6892 33.4246 32.0757 33.4127C32.1188 33.4112 32.1857 33.3228 32.1961 33.2663C32.2919 32.7869 32.3789 32.3031 32.4629 31.823C32.5417 31.3793 32.6197 30.9386 32.8479 30.5425C33.0017 30.272 33.189 30.0297 33.5041 29.9294C33.8274 29.8261 34.0711 29.9821 34.109 30.3158C34.1209 30.4124 34.1276 30.5135 34.112 30.6094C34.0221 31.172 33.9247 31.7338 33.8259 32.2942C33.7612 32.6606 33.6899 33.0262 33.6215 33.3882C33.6564 33.4045 33.6735 33.4179 33.6899 33.4179C34.0645 33.4209 34.4398 33.4283 34.8143 33.4179C34.8574 33.4164 34.9221 33.3309 34.9347 33.2767C35.0626 32.6457 35.1815 32.0155 35.3011 31.3823C35.4022 30.8598 35.5129 30.3366 35.4535 29.7963Z" fill="#335F99"/>
<path d="M38.0881 31.6727C38.537 31.6466 38.9777 31.5701 39.3857 31.368C39.9067 31.1056 40.1519 30.6768 40.1133 30.1135C40.0717 29.5419 39.7625 29.1295 39.2096 28.9652C38.3824 28.7185 37.6192 28.8917 36.9689 29.4453C36.1796 30.1172 35.8831 31.0068 35.9946 32.0205C36.0741 32.7369 36.4665 33.2504 37.1822 33.4348C37.9499 33.6332 38.705 33.5291 39.4333 33.2311C39.4823 33.2118 39.5418 33.1256 39.541 33.0743C39.5262 32.8083 39.495 32.5422 39.4697 32.2784C39.4377 32.2784 39.4244 32.2754 39.4147 32.2791C39.3679 32.2947 39.3218 32.3133 39.275 32.3296C38.8573 32.4902 38.4233 32.5615 37.9759 32.5058C37.5129 32.4493 37.2067 32.1282 37.2372 31.6756C37.5248 31.6756 37.8079 31.6898 38.0881 31.6727ZM38.5675 29.8221C38.7444 29.8652 38.8692 29.9596 38.8982 30.1462C38.9272 30.3282 38.8358 30.4843 38.6544 30.5787C38.3913 30.7177 37.7046 30.8002 37.3665 30.7296C37.4363 30.1521 38.0472 29.6958 38.5675 29.8221Z" fill="#335F99"/>
<path d="M30.6592 30.5425C30.6243 30.0081 30.4125 29.557 29.9763 29.233C29.5177 28.8926 28.996 28.8227 28.4371 28.8844C26.5702 29.0918 25.8077 31.0657 26.2046 32.3298C26.4469 33.0998 27.1046 33.5264 28.2595 33.5249C29.0547 33.5019 29.841 33.0515 30.3345 32.1277C30.5976 31.635 30.6919 31.0991 30.6592 30.5425ZM28.8147 32.2087C28.6705 32.3923 28.481 32.5179 28.2417 32.5394C27.8128 32.5796 27.4858 32.2815 27.4509 31.8267C27.4457 31.7598 27.4502 31.6907 27.4502 31.6253C27.4643 31.1244 27.5862 30.6554 27.8886 30.2474C28.0239 30.0654 28.1926 29.9234 28.4178 29.8729C28.8808 29.7658 29.2598 30.0356 29.3014 30.5365C29.3535 31.1474 29.2026 31.7175 28.8147 32.2087Z" fill="#335F99"/>
</g>
<defs>
<clipPath id="clip0_1_3318">
<rect width="36" height="36" fill="white" transform="translate(12 12)"/>
</clipPath>
</defs>
</svg>
