<svg width="53" height="60" viewBox="0 0 53 60" fill="none" xmlns="http://www.w3.org/2000/svg">
<rect width="52.0421" height="60" rx="26.0211" fill="white"/>
<g clip-path="url(#clip0_1_3349)">
<path d="M19.9833 45.3961L20.5559 41.7596L19.2805 41.73H13.1908L17.4229 14.8959C17.4355 14.8139 17.4771 14.7392 17.5402 14.6853C17.6033 14.6315 17.6836 14.6021 17.7666 14.6025H28.0348C31.4436 14.6025 33.7961 15.3119 35.0244 16.712C35.6002 17.3688 35.9669 18.0552 36.1442 18.8105C36.3303 19.6031 36.3336 20.55 36.1519 21.7049L36.1387 21.7892V22.5292L36.7146 22.8554C37.1541 23.0781 37.5493 23.3794 37.8804 23.7443C38.373 24.3059 38.6916 25.0196 38.8262 25.8658C38.9652 26.7361 38.9193 27.7716 38.6916 28.9441C38.4288 30.2927 38.0041 31.4673 37.4305 32.4285C36.9244 33.2895 36.2439 34.0352 35.4327 34.6178C34.6708 35.1586 33.7655 35.5691 32.7419 35.8318C31.7501 36.0902 30.6193 36.2205 29.379 36.2205H28.5799C28.0085 36.2205 27.4535 36.4263 27.0178 36.7952C26.5827 37.168 26.2941 37.6832 26.2034 38.2489L26.1431 38.5762L25.1317 44.9856L25.0857 45.221C25.0736 45.2954 25.0528 45.3326 25.0222 45.3578C24.9925 45.3821 24.9555 45.3956 24.9171 45.3961H19.9833Z" fill="#253B80"/>
<path d="M37.2598 21.875C37.2291 22.0709 37.1941 22.2713 37.1547 22.4771C35.8006 29.4294 31.1678 31.8312 25.251 31.8312H22.2385C21.5149 31.8312 20.9051 32.3566 20.7924 33.0704L19.25 42.8525L18.8132 45.6254C18.7958 45.7354 18.8024 45.8478 18.8326 45.955C18.8629 46.0622 18.916 46.1615 18.9883 46.2462C19.0606 46.3309 19.1504 46.3989 19.2515 46.4455C19.3526 46.4922 19.4626 46.5164 19.574 46.5164H24.9172C25.5499 46.5164 26.0874 46.0567 26.187 45.4327L26.2395 45.1612L27.2456 38.777L27.3101 38.4267C27.4087 37.8005 27.9473 37.3408 28.58 37.3408H29.3791C34.5559 37.3408 38.6084 35.239 39.7929 29.1569C40.2877 26.6161 40.0315 24.4946 38.7223 23.0025C38.3073 22.541 37.8117 22.1589 37.2598 21.875Z" fill="#179BD7"/>
<path d="M35.8432 21.3097C35.4109 21.1846 34.971 21.087 34.5263 21.0174C33.6476 20.8824 32.7596 20.8176 31.8706 20.8236H23.8225C23.5162 20.8234 23.2199 20.9327 22.9872 21.1319C22.7545 21.3311 22.6008 21.6069 22.5537 21.9096L20.8416 32.7535L20.7924 33.0699C20.8457 32.7247 21.0208 32.41 21.2861 32.1827C21.5513 31.9554 21.8891 31.8306 22.2384 31.8307H25.251C31.1678 31.8307 35.8005 29.4279 37.1547 22.4766C37.1952 22.2708 37.2291 22.0705 37.2598 21.8745C36.9024 21.6872 36.53 21.5301 36.1465 21.4049C36.0459 21.3715 35.9448 21.3398 35.8432 21.3097Z" fill="#222D65"/>
<path d="M22.5537 21.9104C22.6003 21.6077 22.754 21.3317 22.9868 21.1327C23.2196 20.9336 23.5161 20.8246 23.8224 20.8256H31.8706C32.824 20.8256 33.714 20.888 34.5263 21.0194C35.0759 21.1057 35.618 21.2349 36.1475 21.4058C36.5471 21.5382 36.9182 21.6948 37.2608 21.8754C37.6636 19.3062 37.2575 17.5569 35.8684 15.9728C34.3369 14.229 31.5728 13.4824 28.0359 13.4824H17.7677C17.0452 13.4824 16.4289 14.0079 16.3172 14.7227L12.0403 41.8327C12.0203 41.9585 12.0279 42.0872 12.0625 42.2099C12.097 42.3325 12.1578 42.4462 12.2405 42.5432C12.3232 42.6402 12.4259 42.718 12.5416 42.7715C12.6572 42.825 12.7831 42.8527 12.9105 42.8529H19.2499L20.8416 32.7544L22.5537 21.9104Z" fill="#253B80"/>
</g>
<defs>
<clipPath id="clip0_1_3349">
<rect width="28.0421" height="36" fill="white" transform="translate(12 12)"/>
</clipPath>
</defs>
</svg>
