<svg width="60" height="33" viewBox="0 0 60 33" fill="none" xmlns="http://www.w3.org/2000/svg">
<rect width="60" height="32.0784" rx="16.0392" fill="white"/>
<g clip-path="url(#clip0_1_3361)">
<path d="M47.4694 15.5247C47.4694 13.495 46.0553 12.0674 44.0729 12.0674C41.5493 12.0674 39.8578 13.9009 39.8578 16.5193C39.8578 18.5626 41.2854 19.9766 43.3016 19.9766C45.1352 19.9766 46.5019 19.0903 47.0634 17.6763H45.0269C44.7563 18.116 44.1812 18.3934 43.4775 18.3934C42.395 18.3934 41.7184 17.6763 41.6575 16.6614H47.3544C47.4288 16.2757 47.4694 15.9442 47.4694 15.5247ZM41.8131 15.2879C41.9958 14.3542 42.9024 13.61 43.9985 13.61C44.9457 13.61 45.6629 14.3001 45.6629 15.2879H41.8131ZM34.3843 19.794L34.7496 17.8454C35.866 18.0687 36.0351 17.4395 36.3261 15.9239L36.4681 15.1729C36.8741 13.0552 37.6928 11.9997 40.0337 12.2839L39.6684 14.2324C38.552 14.0092 38.3558 14.8549 38.1055 16.1675L37.9634 16.9185C37.5574 19.0633 36.7117 20.0781 34.3843 19.794ZM31.6509 19.8007L33.0311 12.2501H34.8511L33.4776 19.8007H31.6509ZM21.2247 12.2501H22.9906L23.5657 17.7101L25.8796 12.2501H27.632L28.2477 17.7642L30.4804 12.2501H32.2395L29.0393 19.8007H27.0366L26.3871 14.6046L24.1746 19.8007H22.2396L21.2247 12.2501Z" fill="#2E4369"/>
<path d="M14.628 14.2527L12.5306 16.2554H16.0962L16.4684 15.3826H14.6619L15.7918 14.2527L15.1355 13.1228H18.2004L15.3723 19.8007H16.4345L19.6348 12.25H13.4508L14.628 14.2527Z" fill="#00B9FF"/>
</g>
<defs>
<clipPath id="clip0_1_3361">
<rect width="36" height="8.0784" fill="white" transform="translate(12 12)"/>
</clipPath>
</defs>
</svg>
