<svg width="228" height="157" viewBox="0 0 228 157" fill="none" xmlns="http://www.w3.org/2000/svg">
<path d="M53.3677 74.1949C53.1896 74.1949 53.0464 74.0482 53.0464 73.8701C53.0464 73.224 53.0569 72.5673 53.0813 71.9247C53.0848 71.7431 53.2385 71.6104 53.4131 71.6104C53.5912 71.6173 53.7309 71.7675 53.724 71.9456C53.703 72.5813 53.6925 73.2309 53.6925 73.8701C53.6925 74.0482 53.5458 74.1949 53.3677 74.1949Z" fill="#1D1D1B"/>
<path d="M111.793 17.1099C111.618 17.1099 111.478 16.9702 111.471 16.7955C111.468 16.6174 111.604 16.4672 111.782 16.4637C113.064 16.4253 114.37 16.4218 115.645 16.4602C115.823 16.4672 115.963 16.6139 115.959 16.792C115.953 16.9702 115.802 17.1134 115.628 17.1064C114.363 17.068 113.071 17.0714 111.803 17.1064C111.8 17.1099 111.796 17.1099 111.793 17.1099ZM123.287 17.7874C123.27 17.7874 123.256 17.7839 123.238 17.7805C121.984 17.5953 120.709 17.4417 119.442 17.3299C119.264 17.3159 119.134 17.1588 119.148 16.9806C119.166 16.8025 119.326 16.6698 119.501 16.6873C120.779 16.799 122.068 16.9527 123.332 17.1448C123.511 17.1692 123.629 17.3334 123.605 17.5115C123.58 17.6722 123.444 17.7874 123.287 17.7874ZM104.144 17.7979C103.987 17.7979 103.85 17.6862 103.826 17.5255C103.798 17.3474 103.92 17.1832 104.095 17.1553C105.363 16.9667 106.652 16.8095 107.93 16.6942C108.112 16.6768 108.262 16.8095 108.279 16.9876C108.297 17.1657 108.164 17.3229 107.986 17.3369C106.721 17.4521 105.447 17.6058 104.193 17.7944C104.175 17.7979 104.158 17.7979 104.144 17.7979ZM130.8 19.3836C130.772 19.3836 130.744 19.3801 130.712 19.3731C129.493 19.0343 128.243 18.727 127 18.465C126.825 18.4266 126.713 18.2555 126.752 18.0808C126.79 17.9062 126.958 17.7944 127.132 17.8328C128.39 18.0983 129.654 18.4056 130.884 18.7514C131.058 18.7968 131.156 18.9749 131.111 19.1496C131.069 19.2928 130.939 19.3836 130.8 19.3836ZM96.6347 19.408C96.4915 19.408 96.3622 19.3137 96.3238 19.1705C96.2749 18.9994 96.3762 18.8213 96.5474 18.7759C97.7803 18.4301 99.0446 18.1192 100.298 17.8503C100.473 17.8119 100.641 17.9237 100.679 18.0983C100.718 18.2729 100.606 18.4441 100.431 18.4825C99.1913 18.7479 97.9409 19.0553 96.7185 19.3975C96.6906 19.4045 96.6626 19.408 96.6347 19.408ZM138.061 21.8913C138.019 21.8913 137.977 21.8843 137.935 21.8669C136.765 21.3779 135.564 20.9238 134.362 20.5082C134.195 20.4488 134.107 20.2672 134.163 20.0961C134.223 19.9284 134.404 19.8411 134.575 19.897C135.784 20.3161 137.003 20.7771 138.183 21.2696C138.347 21.3395 138.428 21.5281 138.358 21.6922C138.305 21.818 138.187 21.8913 138.061 21.8913ZM89.377 21.9262C89.2512 21.9262 89.1325 21.8494 89.0766 21.7271C89.0102 21.563 89.0871 21.3744 89.2512 21.3045C90.4352 20.8086 91.6507 20.3475 92.8591 19.9284C93.0303 19.8691 93.2119 19.9564 93.2713 20.124C93.3306 20.2952 93.2398 20.4768 93.0722 20.5362C91.8742 20.9518 90.6727 21.4093 89.4992 21.9018C89.4608 21.9157 89.4189 21.9262 89.377 21.9262ZM144.959 25.2827C144.907 25.2827 144.851 25.2687 144.798 25.2407C143.698 24.6086 142.559 24.0044 141.417 23.4455C141.257 23.3652 141.194 23.1731 141.271 23.0124C141.348 22.8518 141.543 22.7854 141.704 22.8657C142.856 23.4316 144.005 24.0428 145.12 24.6784C145.277 24.7657 145.329 24.9648 145.238 25.1185C145.182 25.2233 145.071 25.2827 144.959 25.2827ZM82.4929 25.3211C82.3812 25.3211 82.2694 25.2617 82.21 25.1604C82.1227 25.0032 82.1751 24.8077 82.3288 24.7203C83.4395 24.0812 84.585 23.47 85.7341 22.9042C85.8948 22.8273 86.0904 22.8902 86.1672 23.0509C86.2475 23.2115 86.1812 23.4036 86.0205 23.4839C84.8819 24.0463 83.7503 24.6505 82.6536 25.2792C82.6012 25.3071 82.5453 25.3211 82.4929 25.3211ZM151.382 29.5157C151.316 29.5157 151.246 29.4948 151.19 29.4494C150.177 28.6845 149.122 27.9441 148.06 27.242C147.914 27.1442 147.872 26.9452 147.97 26.795C148.067 26.6483 148.266 26.6064 148.417 26.7042C149.489 27.4097 150.554 28.1606 151.578 28.936C151.721 29.0407 151.749 29.2433 151.64 29.3865C151.578 29.4703 151.48 29.5157 151.382 29.5157ZM76.0874 29.5507C75.9896 29.5507 75.8918 29.5088 75.829 29.4214C75.7207 29.2817 75.7521 29.0792 75.8918 28.9709C76.9117 28.199 77.9735 27.4481 79.0457 26.7426C79.1924 26.6448 79.395 26.6867 79.4928 26.8334C79.5906 26.9836 79.5486 27.1827 79.402 27.2805C78.3402 27.9825 77.2924 28.7229 76.2795 29.4878C76.2236 29.5297 76.1538 29.5507 76.0874 29.5507ZM157.215 34.5312C157.131 34.5312 157.05 34.4998 156.988 34.4404C156.08 33.5498 155.133 32.6801 154.169 31.8523C154.033 31.7336 154.019 31.531 154.134 31.3948C154.249 31.2621 154.455 31.2446 154.588 31.3599C155.563 32.1981 156.52 33.0782 157.438 33.9759C157.567 34.1016 157.567 34.3042 157.445 34.4334C157.382 34.4963 157.298 34.5312 157.215 34.5312ZM70.2687 34.5661C70.1849 34.5661 70.101 34.5312 70.0417 34.4683C69.9159 34.3426 69.9159 34.1365 70.0452 34.0108C70.9567 33.1132 71.9137 32.2365 72.8882 31.3948C73.0244 31.2795 73.227 31.297 73.3422 31.4297C73.4575 31.5659 73.4435 31.772 73.3108 31.8873C72.3468 32.715 71.4003 33.5847 70.4957 34.4718C70.4328 34.5347 70.3525 34.5661 70.2687 34.5661ZM162.342 40.2591C162.244 40.2591 162.15 40.2172 162.087 40.1369C161.308 39.138 160.48 38.1531 159.632 37.2031C159.513 37.0703 159.523 36.8678 159.656 36.749C159.789 36.6268 159.995 36.6407 160.114 36.7735C160.969 37.7305 161.804 38.7293 162.593 39.7387C162.705 39.8784 162.681 40.081 162.541 40.1928C162.482 40.2382 162.412 40.2591 162.342 40.2591ZM65.152 40.2941C65.0821 40.2941 65.0122 40.2696 64.9529 40.2242C64.8132 40.1159 64.7887 39.9099 64.897 39.7702C65.6863 38.7608 66.5211 37.7619 67.3768 36.8049C67.4955 36.6722 67.7016 36.6617 67.8308 36.7805C67.967 36.8992 67.9775 37.1053 67.8588 37.2345C67.01 38.1845 66.1858 39.1729 65.4069 40.1683C65.344 40.2487 65.2497 40.2941 65.152 40.2941ZM166.659 46.6192C166.55 46.6192 166.439 46.5634 166.379 46.4586C165.744 45.3689 165.056 44.2792 164.34 43.2279C164.242 43.0777 164.28 42.8786 164.427 42.7773C164.574 42.676 164.773 42.7145 164.874 42.8646C165.597 43.9264 166.292 45.0301 166.938 46.1338C167.025 46.2874 166.973 46.4865 166.823 46.5738C166.771 46.6053 166.715 46.6192 166.659 46.6192ZM60.842 46.6542C60.7861 46.6542 60.7268 46.6402 60.6779 46.6088C60.5242 46.518 60.4718 46.3224 60.5626 46.1687C61.2088 45.0615 61.9003 43.9578 62.6233 42.8961C62.7211 42.7459 62.9236 42.7075 63.0703 42.8088C63.217 42.91 63.2554 43.1126 63.1577 43.2558C62.4417 44.3106 61.7571 45.3968 61.1214 46.4935C61.0586 46.5948 60.9503 46.6542 60.842 46.6542ZM170.068 53.5032C169.942 53.5032 169.82 53.4299 169.767 53.3042C169.289 52.1341 168.758 50.9641 168.196 49.8255C168.115 49.6648 168.182 49.4692 168.339 49.3924C168.499 49.3121 168.691 49.3749 168.772 49.5356C169.341 50.6882 169.879 51.8722 170.364 53.0597C170.431 53.2238 170.354 53.4124 170.19 53.4788C170.148 53.4963 170.109 53.5032 170.068 53.5032ZM57.4367 53.5452C57.3948 53.5452 57.3529 53.5382 57.3145 53.5242C57.1468 53.4543 57.07 53.2657 57.1363 53.1016C57.6218 51.9141 58.1597 50.7266 58.729 49.574C58.8093 49.4134 59.0014 49.347 59.1621 49.4273C59.3227 49.5077 59.3891 49.6998 59.3088 49.8604C58.7429 50.999 58.2156 52.1725 57.7336 53.3461C57.6812 53.4718 57.5624 53.5452 57.4367 53.5452ZM172.478 60.7924C172.334 60.7924 172.205 60.6946 172.167 60.5479C171.852 59.322 171.493 58.0891 171.094 56.8841C171.039 56.7165 171.129 56.5349 171.3 56.4755C171.468 56.4196 171.653 56.5104 171.706 56.6816C172.111 57.897 172.474 59.1474 172.792 60.3907C172.834 60.5619 172.732 60.7365 172.558 60.7819C172.533 60.7889 172.505 60.7924 172.478 60.7924ZM55.0268 60.8518C54.9988 60.8518 54.9709 60.8483 54.9464 60.8413C54.7753 60.7994 54.6705 60.6213 54.7124 60.4501C55.0268 59.2067 55.3935 57.9529 55.7952 56.7304C55.851 56.5628 56.0327 56.472 56.2003 56.5279C56.3714 56.5803 56.4622 56.7654 56.4064 56.933C56.0082 58.1415 55.6485 59.3779 55.3376 60.6073C55.3027 60.754 55.17 60.8518 55.0268 60.8518ZM173.84 68.3575C173.675 68.3575 173.536 68.2352 173.518 68.0676C173.382 66.8067 173.2 65.5319 172.973 64.285C172.946 64.1104 173.061 63.9428 173.235 63.9078C173.41 63.8764 173.578 63.9952 173.609 64.1698C173.84 65.4341 174.021 66.7229 174.157 67.9977C174.178 68.1759 174.049 68.3365 173.875 68.354C173.861 68.354 173.85 68.3575 173.84 68.3575ZM53.6751 68.4168C53.6646 68.4168 53.6507 68.4168 53.6402 68.4168C53.4621 68.3994 53.3328 68.2387 53.3538 68.0606C53.49 66.7858 53.6716 65.497 53.8986 64.2327C53.9266 64.0545 54.0942 63.9393 54.2724 63.9707C54.447 64.0021 54.5622 64.1698 54.5308 64.3444C54.3108 65.5948 54.1292 66.8661 53.9929 68.127C53.9755 68.2946 53.8358 68.4168 53.6751 68.4168Z" fill="#1D1D1B"/>
<path d="M174.15 74.1937C173.972 74.1937 173.829 74.047 173.829 73.8689C173.829 73.2332 173.819 72.5871 173.794 71.9444C173.787 71.7663 173.927 71.6161 174.105 71.6091C174.266 71.6022 174.433 71.7419 174.437 71.9235C174.461 72.5696 174.472 73.2262 174.472 73.8689C174.472 74.047 174.329 74.1937 174.15 74.1937Z" fill="#1D1D1B"/>
<path d="M147.9 93.4847C149.775 95.1472 153.439 95.6536 153.439 95.6536L153.809 87.4424C153.809 87.4424 149.098 87.4389 147.257 89.3529C146.146 90.5089 146.359 92.1155 147.9 93.4847Z" fill="#FFDDC0"/>
<path d="M153.607 95.9746C153.45 95.9537 149.719 95.3948 148.067 94.0607C146.918 93.1281 146.272 92.0524 146.248 91.0325C146.227 90.2292 146.583 89.4993 147.299 88.8601C149.332 87.0474 153.635 87.1138 153.816 87.1173L153.802 87.7634C153.757 87.7634 149.569 87.7005 147.729 89.3421C147.159 89.8485 146.876 90.4108 146.89 91.0186C146.911 91.8463 147.474 92.7474 148.476 93.5577C149.988 94.7836 153.663 95.332 153.698 95.3355L153.607 95.9746Z" fill="#1D1D1B"/>
<path d="M153.809 86.3283V78.0542C153.809 78.0542 148.881 77.436 147.833 78.8575C146.785 80.2755 146.74 82.1161 147.589 82.9928C149.373 84.8474 153.809 86.3283 153.809 86.3283Z" fill="#FFDDC0"/>
<path d="M153.704 86.6356C153.523 86.5727 149.174 85.1058 147.355 83.2198C146.359 82.186 146.454 80.1847 147.575 78.6654C148.699 77.1356 153.327 77.6665 153.848 77.7328L153.767 78.3755C152.451 78.2078 148.86 78.0088 148.095 79.0461C147.17 80.2999 147.047 81.9694 147.819 82.7692C149.531 84.5435 153.869 86.0069 153.911 86.0209L153.704 86.6356Z" fill="#1D1D1B"/>
<mask id="mask0_1_4655" style="mask-type:luminance" maskUnits="userSpaceOnUse" x="148" y="66" width="80" height="91">
<path d="M148.644 66.2402H227.909V156.909H148.644V66.2402Z" fill="white"/>
</mask>
<g mask="url(#mask0_1_4655)">
<path d="M192.092 92.4779C192.057 92.5093 191.879 92.436 191.666 92.3172C191.847 92.401 192.036 92.4534 192.228 92.4674C192.172 92.4709 192.12 92.4744 192.092 92.4779ZM214.745 122.64C212.719 120.461 210.585 117.014 210.47 116.196C209.96 112.561 209.363 109.368 208.256 105.153C207.879 103.724 207.519 102.373 207.075 101.094C206.286 97.7587 205.546 95.0485 205.186 94.0496C204.197 91.3288 201.55 87.6894 200.565 81.6961C200.097 78.8391 196.067 74.344 194.715 70.9492C193.356 67.5508 193.541 66.5659 191.386 66.5659C189.336 66.5659 187.387 72.706 189.046 78.6679C189.881 81.6751 190.835 82.5238 191.25 83.2922C191.439 83.6345 191.565 83.9942 191.641 84.3749C191.886 85.6393 192.417 88.594 192.556 91.5139C192.57 91.8457 192.549 92.153 192.497 92.436C192.469 92.4464 192.41 92.4534 192.343 92.4604L190.112 91.231C189.21 90.4556 188.302 89.4986 187.216 89.0935V117.077C187.216 118.669 185.927 119.962 184.335 119.962H157.326C155.737 119.962 155.244 118.669 155.244 117.077L154.448 115.648C153.917 114.569 153.463 112.92 152.611 112.585C151.612 112.19 149.946 111.335 149.132 113.535C148.808 114.422 150.886 120.388 150.886 120.388C150.886 120.388 150.935 121.743 154.689 122.972C157.805 123.999 160.358 123.779 162.474 123.845L162.017 123.646C164.486 124.216 166.327 124.324 169.138 124.963C170.214 125.207 171.167 125.365 172.334 126.039C173.591 126.755 174.908 127.691 176.267 128.683L174.115 127.6C177.755 130.331 180.584 132.79 182.948 134.198C186.273 136.174 191.806 137.606 191.806 137.606C192.186 137.746 192.57 137.84 192.951 137.917C193.409 138.012 193.877 138.074 194.338 138.165L195.05 138.319C195.183 138.354 195.316 138.392 195.452 138.434C195.864 138.57 196.255 138.755 196.615 139C196.797 139.122 196.982 139.244 197.163 139.37C197.939 139.548 198.644 139.967 199.158 140.586L212.695 156.589C218.178 151.015 223.18 144.983 227.633 138.546C221.703 131.197 215.95 124.097 214.745 122.64Z" fill="#FFDDC0"/>
</g>
<path d="M155.852 119.631L184.335 119.962C185.924 119.962 187.216 118.674 187.216 117.081V54.2726C187.216 52.68 185.924 51.3877 184.335 51.3877H157.33C155.741 51.3877 154.448 52.68 154.448 54.2726V115.649L155.038 116.857L155.852 119.631Z" fill="#EFEFEF"/>
<path d="M186.42 117.08C186.42 117.171 186.41 117.265 186.399 117.356C186.371 117.566 186.312 117.768 186.225 117.957C186.046 118.338 185.753 118.662 185.393 118.875C185.271 118.949 185.138 119.008 185.006 119.054C184.793 119.123 184.569 119.165 184.335 119.165H157.33C156.181 119.165 155.245 118.229 155.245 117.08V54.272C155.245 53.1194 156.181 52.1834 157.33 52.1834H184.335C185.484 52.1834 186.42 53.1194 186.42 54.272V117.08ZM184.335 50.5942H157.33C155.304 50.5942 153.652 52.2428 153.652 54.272V114.091C153.966 114.534 154.127 115.051 154.368 115.526C154.473 115.736 154.613 115.924 154.724 116.127C154.822 116.305 154.906 116.483 154.976 116.668C155.056 116.888 155.105 117.119 155.171 117.346C155.241 117.587 155.318 117.831 155.391 118.072C155.639 118.872 155.852 119.686 156.006 120.507C156.418 120.667 156.862 120.758 157.33 120.758H184.335C186.361 120.758 188.009 119.106 188.009 117.08V54.272C188.009 52.2428 186.361 50.5942 184.335 50.5942Z" fill="#757575"/>
<path d="M184.335 121.082H157.33C156.841 121.082 156.366 120.995 155.915 120.821L156.142 120.22C156.52 120.363 156.921 120.436 157.33 120.436H184.335C186.183 120.436 187.688 118.927 187.688 117.08V54.2716C187.688 52.4205 186.183 50.9152 184.335 50.9152H157.33C155.482 50.9152 153.977 52.4205 153.977 54.2716V104.772H153.331V54.2716C153.331 52.0643 155.126 50.269 157.33 50.269H184.335C186.539 50.269 188.334 52.0643 188.334 54.2716V117.08C188.334 119.284 186.539 121.082 184.335 121.082Z" fill="#1D1D1B"/>
<path d="M157.33 52.508C156.359 52.508 155.566 53.2973 155.566 54.2717V117.08C155.566 118.051 156.359 118.844 157.33 118.844H184.335C184.524 118.844 184.716 118.812 184.901 118.749C185.012 118.711 185.124 118.659 185.226 118.596C185.536 118.414 185.781 118.145 185.931 117.817C186.008 117.656 186.057 117.485 186.081 117.311C186.092 117.234 186.099 117.157 186.099 117.08V54.2717C186.099 53.2973 185.306 52.508 184.335 52.508H157.33ZM184.335 119.49H157.33C156.003 119.49 154.923 118.407 154.923 117.08V54.2717C154.923 52.941 156.003 51.8618 157.33 51.8618H184.335C185.662 51.8618 186.741 52.941 186.741 54.2717V117.08C186.741 117.188 186.734 117.293 186.72 117.398C186.685 117.639 186.619 117.873 186.518 118.089C186.312 118.536 185.976 118.903 185.557 119.155C185.414 119.238 185.264 119.305 185.107 119.361C184.855 119.445 184.593 119.49 184.335 119.49Z" fill="#1D1D1B"/>
<mask id="mask1_1_4655" style="mask-type:luminance" maskUnits="userSpaceOnUse" x="187" y="66" width="41" height="74">
<path d="M187.674 66.2402H228V139.558H187.674V66.2402Z" fill="white"/>
</mask>
<g mask="url(#mask1_1_4655)">
<path d="M227.633 138.87C227.539 138.87 227.445 138.828 227.382 138.748L211.396 118.833C210.589 117.788 210.1 116.541 209.978 115.228C209.374 108.655 205.902 96.972 204.882 94.157C204.592 93.3641 204.159 92.484 203.656 91.4676C202.448 89.0298 200.946 85.9946 200.244 81.7476C199.996 80.2143 198.599 78.0803 197.254 76.0127C196.154 74.3327 195.022 72.5934 194.411 71.0671C194.139 70.3825 193.933 69.8062 193.748 69.2963C193.032 67.302 192.881 66.8864 191.387 66.8864C190.96 66.8864 190.576 67.2741 190.328 67.5989C188.914 69.4674 188.135 74.2 189.357 78.5832C189.986 80.843 190.688 81.8628 191.153 82.5404C191.303 82.757 191.428 82.9456 191.537 83.1377C191.736 83.5009 191.876 83.8956 191.956 84.3112C192.186 85.4777 192.738 88.5198 192.878 91.4991C192.955 93.1127 192.047 94.6739 191.09 96.3294C190.15 97.95 189.179 99.6264 188.854 101.631C187.398 110.663 189.581 119.388 189.602 119.475C189.647 119.65 189.546 119.824 189.371 119.87C189.2 119.915 189.022 119.807 188.977 119.636C188.956 119.549 186.741 110.691 188.219 101.53C188.561 99.4029 189.605 97.6007 190.531 96.0081C191.481 94.37 192.302 92.952 192.235 91.5305C192.096 88.5932 191.551 85.5895 191.324 84.4369C191.257 84.0842 191.135 83.7524 190.967 83.4485C190.88 83.2844 190.761 83.1097 190.622 82.9037C190.133 82.1946 189.392 81.1189 188.736 78.7544C187.443 74.1196 188.271 69.2439 189.818 67.2077C190.297 66.5755 190.838 66.2402 191.387 66.2402C193.335 66.2402 193.636 67.0715 194.355 69.0763C194.537 69.5827 194.743 70.152 195.012 70.8296C195.595 72.293 196.713 74.0044 197.792 75.6599C199.242 77.8812 200.607 79.9768 200.883 81.6428C201.568 85.7956 203.045 88.7818 204.233 91.1812C204.746 92.215 205.186 93.1092 205.486 93.9369C206.513 96.7695 210.009 108.536 210.621 115.165C210.732 116.36 211.172 117.488 211.902 118.431L227.885 138.342C227.996 138.482 227.976 138.685 227.836 138.796C227.776 138.845 227.707 138.87 227.633 138.87Z" fill="#1D1D1B"/>
</g>
<path d="M153.652 107.144L153.645 104.514C153.952 103.941 153.97 104.238 154.155 102.548C154.27 101.517 154.347 100.27 153.561 99.2994C152.513 98.0001 150.282 97.6788 148.881 98.6183C148.263 99.034 147.718 99.8233 147.956 100.717C148.71 103.55 148.874 104.374 149.524 105.46C149.842 105.998 151.57 107.175 153.652 107.144Z" fill="#FFDDC0"/>
<path d="M153.572 107.469C151.452 107.469 149.635 106.278 149.244 105.628C148.657 104.633 148.451 103.851 147.896 101.762L147.645 100.802C147.355 99.7154 148.032 98.8003 148.699 98.3533C150.233 97.323 152.667 97.6757 153.813 99.0972C154.679 100.169 154.567 101.5 154.476 102.572C154.371 103.844 154.141 104.465 153.407 105.468C153.303 105.611 153.1 105.642 152.953 105.538C152.814 105.429 152.779 105.23 152.887 105.084C153.495 104.252 153.732 103.739 153.834 102.52C153.917 101.514 154.015 100.372 153.31 99.5024C152.377 98.3463 150.313 98.0459 149.059 98.8877C148.57 99.2195 148.067 99.8761 148.27 100.637L148.521 101.598C149.07 103.68 149.255 104.382 149.8 105.3C150.027 105.677 151.612 106.847 153.648 106.819C153.83 106.819 153.973 106.963 153.977 107.141C153.977 107.319 153.837 107.466 153.659 107.469C153.631 107.469 153.6 107.469 153.572 107.469Z" fill="#1D1D1B"/>
<mask id="mask2_1_4655" style="mask-type:luminance" maskUnits="userSpaceOnUse" x="148" y="111" width="66" height="46">
<path d="M148.644 111.359H213.369V156.91H148.644V111.359Z" fill="white"/>
</mask>
<g mask="url(#mask2_1_4655)">
<path d="M212.695 156.91C212.604 156.91 212.514 156.872 212.451 156.795L199.252 141.2C198.532 140.341 196.035 138.804 194.942 138.553C193.007 138.106 190.541 137.512 189.759 137.233C189.151 137.012 188.53 136.806 187.925 136.607C186.214 136.045 184.45 135.462 182.781 134.473C180.608 133.181 178.048 131.005 175.994 129.259C174.866 128.305 173.899 127.478 173.211 126.985C171.353 125.644 170.141 125.515 170.127 125.515C170.113 125.511 170.099 125.511 170.085 125.508C170.043 125.497 165.981 124.568 163.683 124.261C162.932 124.163 162.094 124.16 161.207 124.153C159.307 124.139 157.159 124.125 154.591 123.283C151.158 122.155 150.809 121.439 150.303 119.539C150.257 119.382 150.215 119.217 150.163 119.039C149.883 118.044 149.621 117.234 149.412 116.584C148.85 114.855 148.57 113.985 149.073 112.973C149.59 111.935 150.39 111.708 150.966 111.701C152.105 111.691 153.362 112.56 153.799 113.385C155.14 115.906 156.348 120.482 156.401 120.677C156.443 120.849 156.341 121.023 156.167 121.072C155.999 121.114 155.821 121.013 155.776 120.842C155.762 120.793 154.536 116.144 153.229 113.689C152.891 113.049 151.892 112.347 150.998 112.347C150.987 112.347 150.98 112.347 150.973 112.347C150.393 112.354 149.95 112.662 149.649 113.262C149.262 114.038 149.485 114.726 150.027 116.385C150.236 117.042 150.502 117.855 150.785 118.865C150.837 119.043 150.882 119.214 150.924 119.375C151.368 121.034 151.518 121.592 154.791 122.668C157.263 123.478 159.359 123.492 161.21 123.506C162.118 123.51 162.977 123.517 163.77 123.622C166.016 123.919 169.907 124.802 170.211 124.872C170.413 124.896 171.695 125.096 173.588 126.461C174.294 126.971 175.275 127.802 176.41 128.766C178.45 130.499 180.985 132.654 183.112 133.918C184.719 134.871 186.451 135.441 188.124 135.993C188.736 136.195 189.364 136.401 189.979 136.625C190.562 136.834 192.378 137.299 195.085 137.924C196.322 138.21 198.934 139.814 199.744 140.785L212.943 156.379C213.058 156.515 213.041 156.718 212.905 156.833C212.845 156.886 212.772 156.91 212.695 156.91Z" fill="#1D1D1B"/>
</g>
<path d="M192.33 92.7999C191.712 92.7999 191.174 92.4366 190.779 92.1712C190.472 91.9686 189.871 91.4063 189.239 90.8126C188.652 90.2642 188.041 89.6949 187.779 89.5168L188.139 88.9824C188.446 89.185 189.043 89.7473 189.679 90.3411C190.266 90.8894 190.873 91.4587 191.139 91.6368C191.568 91.9267 191.953 92.1677 192.361 92.1537L192.382 92.7999C192.365 92.7999 192.347 92.7999 192.33 92.7999Z" fill="#1D1D1B"/>
<path d="M203.087 133.339C203.038 133.339 202.989 133.328 202.94 133.304C202.783 133.223 202.72 133.031 202.797 132.871C203.932 130.604 205.651 128.669 207.774 127.282C207.924 127.184 208.123 127.226 208.221 127.377C208.319 127.527 208.277 127.726 208.127 127.824C206.101 129.147 204.456 130.991 203.377 133.16C203.318 133.272 203.206 133.339 203.087 133.339Z" fill="#1D1D1B"/>
<path d="M170.165 124.373C170.029 124.373 169.903 124.286 169.858 124.15C169.659 123.535 169.652 121.904 170.095 120.65C170.151 120.483 170.336 120.395 170.504 120.455C170.672 120.514 170.763 120.699 170.703 120.867C170.319 121.956 170.309 123.448 170.473 123.951C170.525 124.122 170.434 124.307 170.267 124.359C170.232 124.37 170.2 124.373 170.165 124.373Z" fill="#1D1D1B"/>
<path d="M153.977 113.804H153.331V104.608H153.977V113.804Z" fill="#1D1D1B"/>
<path d="M194.125 84.2183C193.143 84.2183 192.158 84.0541 191.233 83.7328L191.446 83.1216C192.536 83.5023 193.72 83.6455 194.865 83.5407L194.925 84.1833C194.659 84.2043 194.394 84.2183 194.125 84.2183Z" fill="#1D1D1B"/>
<path d="M170.832 82.2449C164.158 82.2449 158.73 87.7423 158.73 94.5006C158.73 101.259 164.158 106.756 170.832 106.756C177.503 106.756 182.934 101.259 182.934 94.5006C182.934 87.7423 177.503 82.2449 170.832 82.2449ZM170.832 108.049C163.449 108.049 157.438 101.971 157.438 94.5006C157.438 87.0298 163.449 80.9526 170.832 80.9526C178.216 80.9526 184.227 87.0298 184.227 94.5006C184.227 101.971 178.216 108.049 170.832 108.049Z" fill="#59996A"/>
<path d="M169.952 101.572C169.547 101.572 169.163 101.384 168.918 101.056L164.085 94.5732C163.658 94.0004 163.774 93.1936 164.346 92.7675C164.916 92.3379 165.726 92.4567 166.152 93.0295L169.655 97.7271L174.545 86.4773C174.831 85.8242 175.589 85.5238 176.242 85.8102C176.899 86.0931 177.196 86.8545 176.913 87.5076L171.136 100.797C170.951 101.22 170.556 101.513 170.102 101.566C170.05 101.569 170.001 101.572 169.952 101.572Z" fill="#59996A"/>
<path d="M77.6906 94.0677C75.815 95.7302 72.1512 96.2401 72.1512 96.2401L71.781 88.0254C71.781 88.0254 76.4926 88.0254 78.3332 89.9359C79.4439 91.0919 79.2343 92.702 77.6906 94.0677Z" fill="#FFDDC0"/>
<path d="M71.9834 96.5579L71.8926 95.9222C71.9275 95.9152 75.6018 95.3669 77.1176 94.1409C78.1165 93.3307 78.6788 92.4295 78.6998 91.6018C78.7137 90.9976 78.4308 90.4352 77.865 89.9288C76.0209 88.2803 71.8297 88.3466 71.7878 88.3466L71.7773 87.7005C71.959 87.7005 76.2619 87.6341 78.2946 89.4433C79.0071 90.0825 79.3634 90.8125 79.3424 91.6193C79.318 92.6356 78.6718 93.7114 77.5227 94.6439C75.8707 95.9816 72.1406 96.5369 71.9834 96.5579Z" fill="#1D1D1B"/>
<path d="M71.781 86.9148V78.6372C71.781 78.6372 76.7091 78.019 77.7569 79.4405C78.8047 80.8585 78.8536 82.6991 78.0049 83.5793C76.2167 85.4304 71.781 86.9148 71.781 86.9148Z" fill="#FFDDC0"/>
<path d="M71.8858 87.2186L71.6797 86.6074C71.7216 86.5934 76.063 85.1265 77.7709 83.3522C78.5427 82.5524 78.4205 80.8829 77.4984 79.6326C76.7301 78.5918 73.1396 78.7908 71.8229 78.9585L71.7426 78.3158C72.2665 78.2495 76.8907 77.7186 78.0188 79.2484C79.1365 80.7677 79.2343 82.769 78.2354 83.8028C76.4157 85.6923 72.0674 87.1592 71.8858 87.2186Z" fill="#1D1D1B"/>
<mask id="mask3_1_4655" style="mask-type:luminance" maskUnits="userSpaceOnUse" x="0" y="67" width="77" height="90">
<path d="M0 67.1348H76.8033V156.547H0V67.1348Z" fill="white"/>
</mask>
<g mask="url(#mask3_1_4655)">
<path d="M33.4981 93.0584C33.4737 93.0584 33.4178 93.0584 33.3619 93.0549C33.554 93.0409 33.7426 92.9815 33.9242 92.9012C33.7112 93.0164 33.5365 93.0968 33.4981 93.0584ZM76.4577 114.123C75.6439 111.922 73.9779 112.774 72.979 113.169C72.1303 113.508 71.6727 115.153 71.1419 116.232L70.349 117.664C70.349 119.257 69.8531 120.549 68.2604 120.549H41.2553C39.6661 120.549 38.3773 119.257 38.3773 117.664V89.6775C37.2876 90.0826 36.3761 91.0396 35.475 91.815L33.2466 93.0444C33.1803 93.0409 33.1244 93.0339 33.093 93.0234C33.0441 92.7335 33.0196 92.4332 33.0336 92.1014C33.1733 89.178 33.7007 86.2232 33.9522 84.9589C34.0255 84.5817 34.1547 84.215 34.3398 83.8797C34.759 83.1078 35.709 82.2591 36.5472 79.2554C38.2062 73.29 36.2538 67.1499 34.2036 67.1499C32.0522 67.1499 32.2338 68.1383 30.8786 71.5332C29.5235 74.9315 25.4965 79.4266 25.025 82.28C24.0435 88.2734 21.3891 91.9163 20.4077 94.6335C20.0444 95.6359 19.304 98.3427 18.5182 101.678C18.0711 102.957 17.7114 104.312 17.3376 105.74C16.2305 109.956 15.6297 113.148 15.1198 116.784C15.008 117.601 12.8705 121.045 10.8448 123.224C9.70271 124.6 5.18672 130.625 0.370361 137.087C4.9597 143.911 10.1637 150.299 15.8987 156.174L26.4325 141.17C26.9494 140.551 27.6514 140.136 28.4303 139.954C28.6119 139.828 28.7935 139.71 28.9751 139.584C29.3349 139.339 29.7261 139.154 30.1417 139.022C30.2709 138.976 30.4071 138.938 30.5433 138.903L31.2523 138.746C31.7134 138.662 32.1814 138.592 32.6389 138.501C33.0231 138.428 33.4038 138.33 33.7705 138.197C33.788 138.19 39.3169 136.758 42.6454 134.778C45.0064 133.374 47.8354 130.912 51.4748 128.18L49.3233 129.267C50.6819 128.275 52.0022 127.342 53.256 126.619C54.4226 125.952 55.3726 125.795 56.4518 125.55C59.2669 124.911 61.1005 124.796 63.5733 124.23L63.1193 124.433C65.2323 124.363 67.7819 124.586 70.8974 123.56C74.6555 122.323 74.7044 120.972 74.7044 120.972C74.7044 120.972 76.786 115.006 76.4577 114.123Z" fill="#FFDDC0"/>
</g>
<path d="M69.7377 120.214L41.2552 120.549C39.6661 120.549 38.3738 119.257 38.3738 117.664V54.856C38.3738 53.2669 39.6661 51.9746 41.2552 51.9746H68.2604C69.853 51.9746 71.1418 53.2669 71.1418 54.856V116.236L70.5515 117.444L69.7377 120.214Z" fill="#EFEFEF"/>
<path d="M39.1702 54.8556C39.1702 53.7065 40.1062 52.7705 41.2553 52.7705H68.2605C69.413 52.7705 70.3456 53.7065 70.3456 54.8556V117.664C70.3456 118.816 69.413 119.752 68.2605 119.752H41.2553C41.0213 119.752 40.7978 119.711 40.5882 119.637C40.452 119.592 40.3228 119.532 40.2005 119.459C39.8373 119.246 39.5439 118.925 39.3658 118.54C39.2785 118.352 39.2191 118.149 39.1912 117.94C39.1807 117.849 39.1702 117.755 39.1702 117.664V54.8556ZM37.5811 54.8556V117.664C37.5811 119.693 39.2296 121.345 41.2553 121.345H68.2605C68.7285 121.345 69.172 121.251 69.5842 121.094C69.7379 120.269 69.9509 119.456 70.1989 118.659C70.2757 118.415 70.3491 118.174 70.4189 117.929C70.4853 117.702 70.5342 117.472 70.6145 117.255C70.6879 117.067 70.7717 116.885 70.866 116.714C70.9812 116.508 71.1175 116.319 71.2222 116.11C71.4632 115.635 71.6239 115.118 71.9347 114.678C71.9382 114.674 71.9382 54.8556 71.9382 54.8556C71.9382 52.8263 70.2862 51.1743 68.2605 51.1743H41.2553C39.2296 51.1743 37.5811 52.8263 37.5811 54.8556Z" fill="#757575"/>
<path d="M68.2603 121.667H41.2551C39.0512 121.667 37.2595 119.872 37.2595 117.664V54.8561C37.2595 52.6487 39.0512 50.8535 41.2551 50.8535H68.2603C70.4641 50.8535 72.2593 52.6487 72.2593 54.8561V105.36H71.6167V54.8561C71.6167 53.005 70.1114 51.4997 68.2603 51.4997H41.2551C39.4075 51.4997 37.9022 53.005 37.9022 54.8561V117.664C37.9022 119.515 39.4075 121.021 41.2551 121.021H68.2603C68.6724 121.021 69.0705 120.947 69.4478 120.804L69.6783 121.408C69.2277 121.58 68.7492 121.667 68.2603 121.667Z" fill="#1D1D1B"/>
<path d="M41.2553 53.0919C40.2844 53.0919 39.495 53.8848 39.495 54.8557V117.664C39.495 117.741 39.502 117.821 39.5125 117.898C39.5334 118.073 39.5858 118.244 39.6592 118.404C39.8094 118.729 40.0538 118.998 40.3647 119.18C40.466 119.243 40.5777 119.295 40.693 119.333C40.8781 119.396 41.0667 119.428 41.2553 119.428H68.2605C69.2349 119.428 70.0242 118.638 70.0242 117.664V54.8557C70.0242 53.8848 69.2349 53.0919 68.2605 53.0919H41.2553ZM68.2605 120.074H41.2553C40.9969 120.074 40.7349 120.032 40.4834 119.945C40.3298 119.892 40.1761 119.822 40.0364 119.735C39.6138 119.487 39.282 119.12 39.0724 118.677C38.9711 118.457 38.9048 118.223 38.8733 117.982C38.8594 117.877 38.8489 117.772 38.8489 117.664V54.8557C38.8489 53.5285 39.9281 52.4458 41.2553 52.4458H68.2605C69.5912 52.4458 70.6704 53.5285 70.6704 54.8557V117.664C70.6704 118.991 69.5912 120.074 68.2605 120.074Z" fill="#1D1D1B"/>
<mask id="mask4_1_4655" style="mask-type:luminance" maskUnits="userSpaceOnUse" x="0" y="66" width="39" height="72">
<path d="M0 66.2402H38.3562V137.77H0V66.2402Z" fill="white"/>
</mask>
<g mask="url(#mask4_1_4655)">
<path d="M0.370281 137.407C0.300428 137.407 0.234067 137.386 0.174692 137.34C0.0314941 137.232 0.00355336 137.033 0.111825 136.89L13.6877 119.018C14.4177 118.075 14.8613 116.947 14.9695 115.752C15.5808 109.12 19.0769 97.353 20.1037 94.5204C20.4041 93.6927 20.8442 92.7985 21.3576 91.7647C22.5451 89.3653 24.0225 86.3791 24.707 82.2263C24.983 80.5603 26.3486 78.4647 27.798 76.2469C28.8773 74.5914 29.9949 72.88 30.5782 71.4131C30.8506 70.739 31.0532 70.1662 31.2348 69.6598C31.9578 67.655 32.2547 66.8237 34.2036 66.8237C34.7519 66.8237 35.2933 67.159 35.7752 67.7912C37.319 69.8274 38.1468 74.7066 36.858 79.3414C36.1979 81.7059 35.4609 82.7781 34.9719 83.4906C34.8322 83.6932 34.71 83.8678 34.6227 84.032C34.455 84.3359 34.3363 84.6712 34.2664 85.0204C34.0394 86.173 33.498 89.1802 33.3583 92.114C33.2885 93.5355 34.1092 94.9535 35.0627 96.5916C35.9848 98.1842 37.0326 99.9899 37.3714 102.117C38.8523 111.278 36.6344 120.132 36.6135 120.219C36.5681 120.394 36.3899 120.499 36.2188 120.453C36.0477 120.408 35.9429 120.233 35.9883 120.062C36.0093 119.975 38.1922 111.243 36.7357 102.218C36.4144 100.21 35.4434 98.537 34.5039 96.9164C33.5434 95.2609 32.6354 93.6962 32.7122 92.086C32.8554 89.1033 33.4037 86.0647 33.6343 84.8947C33.7146 84.4791 33.8578 84.0844 34.0569 83.7212C34.1616 83.5291 34.2874 83.3405 34.4411 83.1239C34.9021 82.4498 35.6076 81.4265 36.2363 79.1667C37.4552 74.7835 36.6798 70.0544 35.2618 68.1824C35.0138 67.8576 34.6297 67.4699 34.2036 67.4699C32.7087 67.4699 32.5585 67.8855 31.8425 69.8798C31.6574 70.3897 31.4513 70.966 31.1789 71.6506C30.5677 73.1769 29.4361 74.9162 28.3394 76.5996C26.9912 78.6638 25.5977 80.8013 25.3462 82.3311C24.6442 86.5816 23.1423 89.6133 21.9339 92.0546C21.4309 93.0675 20.9979 93.9476 20.708 94.7439C19.6916 97.5555 16.2199 109.235 15.6122 115.812C15.4934 117.128 15.0045 118.372 14.1977 119.413L0.625244 137.277C0.562377 137.361 0.468075 137.407 0.370281 137.407Z" fill="#1D1D1B"/>
</g>
<path d="M71.9381 107.727L71.9485 105.097C71.6377 104.524 71.6202 104.821 71.4351 103.131C71.3234 102.1 71.243 100.857 72.0289 99.8826C73.0767 98.5833 75.312 98.262 76.709 99.205C77.3272 99.6206 77.8721 100.406 77.6346 101.304C76.8802 104.133 76.716 104.957 76.0664 106.047C75.7485 106.585 74.0232 107.759 71.9381 107.727Z" fill="#FFDDC0"/>
<path d="M72.0184 108.053C71.9904 108.053 71.9625 108.053 71.9346 108.053C71.7564 108.049 71.6132 107.902 71.6167 107.724C71.6167 107.546 71.7634 107.406 71.938 107.406C71.9695 107.406 71.9939 107.406 72.0219 107.406C74.0232 107.406 75.5704 106.257 75.7904 105.88C76.3353 104.965 76.5204 104.263 77.0687 102.178L77.3237 101.221C77.5263 100.46 77.0233 99.803 76.5309 99.4747C75.277 98.6294 73.2129 98.9298 72.2803 100.086C71.5783 100.959 71.6726 102.098 71.7564 103.104C71.8612 104.322 72.0952 104.836 72.7064 105.671C72.8112 105.814 72.7798 106.016 72.6366 106.121C72.4934 106.226 72.2908 106.195 72.186 106.051C71.4491 105.052 71.2221 104.427 71.1138 103.159C71.0265 102.087 70.9112 100.756 71.7774 99.6807C72.923 98.2627 75.3573 97.9065 76.8906 98.9368C77.5577 99.3873 78.2353 100.299 77.9454 101.389L77.6939 102.342C77.1421 104.434 76.936 105.217 76.3458 106.212C75.9581 106.865 74.1419 108.053 72.0184 108.053Z" fill="#1D1D1B"/>
<path d="M15.8986 156.499C15.8358 156.499 15.7729 156.478 15.7135 156.44C15.5668 156.338 15.5319 156.136 15.6367 155.989L25.8282 141.39C26.656 140.401 29.2685 138.795 30.5049 138.508C33.2152 137.88 35.0278 137.422 35.6111 137.209C36.2293 136.986 36.858 136.78 37.4657 136.58C39.1422 136.029 40.8745 135.456 42.4777 134.502C44.6082 133.238 47.1438 131.083 49.1801 129.354C50.3152 128.387 51.2966 127.555 52.0021 127.046C53.8951 125.683 55.1804 125.481 55.3795 125.456C55.6869 125.39 59.5742 124.503 61.8199 124.206C62.6128 124.101 63.472 124.098 64.3801 124.091C66.2312 124.08 68.3267 124.066 70.7995 123.253C74.0721 122.177 74.2223 121.618 74.6659 119.959C74.7078 119.798 74.7532 119.631 74.8056 119.453C75.0885 118.44 75.3539 117.626 75.567 116.969C76.1049 115.31 76.3284 114.622 75.9407 113.847C75.6403 113.246 75.1968 112.939 74.617 112.932C73.7159 112.921 72.703 113.63 72.3607 114.273C71.0545 116.728 69.8286 121.38 69.8146 121.426C69.7727 121.597 69.5946 121.702 69.4234 121.656C69.2488 121.611 69.1475 121.433 69.1894 121.262C69.2418 121.07 70.4503 116.491 71.7914 113.969C72.228 113.152 73.4505 112.286 74.596 112.286C74.6065 112.286 74.6135 112.286 74.624 112.286C75.2038 112.293 76.0001 112.523 76.517 113.56C77.0234 114.57 76.7405 115.44 76.1782 117.172C75.9687 117.821 75.7067 118.628 75.4273 119.627C75.3749 119.802 75.333 119.969 75.2911 120.127C74.7812 122.023 74.4319 122.739 70.9986 123.867C68.4315 124.709 66.2835 124.726 64.387 124.737C63.4964 124.744 62.6582 124.751 61.9073 124.849C59.6091 125.149 55.5471 126.082 55.5087 126.092C55.4913 126.096 55.4773 126.096 55.4598 126.099C55.4528 126.099 54.2409 126.232 52.3793 127.569C51.6948 128.065 50.7238 128.89 49.5992 129.847C47.542 131.593 44.9819 133.769 42.8095 135.058C41.1435 136.05 39.3762 136.629 37.6683 137.192C37.0641 137.391 36.4389 137.597 35.8312 137.817C35.0523 138.1 32.583 138.69 30.6481 139.137C29.5549 139.392 27.0576 140.925 26.3416 141.785L16.1641 156.359C16.1012 156.45 15.9999 156.499 15.8986 156.499Z" fill="#1D1D1B"/>
<path d="M33.2604 93.3829C33.2429 93.3829 33.229 93.3829 33.208 93.3829L33.2325 92.7368C33.6306 92.7507 34.0218 92.5097 34.4514 92.2198C34.7168 92.0417 35.3246 91.4759 35.9113 90.9241C36.547 90.3303 37.1477 89.7715 37.4516 89.5654L37.8113 90.0998C37.5494 90.2779 36.9416 90.8472 36.3549 91.3956C35.7192 91.9893 35.122 92.5482 34.8111 92.7577C34.4165 93.0231 33.8786 93.3829 33.2604 93.3829Z" fill="#1D1D1B"/>
<path d="M22.5067 133.922C22.3845 133.922 22.2727 133.86 22.2168 133.744C21.1341 131.579 19.4926 129.735 17.4633 128.408C17.3166 128.31 17.2712 128.111 17.369 127.96C17.4668 127.81 17.6659 127.772 17.8161 127.866C19.9396 129.253 21.658 131.188 22.7931 133.458C22.8734 133.615 22.8071 133.811 22.6499 133.891C22.6045 133.912 22.5521 133.922 22.5067 133.922Z" fill="#1D1D1B"/>
<path d="M55.4247 124.96C55.3933 124.96 55.3584 124.953 55.3269 124.943C55.1558 124.887 55.065 124.709 55.1174 124.538C55.2815 124.031 55.2711 122.543 54.8869 121.45C54.8275 121.283 54.9183 121.097 55.086 121.042C55.2536 120.982 55.4387 121.07 55.4981 121.237C55.9382 122.488 55.9312 124.119 55.7321 124.737C55.6902 124.873 55.561 124.96 55.4247 124.96Z" fill="#1D1D1B"/>
<path d="M72.2593 114.388H71.6167V105.192H72.2593V114.388Z" fill="#1D1D1B"/>
<path d="M31.4653 84.8008C31.1964 84.8008 30.931 84.7903 30.6655 84.7659L30.7249 84.1197C31.874 84.2315 33.058 84.0848 34.1442 83.7041L34.3573 84.3153C33.4352 84.6366 32.4468 84.8008 31.4653 84.8008Z" fill="#1D1D1B"/>
<path d="M49.5398 98.444H60.4508V94.8291H49.5398V98.444Z" fill="#59996A"/>
<path d="M49.5398 111.904H60.4508V109.878H49.5398V111.904Z" fill="#59996A"/>
<path d="M49.5398 103.7H60.4508V100.976H49.5398V103.7Z" fill="#59996A"/>
<path d="M65.8294 86.8558L55.3061 75.5815C55.1384 75.3999 54.8555 75.3999 54.6879 75.5815L44.161 86.8558C43.9096 87.1247 44.1016 87.5718 44.4719 87.5718H49.5397V92.3742H60.4507V87.5718H65.522C65.8923 87.5718 66.0844 87.1247 65.8294 86.8558Z" fill="#59996A"/>
<path d="M49.5398 108.15H60.4508V105.995H49.5398V108.15Z" fill="#59996A"/>
<path d="M115.037 0.341797C114.143 0.341797 113.287 0.593267 112.484 1.0543V0.341797C108.049 0.341797 104.455 6.48187 104.455 14.0574C104.455 21.633 108.049 27.773 112.484 27.773V27.0605C113.287 27.5181 114.143 27.773 115.037 27.773C119.469 27.773 123.063 21.633 123.063 14.0574C123.063 6.48187 119.469 0.341797 115.037 0.341797Z" fill="#FEC564"/>
<mask id="mask5_1_4655" style="mask-type:luminance" maskUnits="userSpaceOnUse" x="106" y="0" width="11" height="29">
<path d="M106.309 0H116.144V28.6886H106.309V0Z" fill="white"/>
</mask>
<g mask="url(#mask5_1_4655)">
<path d="M115.037 28.094C110.43 28.094 106.686 21.7967 106.686 14.057C106.686 6.31734 110.43 0.0166016 115.037 0.0166016C115.215 0.0166016 115.359 0.163292 115.359 0.341418C115.359 0.519543 115.215 0.662741 115.037 0.662741C110.787 0.662741 107.332 6.67359 107.332 14.057C107.332 21.4405 110.787 27.4478 115.037 27.4478C115.215 27.4478 115.359 27.5945 115.359 27.7727C115.359 27.9508 115.215 28.094 115.037 28.094Z" fill="#1D1D1B"/>
</g>
<mask id="mask6_1_4655" style="mask-type:luminance" maskUnits="userSpaceOnUse" x="114" y="0" width="11" height="29">
<path d="M114.356 0H124.191V28.6886H114.356V0Z" fill="white"/>
</mask>
<g mask="url(#mask6_1_4655)">
<path d="M115.037 28.094C114.859 28.094 114.712 27.9508 114.712 27.7727C114.712 27.5945 114.859 27.4478 115.037 27.4478C119.284 27.4478 122.742 21.4405 122.742 14.057C122.742 6.67359 119.284 0.662741 115.037 0.662741C114.859 0.662741 114.712 0.519543 114.712 0.341418C114.712 0.163292 114.859 0.0166016 115.037 0.0166016C119.641 0.0166016 123.388 6.31734 123.388 14.057C123.388 21.7967 119.641 28.094 115.037 28.094Z" fill="#1D1D1B"/>
</g>
<mask id="mask7_1_4655" style="mask-type:luminance" maskUnits="userSpaceOnUse" x="103" y="0" width="13" height="29">
<path d="M103.627 0H115.25V28.6886H103.627V0Z" fill="white"/>
</mask>
<g mask="url(#mask7_1_4655)">
<path d="M112.484 28.094C107.877 28.094 104.133 21.7967 104.133 14.057C104.133 6.31734 107.877 0.0166016 112.484 0.0166016H114.496C114.678 0.0166016 114.821 0.163292 114.821 0.341418C114.821 0.519543 114.678 0.662741 114.496 0.662741H112.484C108.234 0.662741 104.776 6.67359 104.776 14.057C104.776 21.4405 108.234 27.4478 112.484 27.4478C112.662 27.4478 112.806 27.5945 112.806 27.7727C112.806 27.9508 112.662 28.094 112.484 28.094Z" fill="#1D1D1B"/>
</g>
<path d="M115.31 13.4532V17.5151C115.634 17.3265 115.903 17.0506 116.12 16.6839C116.357 16.2683 116.48 15.8177 116.48 15.3357C116.48 14.4311 116.089 13.8024 115.31 13.4532ZM114.496 11.8081V9.00355C113.892 9.39473 113.588 9.99895 113.588 10.8162C113.588 11.3192 113.892 11.651 114.496 11.8081ZM115.31 5.96145V7.27818H115.327C115.621 7.27818 115.956 7.3655 116.33 7.53664C116.818 7.76017 117.066 8.04656 117.066 8.39583C117.066 8.85337 116.93 9.08388 116.658 9.08388C116.536 9.08388 116.323 9.02451 116.019 8.91623C115.711 8.80447 115.477 8.74859 115.31 8.75557V11.9304C115.984 12.0352 116.511 12.4124 116.892 13.062C117.238 13.6662 117.412 14.3962 117.412 15.2519C117.412 16.2962 117.203 17.1624 116.777 17.8504C116.403 18.4547 115.914 18.8493 115.31 19.0449V21.1195C115.31 21.3221 115.271 21.4898 115.194 21.6225C115.118 21.7552 115.02 21.8216 114.898 21.8216C114.632 21.8216 114.496 21.5945 114.496 21.137V19.1462C113.012 19.1078 112.268 18.4512 112.268 17.1694C112.268 16.7013 112.393 16.4673 112.648 16.4673C112.791 16.4673 112.928 16.5651 113.057 16.7572C113.253 17.0401 113.403 17.2322 113.5 17.3195C113.745 17.5256 114.077 17.6444 114.496 17.6793V13.2506H114.461C113.989 13.2192 113.581 13.0236 113.235 12.6569C112.809 12.2098 112.596 11.5881 112.596 10.7918C112.596 10.0793 112.791 9.4087 113.179 8.77653C113.539 8.19675 113.979 7.77065 114.496 7.5052V6.00686C114.496 5.80429 114.538 5.63664 114.618 5.50043C114.698 5.36421 114.8 5.29785 114.918 5.29785C115.18 5.29785 115.31 5.51789 115.31 5.96145Z" fill="black"/>
<path d="M115.037 28.0944H112.268C112.089 28.0944 111.946 27.9512 111.946 27.7731C111.946 27.5949 112.089 27.4482 112.268 27.4482H115.037C115.215 27.4482 115.359 27.5949 115.359 27.7731C115.359 27.9512 115.215 28.0944 115.037 28.0944Z" fill="#1D1D1B"/>
<path d="M68.2255 52.8096C71.5016 59.6377 68.6236 67.8315 61.8025 71.1076C54.9814 74.3872 46.7946 71.5057 43.522 64.6776C40.2494 57.8495 43.1273 49.6557 49.9485 46.3761C56.7696 43.1 64.9529 45.9815 68.2255 52.8096Z" fill="#FEC564"/>
<path d="M55.865 45.3408C53.8882 45.3408 51.9218 45.7878 50.0847 46.668C46.8645 48.2152 44.4371 50.9255 43.2531 54.3029C42.0691 57.6768 42.2681 61.3091 43.8119 64.5363C45.3591 67.7601 48.0659 70.1909 51.4398 71.3784C54.8102 72.5624 58.4426 72.3634 61.6628 70.8161C64.883 69.2689 67.3104 66.5586 68.4979 63.1812C69.6819 59.8073 69.4828 56.1715 67.9356 52.9477C66.3919 49.7205 63.6816 47.2931 60.3112 46.1056C58.8582 45.5957 57.3599 45.3408 55.865 45.3408ZM55.886 72.7895C54.3178 72.7895 52.7461 72.5205 51.2268 71.9862C47.6922 70.7428 44.8527 68.1966 43.2321 64.8158C41.6115 61.4349 41.402 57.6244 42.6453 54.0863C43.8852 50.5483 46.4314 47.7088 49.8088 46.0847C53.1827 44.4606 56.9896 44.2545 60.5242 45.4944C64.0588 46.7413 66.8983 49.2874 68.5189 52.6683C70.1395 56.0492 70.3455 59.8597 69.1056 63.3942C67.8623 66.9358 65.3196 69.7753 61.9422 71.3994C60.0178 72.3215 57.9571 72.7895 55.886 72.7895Z" fill="#1D1D1B"/>
<path d="M55.9488 57.8845L57.7021 61.5448C58.1178 61.1361 58.4146 60.6891 58.5893 60.2001C58.7779 59.6482 58.7709 59.1523 58.5613 58.7157C58.1701 57.8984 57.3005 57.6225 55.9488 57.8845ZM53.986 57.0008L52.774 54.4756C52.0091 55.2754 51.803 56.0438 52.1558 56.7808C52.3758 57.2348 52.9836 57.3082 53.986 57.0008ZM52.7076 51.1297L53.2804 52.3207L53.3084 52.3032C53.7589 52.0902 54.3073 51.919 54.9604 51.8003C55.8091 51.6361 56.3121 51.713 56.4622 52.0273C56.6613 52.4394 56.5496 52.7468 56.1339 52.9493C55.9453 53.0367 55.5926 53.1449 55.0722 53.2707C54.5518 53.3964 54.1676 53.5221 53.9161 53.6479L55.2887 56.5118C56.3714 56.1102 57.3459 56.0613 58.2121 56.3652C59.0049 56.6516 59.5882 57.1824 59.9584 57.9508C60.4089 58.8938 60.4578 59.8299 60.1016 60.7659C59.7872 61.5832 59.2075 62.3061 58.3622 62.9243L59.2598 64.7964C59.3472 64.9815 59.3611 65.1596 59.2983 65.3378C59.2389 65.5124 59.1166 65.6486 58.9315 65.7359C58.5194 65.9315 58.2155 65.8267 58.0165 65.4111L57.1573 63.6159C54.8521 64.6846 53.4236 64.6392 52.8718 63.4832C52.6692 63.0606 52.7635 62.7567 53.1512 62.5716C53.3712 62.4668 53.6227 62.4493 53.9091 62.5262C54.3317 62.6414 54.6391 62.7008 54.8347 62.7078C55.2992 62.7148 55.8615 62.5786 56.5216 62.2957L54.6076 58.3036L54.5518 58.3315C53.8113 58.6528 53.0988 58.7751 52.4143 58.7017C51.5621 58.6144 50.9648 58.2093 50.6225 57.4933C50.3152 56.8471 50.3222 56.0997 50.6505 55.244C50.9543 54.4512 51.4433 53.7457 52.1279 53.124L51.4782 51.7723C51.3909 51.5907 51.3769 51.4056 51.4433 51.2275C51.5097 51.0459 51.6354 50.9096 51.817 50.8223C52.2222 50.6267 52.519 50.7315 52.7076 51.1297Z" fill="black"/>
<path d="M183.72 65.2258C180.144 71.9002 171.838 74.4079 165.171 70.8315C158.5 67.2515 155.996 58.939 159.572 52.261C163.145 45.5831 171.45 43.0754 178.118 46.6553C184.785 50.2353 187.293 58.5478 183.72 65.2258Z" fill="#FEC564"/>
<path d="M171.664 45.3419C170.364 45.3419 169.058 45.534 167.776 45.9217C164.357 46.9555 161.545 49.2607 159.855 52.4145C158.165 55.5649 157.805 59.1868 158.839 62.613C159.869 66.0393 162.174 68.8544 165.321 70.5448C171.824 74.034 179.948 71.5787 183.434 65.0719C186.919 58.5616 184.468 50.4307 177.964 46.938C175.994 45.8798 173.84 45.3419 171.664 45.3419ZM171.622 72.7766C169.386 72.7766 167.12 72.2423 165.017 71.1141C161.717 69.3434 159.303 66.3886 158.22 62.7982C157.138 59.2112 157.515 55.4147 159.286 52.1072C161.056 48.8031 164.008 46.3862 167.591 45.3035C171.178 44.2173 174.971 44.598 178.272 46.3687C185.086 50.029 187.656 58.5546 184.003 65.3757C181.478 70.0943 176.627 72.7766 171.622 72.7766Z" fill="#1D1D1B"/>
<path d="M172.38 58.2963L170.462 61.8727C171.038 61.9705 171.573 61.9426 172.069 61.7959C172.631 61.6247 173.022 61.3244 173.249 60.8983C173.679 60.0985 173.389 59.2323 172.38 58.2963ZM171.932 56.1867L173.256 53.7174C172.16 53.5707 171.419 53.8571 171.035 54.5801C170.794 55.0236 171.098 55.5615 171.932 56.1867ZM175.918 51.6917L175.296 52.8547L175.32 52.8687C175.76 53.1062 176.221 53.4485 176.703 53.9025C177.336 54.4963 177.57 54.9468 177.405 55.2542C177.189 55.6558 176.878 55.7501 176.469 55.5301C176.288 55.4323 175.991 55.2088 175.582 54.863C175.177 54.5207 174.849 54.2797 174.597 54.154L173.099 56.9516C174.06 57.5907 174.674 58.3486 174.943 59.2288C175.181 60.0391 175.097 60.8214 174.692 61.5759C174.199 62.4979 173.473 63.0882 172.509 63.3536C171.664 63.5841 170.738 63.5387 169.743 63.2209L168.761 65.051C168.667 65.2292 168.527 65.3479 168.346 65.4003C168.171 65.4562 167.989 65.4352 167.811 65.3374C167.406 65.1209 167.315 64.8135 167.528 64.4084L168.471 62.6551C166.25 61.4222 165.447 60.2417 166.047 59.1135C166.271 58.7014 166.571 58.5966 166.952 58.7992C167.165 58.9145 167.326 59.1135 167.43 59.386C167.591 59.7981 167.724 60.081 167.836 60.2417C168.101 60.6189 168.545 60.9926 169.163 61.3628L171.251 57.458L171.199 57.4301C170.5 57.0214 169.98 56.5185 169.634 55.9178C169.205 55.1808 169.18 54.4578 169.554 53.7593C169.889 53.1306 170.5 52.6975 171.384 52.4566C172.201 52.233 173.061 52.2121 173.965 52.3972L174.671 51.077C174.769 50.8953 174.908 50.7801 175.093 50.7242C175.278 50.6718 175.46 50.6928 175.638 50.7906C176.033 51.0001 176.127 51.3005 175.918 51.6917Z" fill="black"/>
<path d="M83.5791 37.9304C78.3401 40.4486 71.4422 36.9525 68.166 30.1243C64.8934 23.2927 66.4861 15.7172 71.7216 13.2025L73.4155 12.3887L83.5791 37.9304Z" fill="#FEC564"/>
<path d="M88.8217 20.1978C92.0978 27.0294 90.5051 34.6049 85.2696 37.1196C80.0307 39.6343 73.1327 36.1382 69.8601 29.3101C66.584 22.482 68.1766 14.9029 73.4156 12.3882C78.6511 9.8735 85.5491 13.3696 88.8217 20.1978Z" fill="#FEC564"/>
<path d="M79.9503 39.0656C75.368 39.0656 70.4853 35.6987 67.8763 30.2607C66.2626 26.8937 65.7527 23.2439 66.4373 19.9783C67.1323 16.6812 68.959 14.17 71.5854 12.9092L73.2724 12.0989C73.4331 12.0186 73.6286 12.0884 73.7055 12.2491C73.7823 12.4097 73.7125 12.6018 73.5518 12.6787L71.8614 13.4925C69.4235 14.666 67.7191 17.013 67.0695 20.111C66.4128 23.2369 66.9053 26.7436 68.4595 29.9812C71.6483 36.6417 78.3682 40.075 83.4395 37.6406C83.6001 37.5638 83.7922 37.6301 83.8691 37.7943C83.9459 37.955 83.8796 38.1471 83.7189 38.2239C82.5279 38.7967 81.2496 39.0656 79.9503 39.0656Z" fill="#1D1D1B"/>
<path d="M77.0618 11.8927C75.8324 11.8927 74.6449 12.1546 73.5517 12.6785C71.1138 13.8521 69.4094 16.2026 68.7598 19.3006C68.1032 22.4265 68.5956 25.9296 70.1499 29.1708C73.3421 35.8278 80.0585 39.2646 85.1298 36.8267C90.1977 34.3923 91.7239 26.9949 88.5317 20.3379C86.9809 17.1002 84.557 14.5192 81.7105 13.0767C80.1528 12.2874 78.5741 11.8927 77.0618 11.8927ZM81.6407 38.2552C77.0618 38.2552 72.1721 34.8848 69.5701 29.4502C67.953 26.0833 67.4431 22.43 68.1276 19.1644C68.8192 15.8673 70.6493 13.3596 73.2723 12.0988C75.8988 10.8344 79.0002 10.9811 82.0004 12.5004C84.9727 14.0058 87.5013 16.6916 89.1149 20.0585C92.4609 27.0403 90.7984 34.8219 85.4092 37.41C84.2183 37.9828 82.9434 38.2552 81.6407 38.2552Z" fill="#1D1D1B"/>
<path d="M83.5792 38.2557C83.4569 38.2557 83.3452 38.1893 83.2893 38.0741C83.209 37.9134 83.2753 37.7213 83.436 37.641L85.4687 36.6525C85.6294 36.5757 85.8215 36.6421 85.8983 36.8027C85.9786 36.9634 85.9123 37.159 85.7516 37.2358L83.7189 38.2242C83.6735 38.2452 83.6246 38.2557 83.5792 38.2557Z" fill="#1D1D1B"/>
<path d="M79.3215 23.9424L81.0783 27.5992C81.3751 27.2464 81.5777 26.8448 81.6755 26.3942C81.7803 25.8843 81.7244 25.4093 81.5183 24.9727C81.1272 24.1554 80.3937 23.8132 79.3215 23.9424ZM77.6485 22.919L76.44 20.3904C75.8917 21.0854 75.7939 21.8014 76.1466 22.5383C76.3667 22.9959 76.8661 23.1216 77.6485 22.919ZM76.0838 17.1841L76.6566 18.3751L76.6775 18.3646C77.0233 18.197 77.4529 18.0852 77.9698 18.0293C78.6439 17.9525 79.0595 18.0678 79.2097 18.3856C79.4088 18.7977 79.3459 19.0806 79.0281 19.2343C78.8814 19.3042 78.6055 19.374 78.1933 19.4474C77.7847 19.5207 77.4843 19.6045 77.2922 19.7023L78.6648 22.5698C79.5066 22.2799 80.2924 22.3218 81.0224 22.692C81.693 23.0378 82.2134 23.5966 82.5801 24.3685C83.0341 25.3115 83.1564 26.2091 82.9538 27.0718C82.7722 27.8262 82.367 28.4619 81.7384 28.9788L82.636 30.8508C82.7233 31.036 82.7512 31.2071 82.7163 31.3712C82.6814 31.5354 82.5941 31.6507 82.4544 31.717C82.1365 31.8707 81.8781 31.738 81.6825 31.3293L80.8198 29.5341C79.049 30.3444 77.886 30.1698 77.3341 29.0172C77.1316 28.5946 77.1805 28.3117 77.4808 28.1685C77.645 28.0882 77.8511 28.0951 78.0886 28.1964C78.4413 28.3431 78.6998 28.4269 78.8569 28.4514C79.2341 28.5003 79.6777 28.42 80.1876 28.2104L78.2737 24.2183L78.2318 24.2393C77.659 24.4803 77.0932 24.5326 76.5273 24.3999C75.8288 24.2393 75.3119 23.7992 74.9661 23.0797C74.6588 22.4371 74.5994 21.7211 74.788 20.9352C74.9591 20.2018 75.2944 19.5731 75.7904 19.0387L75.1443 17.6871C75.0569 17.5054 75.0325 17.3308 75.0674 17.1632C75.1023 16.9955 75.1932 16.8768 75.3329 16.8104C75.6437 16.6602 75.8917 16.786 76.0838 17.1841Z" fill="black"/>
<path d="M143.942 37.9304C149.178 40.4486 156.076 36.9525 159.348 30.1243C162.625 23.2927 161.032 15.7172 155.796 13.2025L154.106 12.3887L143.942 37.9304Z" fill="#FEC564"/>
<path d="M138.693 20.1978C135.42 27.0294 137.013 34.6049 142.248 37.1196C147.487 39.6343 154.385 36.1382 157.661 29.3101C160.934 22.482 159.341 14.9029 154.106 12.3882C148.867 9.8735 141.969 13.3696 138.693 20.1978Z" fill="#FEC564"/>
<path d="M147.568 39.0656C146.269 39.0656 144.99 38.7967 143.799 38.2239C143.642 38.1471 143.572 37.955 143.649 37.7943C143.726 37.6336 143.918 37.5638 144.079 37.6406C149.15 40.075 155.87 36.6382 159.059 29.9812C160.613 26.7436 161.105 23.2369 160.449 20.111C159.799 17.013 158.098 14.666 155.657 13.4925L153.966 12.6787C153.806 12.6018 153.736 12.4097 153.816 12.2491C153.889 12.0884 154.085 12.0186 154.246 12.0989L155.936 12.9092C158.563 14.17 160.389 16.6812 161.081 19.9783C161.765 23.2439 161.255 26.8937 159.642 30.2607C157.036 35.6987 152.147 39.0656 147.568 39.0656Z" fill="#1D1D1B"/>
<path d="M138.986 20.3373C135.794 26.9943 137.32 34.3917 142.388 36.8261C144.829 37.9996 147.728 37.8599 150.547 36.4314C153.393 34.989 155.817 32.4079 157.368 29.1702C158.922 25.929 159.415 22.4259 158.758 19.3C158.109 16.202 156.404 13.8515 153.966 12.6779C148.895 10.2436 142.179 13.6803 138.986 20.3373ZM145.898 38.2616C144.574 38.2616 143.296 37.9787 142.112 37.4094C136.72 34.8213 135.057 27.0397 138.403 20.0579C141.749 13.0796 148.856 9.50661 154.246 12.0981C156.869 13.359 158.695 15.8667 159.39 19.1638C160.075 22.4294 159.565 26.0827 157.951 29.4496C156.338 32.8165 153.813 35.4989 150.837 37.0077C149.188 37.8424 147.512 38.2616 145.898 38.2616Z" fill="#1D1D1B"/>
<path d="M149.185 24.5293L147.11 28.015C147.568 28.0708 148.015 28.015 148.441 27.8473C148.926 27.6517 149.293 27.3444 149.541 26.9287C150.002 26.1499 149.883 25.3501 149.185 24.5293ZM149.111 22.5664L150.547 20.16C149.663 20.0867 149.014 20.401 148.595 21.1065C148.34 21.5396 148.511 22.0251 149.111 22.5664ZM153.02 18.0924L152.342 19.224L152.367 19.2379C152.691 19.4335 153.027 19.7304 153.359 20.1286C153.795 20.6525 153.924 21.0611 153.746 21.3615C153.512 21.7561 153.243 21.8609 152.939 21.6793C152.8 21.5955 152.59 21.4034 152.3 21.103C152.014 20.8026 151.776 20.5966 151.588 20.4918L149.964 23.2196C150.669 23.7644 151.067 24.4385 151.165 25.2558C151.246 26.0067 151.067 26.7471 150.634 27.4841C150.096 28.3817 149.415 28.9824 148.588 29.2898C147.858 29.5552 147.103 29.5692 146.328 29.3282L145.263 31.1129C145.161 31.2876 145.032 31.4028 144.875 31.4657C144.721 31.5286 144.575 31.5216 144.442 31.4412C144.141 31.2596 144.107 30.9732 144.341 30.5786L145.36 28.8707C143.705 27.8403 143.205 26.7751 143.859 25.6749C144.1 25.2732 144.361 25.158 144.648 25.3291C144.809 25.4234 144.913 25.5981 144.962 25.853C145.036 26.2267 145.105 26.4887 145.172 26.6319C145.339 26.9742 145.654 27.299 146.111 27.6098L148.375 23.8063L148.333 23.7819C147.819 23.4396 147.459 22.996 147.257 22.4512C147.009 21.7806 147.086 21.103 147.494 20.4185C147.858 19.8072 148.42 19.3602 149.181 19.0808C149.883 18.8223 150.592 18.7525 151.312 18.8712L152.08 17.5859C152.185 17.4113 152.314 17.2925 152.475 17.2297C152.636 17.1703 152.782 17.1773 152.915 17.2576C153.212 17.4322 153.243 17.7117 153.02 18.0924Z" fill="black"/>
<path d="M143.939 38.2551C143.894 38.2551 143.845 38.2446 143.799 38.2237L141.767 37.2353C141.606 37.1584 141.543 36.9628 141.616 36.8022C141.697 36.6415 141.889 36.5787 142.049 36.652L144.082 37.6404C144.243 37.7207 144.309 37.9128 144.232 38.0735C144.173 38.1888 144.061 38.2551 143.939 38.2551Z" fill="#1D1D1B"/>
</svg>
