<svg width="60" height="60" viewBox="0 0 60 60" fill="none" xmlns="http://www.w3.org/2000/svg">
<rect width="60" height="60" rx="30" fill="white"/>
<g clip-path="url(#clip0_159_378)">
<path d="M32.9657 22.9661L34.8072 21.2927L33.383 19.7256L31.4666 21.467L22.0634 12.0636L21.3146 12.8123C18.5148 15.6121 16.9729 19.3346 16.9729 23.2941C16.9729 27.1784 18.4577 30.834 21.1573 33.6148C20.5293 34.3537 20.1494 35.3096 20.1494 36.3529C20.1494 37.1803 20.3887 37.9523 20.8005 38.6052L19.2881 45.8824H16.9729V48H18.8479H29.9215H31.7964V45.8824H29.4813L27.9688 38.6052C28.1419 38.3306 28.2842 38.0351 28.3912 37.723C29.5087 37.9859 30.6512 38.1181 31.7954 38.1181C32.9197 38.1181 34.0459 37.9907 35.1511 37.7349C37.8476 37.1111 40.3121 35.7421 42.2782 33.7759L43.0269 33.0272L32.9657 22.9661ZM26.1393 40.2091L27.3185 45.8824H21.4509L22.6301 40.2091C22.8984 40.3683 23.5572 40.7101 24.4574 40.6911C25.2737 40.6738 25.8705 40.3686 26.1393 40.2091ZM22.2941 36.3529C22.2941 35.1984 23.2301 34.2625 24.3846 34.2625C25.5391 34.2625 26.4751 35.1984 26.4751 36.3529C26.4751 37.5075 25.5391 38.4434 24.3846 38.4434C23.2301 38.4434 22.2941 37.5075 22.2941 36.3529ZM28.5494 35.5809C28.2281 33.9731 27.1423 32.6766 25.6964 32.2237C24.4125 31.8217 23.292 32.2249 22.9152 32.3804C22.8803 32.3464 22.8458 32.3124 22.812 32.2786C19.2723 28.7389 18.2624 23.6132 19.781 19.1678L35.9297 35.3165C33.5888 36.1233 31.0282 36.2366 28.5494 35.5809ZM37.997 34.3889L20.7039 17.0958C21.0958 16.3938 21.559 15.7213 22.0943 15.0893L40.0016 32.9965C39.3729 33.5296 38.7009 33.9937 37.997 34.3889Z" fill="#335F99"/>
<path d="M36.0317 19.4118H38.1494C38.1494 17.6603 36.7245 16.2354 34.9729 16.2354V18.353C35.5567 18.353 36.0317 18.828 36.0317 19.4118Z" fill="#335F99"/>
<path d="M40.267 19.4118H42.3847C42.3847 15.3249 39.0598 12 34.9729 12V14.1176C37.8921 14.1176 40.267 16.4926 40.267 19.4118Z" fill="#335F99"/>
</g>
<defs>
<clipPath id="clip0_159_378">
<rect width="36" height="36" fill="white" transform="translate(12 12)"/>
</clipPath>
</defs>
</svg>
