<svg width="60" height="60" viewBox="0 0 60 60" fill="none" xmlns="http://www.w3.org/2000/svg">
<rect width="60" height="60" rx="30" fill="white"/>
<g clip-path="url(#clip0_159_349)">
<path d="M45.84 17.76H14.16C12.9691 17.76 12 18.7291 12 19.92V40.08C12 41.2709 12.9691 42.24 14.16 42.24H45.84C47.0309 42.24 48 41.2709 48 40.08V19.92C48 18.7291 47.0309 17.76 45.84 17.76ZM46.56 40.08C46.56 40.476 46.236 40.8 45.84 40.8H14.16C13.7626 40.8 13.44 40.476 13.44 40.08V19.92C13.44 19.5225 13.7626 19.2 14.16 19.2H45.84C46.236 19.2 46.56 19.5225 46.56 19.92V40.08Z" fill="#335F99"/>
<path d="M47.28 24.24H12.72V27.12H47.28V24.24Z" fill="#335F99"/>
<path d="M47.28 23.52H12.72C12.3226 23.52 12 23.8425 12 24.24V27.12C12 27.5175 12.3226 27.84 12.72 27.84H47.28C47.6774 27.84 48 27.5175 48 27.12V24.24C48 23.8425 47.6774 23.52 47.28 23.52ZM46.56 26.4H13.44V24.96H46.56V26.4Z" fill="#335F99"/>
<path d="M31.44 32.16H18.48C18.0826 32.16 17.76 32.4826 17.76 32.88C17.76 33.2774 18.0826 33.6 18.48 33.6H31.44C31.8374 33.6 32.16 33.2774 32.16 32.88C32.16 32.4826 31.8374 32.16 31.44 32.16Z" fill="#335F99"/>
<path d="M25.68 35.04H18.48C18.0826 35.04 17.76 35.3626 17.76 35.76C17.76 36.1574 18.0826 36.48 18.48 36.48H25.68C26.0774 36.48 26.4 36.1574 26.4 35.76C26.4 35.3626 26.0774 35.04 25.68 35.04Z" fill="#335F99"/>
</g>
<defs>
<clipPath id="clip0_159_349">
<rect width="36" height="36" fill="white" transform="translate(12 12)"/>
</clipPath>
</defs>
</svg>
