<svg width="60" height="60" viewBox="0 0 60 60" fill="none" xmlns="http://www.w3.org/2000/svg">
<rect width="60" height="60" rx="30" fill="white"/>
<g clip-path="url(#clip0_159_288)">
<path fill-rule="evenodd" clip-rule="evenodd" d="M44.1686 14.2648C44.4523 13.9439 44.9427 13.9137 45.2637 14.1976C45.5848 14.4814 45.6148 14.9717 45.331 15.2927L42.4488 18.5524C42.093 18.8776 41.7279 18.9 41.3536 18.6198C41.0326 18.3359 41.0026 17.8455 41.2864 17.5245L44.1686 14.2648ZM18.3598 26.0607C18.6176 19.8308 23.8942 14.7988 30.1153 14.7988C36.5181 14.7988 41.8798 20.1562 41.8797 26.5591C41.8797 30.026 40.3597 33.2998 37.7094 35.5411C36.2516 36.774 35.4154 38.56 35.4154 40.4414C35.4244 41.4764 35.4241 42.5117 35.4237 43.5471C35.4237 43.6704 35.4237 43.7937 35.4236 43.917C35.4234 44.9018 34.808 45.7452 33.9417 46.0843C33.9858 48.1768 32.212 50.0029 30.1145 50.0029C28.021 50.0029 26.2416 48.1914 26.2884 46.1015C25.4095 45.7783 24.7653 44.8498 24.7654 43.916C24.7654 43.7627 24.7653 43.6094 24.7651 43.4562C24.7641 42.449 24.7632 41.4439 24.8137 40.4416C24.8137 38.5479 23.994 36.7756 22.565 35.5793C19.74 33.2144 18.2072 29.7451 18.3598 26.0607ZM33.0846 44.6924H33.0961C33.5238 44.6924 33.8719 44.3445 33.8719 43.9168L33.8724 41.9955H26.3176L26.3171 43.9164C26.3614 44.3894 26.6201 44.6481 27.093 44.6924H33.0822H33.0846ZM27.8396 46.2442C27.8759 47.4672 28.8822 48.4513 30.1146 48.4513C31.3472 48.4513 32.3532 47.4673 32.3895 46.2442H27.8396ZM33.8637 40.4415C33.8637 38.1026 34.9002 35.8847 36.7075 34.3563C39.0084 32.4105 40.328 29.5685 40.3279 26.5592C40.3279 20.9734 35.62 16.3124 30.0408 16.3508C24.5852 16.3892 20.1353 20.6826 19.91 26.125C19.7777 29.324 21.1084 32.3364 23.561 34.3895C25.3432 35.8815 26.3654 38.0874 26.3654 40.4417V40.4437H33.8637V40.4415ZM33.224 18.8787L32.3512 20.3743C34.8899 21.2924 36.7094 23.7265 36.7095 26.578C36.7095 30.0911 33.9482 32.9706 30.4822 33.1621L29.518 35.2486C29.2269 35.6689 28.8838 35.7952 28.4883 35.6275C28.0993 35.4478 27.9297 34.9868 28.1094 34.5978L28.8266 33.0457C25.8048 32.4449 23.5198 29.7737 23.5198 26.578C23.5198 22.7592 26.9646 19.6423 30.7641 20.0155L31.8837 18.0966C32.0996 17.7266 32.5747 17.6015 32.9449 17.8175C33.315 18.0334 33.44 18.5085 33.224 18.8787ZM29.8739 21.541C27.2045 21.6671 25.0714 23.8779 25.0714 26.578C25.0714 29.1516 27.0096 31.2795 29.5025 31.5827L31.6261 26.9873L28.0411 27.0029C27.5101 27.0029 27.0883 26.3149 27.3677 25.836L29.8739 21.541ZM33.5462 26.5316L31.2551 31.4895C33.4881 30.971 35.1577 28.9665 35.1577 26.578C35.1577 24.2965 33.6342 22.3651 31.5516 21.7447L29.3923 25.4453L32.8385 25.4303C33.3456 25.4303 33.7638 26.0605 33.5462 26.5316ZM48.2962 19.6056C48.2141 19.1851 47.8064 18.9107 47.3862 18.9925L43.3645 19.7765C42.9439 19.8585 42.6694 20.2659 42.7514 20.6865C42.9699 21.1684 43.2732 21.3728 43.6614 21.2996L47.6831 20.5156C48.1036 20.4336 48.3782 20.0262 48.2962 19.6056ZM18.7919 17.1444L16.1877 14.5437C15.8845 14.2409 15.3932 14.2413 15.0904 14.5445C14.7876 14.8477 14.7879 15.339 15.0911 15.6417L17.6953 18.2424C18.0611 18.5452 18.427 18.5449 18.7926 18.2417C19.0955 17.9384 19.0951 17.4472 18.7919 17.1444ZM13.0199 18.6924L17.0875 20.0402C17.4942 20.175 17.7147 20.614 17.58 21.0207C17.3211 21.4722 16.9943 21.6364 16.5994 21.5133L12.5318 20.1655C12.125 20.0307 11.9046 19.5918 12.0393 19.185C12.1741 18.7782 12.6129 18.5578 13.0199 18.6924Z" fill="#335F99"/>
</g>
<defs>
<clipPath id="clip0_159_288">
<rect width="36" height="36" fill="white" transform="translate(12 12)"/>
</clipPath>
</defs>
</svg>
