<svg width="60" height="60" viewBox="0 0 60 60" fill="none" xmlns="http://www.w3.org/2000/svg">
<rect width="60" height="60" rx="30" fill="white"/>
<path d="M37.875 37.875H34.9838C37.4025 36.2662 39 33.5325 39 30.4275C39 25.7925 31.6537 17.8162 30.8212 16.9275C30.3937 16.4775 29.6063 16.4775 29.1788 16.9275C28.3463 17.8162 21 25.7925 21 30.4275C21 33.5325 22.5975 36.2662 25.0162 37.875H22.125C21.5062 37.875 21 38.3812 21 39V42.375C21 42.9937 21.5062 43.5 22.125 43.5H37.875C38.4937 43.5 39 42.9937 39 42.375V39C39 38.3812 38.4937 37.875 37.875 37.875ZM24.8362 34.7362C23.8462 33.5662 23.25 32.0587 23.25 30.4275C23.25 27.6037 27.5588 22.1362 30 19.3687C32.4412 22.1362 36.75 27.6037 36.75 30.4275C36.75 32.0475 36.165 33.5437 35.1863 34.7137C35.1975 34.5562 35.2087 34.3875 35.2087 34.2187C35.2087 31.665 31.5637 27.6262 30.8325 26.8387C30.4162 26.3775 29.6175 26.3775 29.19 26.8387C28.4587 27.6262 24.8138 31.665 24.8138 34.2187C24.8138 34.3987 24.825 34.5675 24.8362 34.7362ZM30.6412 37.0987C30.4387 37.1437 30.225 37.1662 30.0113 37.1662C29.7975 37.1662 29.595 37.1437 29.3925 37.0987C28.065 36.8175 27.0638 35.6362 27.0638 34.2187C27.0638 33.1837 28.5938 30.9787 30.0113 29.3025C31.4062 30.9675 32.9587 33.195 32.9587 34.2187C32.9587 35.6362 31.9688 36.8175 30.6412 37.0987ZM36.75 41.25H23.25V40.125H36.75V41.25Z" fill="#335F99"/>
</svg>
