<svg width="60" height="60" viewBox="0 0 60 60" fill="none" xmlns="http://www.w3.org/2000/svg">
<rect width="60" height="60" rx="30" fill="white"/>
<g clip-path="url(#clip0_159_368)">
<path d="M21.6835 18.9778L22.5469 20.46C22.6247 20.5825 22.7469 20.6701 22.8878 20.7046C23.0287 20.7391 23.1775 20.7179 23.3031 20.6453C23.4287 20.5726 23.5214 20.4543 23.5618 20.315C23.6023 20.1756 23.5873 20.0261 23.52 19.8975L22.3753 17.9288C22.3007 17.8006 22.1784 17.7071 22.0351 17.6686C21.8918 17.6302 21.7392 17.6499 21.6103 17.7235L19.6416 18.8485C19.5122 18.9231 19.4177 19.046 19.3789 19.1903C19.3402 19.3345 19.3603 19.4883 19.4349 19.6177C19.5095 19.7471 19.6324 19.8416 19.7767 19.8803C19.9209 19.9191 20.0747 19.899 20.2041 19.8244L21.6835 18.9778Z" fill="#335F99"/>
<path d="M24.2176 39.239C24.2922 39.3672 24.4145 39.4607 24.5578 39.4991C24.7011 39.5376 24.8537 39.5179 24.9826 39.4443L26.9513 38.3193C27.0807 38.2447 27.1752 38.1218 27.214 37.9775C27.2527 37.8333 27.2326 37.6795 27.158 37.5501C27.0834 37.4207 26.9605 37.3262 26.8162 37.2874C26.672 37.2487 26.5182 37.2688 26.3888 37.3434L24.9094 38.1899L24.046 36.7078C23.9682 36.5853 23.846 36.4977 23.7051 36.4632C23.5642 36.4287 23.4154 36.4499 23.2898 36.5225C23.1642 36.5951 23.0715 36.7135 23.0311 36.8528C22.9906 36.9921 23.0056 37.1417 23.0729 37.2703L24.2176 39.239Z" fill="#335F99"/>
<path d="M16.6435 20.5754L14.6747 21.7004C14.6105 21.7373 14.5542 21.7866 14.5091 21.8454C14.464 21.9042 14.431 21.9714 14.4119 22.043C14.3928 22.1146 14.3881 22.1893 14.398 22.2627C14.4078 22.3362 14.4321 22.4069 14.4694 22.471L15.6141 24.4397C15.6919 24.5622 15.8141 24.6498 15.955 24.6843C16.0959 24.7188 16.2447 24.6976 16.3703 24.625C16.4959 24.5524 16.5886 24.434 16.629 24.2947C16.6695 24.1553 16.6545 24.0058 16.5872 23.8772L15.7125 22.4063L17.2004 21.5625C17.2644 21.5256 17.3206 21.4764 17.3657 21.4178C17.4108 21.3591 17.4438 21.2922 17.463 21.2207C17.4822 21.1493 17.4872 21.0748 17.4776 21.0015C17.468 20.9281 17.444 20.8574 17.4071 20.7933C17.3701 20.7292 17.3209 20.6731 17.2623 20.628C17.2037 20.5829 17.1367 20.5498 17.0653 20.5307C16.9939 20.5115 16.9193 20.5065 16.846 20.5161C16.7727 20.5257 16.7019 20.5497 16.6379 20.5866L16.6435 20.5754Z" fill="#335F99"/>
<path d="M25.3368 26.0034C24.8964 25.7051 24.3912 25.5158 23.8632 25.4514C23.3351 25.3869 22.7993 25.449 22.3 25.6325C21.8007 25.8161 21.3522 26.1159 20.9917 26.507C20.6311 26.8982 20.3689 27.3696 20.2265 27.8822C20.1211 28.2658 20.0932 28.6665 20.1444 29.0611C20.1956 29.4556 20.3249 29.8359 20.5247 30.18C20.7603 30.5859 21.089 30.93 21.4837 31.184C21.609 31.2632 21.7605 31.2898 21.9053 31.2579C22.0501 31.226 22.1764 31.1383 22.2568 31.0137C22.3372 30.8892 22.3653 30.738 22.3348 30.5929C22.3043 30.4478 22.2178 30.3207 22.094 30.239C21.8476 30.0814 21.6422 29.8674 21.495 29.6147C21.3704 29.3988 21.29 29.1603 21.2586 28.913C21.2272 28.6658 21.2454 28.4148 21.3122 28.1747C21.4071 27.8367 21.5805 27.526 21.8183 27.2679C22.0562 27.0097 22.3516 26.8114 22.6806 26.6891C23.0096 26.5668 23.3629 26.524 23.7116 26.5642C24.0603 26.6044 24.3946 26.7264 24.6872 26.9203C24.7802 26.9871 24.8668 27.0624 24.9459 27.1453C24.9971 27.1986 25.0582 27.2414 25.1259 27.2711C25.1936 27.3009 25.2665 27.317 25.3404 27.3186C25.4143 27.3201 25.4878 27.3071 25.5567 27.2803C25.6255 27.2534 25.6885 27.2133 25.7418 27.1622C25.7952 27.111 25.838 27.0498 25.8677 26.9821C25.8974 26.9145 25.9136 26.8416 25.9151 26.7677C25.9167 26.6938 25.9037 26.6203 25.8768 26.5514C25.85 26.4825 25.8099 26.4196 25.7587 26.3662C25.6296 26.2325 25.4884 26.111 25.3368 26.0034Z" fill="#335F99"/>
<path d="M25.3734 17.5126C25.4645 17.5126 25.5543 17.4905 25.6349 17.4481C25.7156 17.4058 25.7847 17.3445 25.8365 17.2695C25.8882 17.1945 25.921 17.1081 25.9319 17.0177C25.9429 16.9273 25.9317 16.8355 25.8994 16.7504L25.0894 14.6241C25.0364 14.4846 24.9302 14.3719 24.7941 14.3107C24.658 14.2495 24.5032 14.2449 24.3637 14.2979C24.2242 14.3508 24.1115 14.457 24.0503 14.5931C23.9891 14.7292 23.9845 14.884 24.0375 15.0235L24.8475 17.1469C24.8875 17.2541 24.9594 17.3466 25.0533 17.4119C25.1473 17.4772 25.259 17.5124 25.3734 17.5126Z" fill="#335F99"/>
<path d="M47.9129 42.4369C47.1394 41.2247 40.3332 30.5625 39.3882 29.6372L39.1913 29.4431C38.2997 28.5656 37.2929 27.57 35.9288 27.57H35.9063C34.9416 27.57 32.97 27.7135 32.1066 27.7781L26.2397 12.3628C26.1868 12.224 26.081 12.1118 25.9456 12.0507C25.8102 11.9895 25.6561 11.9845 25.5169 12.0366L14.6129 16.1288C14.5435 16.1547 14.48 16.1941 14.4259 16.2446C14.3719 16.2952 14.3283 16.3559 14.2977 16.4233C14.2671 16.4907 14.2502 16.5635 14.2478 16.6374C14.2454 16.7114 14.2576 16.7852 14.2838 16.8544L14.6551 17.8303C14.708 17.9698 14.8142 18.0826 14.9503 18.1437C15.0864 18.2049 15.2412 18.2095 15.3807 18.1566C15.5202 18.1036 15.6329 17.9974 15.6941 17.8613C15.7553 17.7253 15.7599 17.5704 15.7069 17.431L15.5354 16.9838L25.3791 13.2853L32.1291 31.0378H32.1066C32.0969 30.9624 32.0721 30.8897 32.0335 30.8241L23.1376 15.5128C23.0629 15.3846 22.9406 15.2912 22.7973 15.2527C22.654 15.2142 22.5014 15.2339 22.3726 15.3075L12.2813 21.1013C12.2171 21.1383 12.1608 21.1876 12.1157 21.2464C12.0706 21.3052 12.0376 21.3723 12.0185 21.4439C11.9994 21.5155 11.9947 21.5902 12.0045 21.6636C12.0144 21.7371 12.0387 21.8079 12.076 21.8719L23.5651 41.5903C23.5818 41.6162 23.6006 41.6407 23.6213 41.6635C23.6327 41.6791 23.6449 41.6941 23.6579 41.7085C23.6782 41.7269 23.6998 41.7438 23.7226 41.7591C23.7582 41.7921 23.8018 41.8154 23.8491 41.8266C23.9119 41.8577 23.9816 41.8722 24.0516 41.8688C24.1001 41.8684 24.1483 41.8618 24.1951 41.8491L24.2372 41.8322C24.2693 41.8219 24.3004 41.8087 24.3301 41.7928L26.7544 40.3866C26.6719 40.7783 26.7119 41.1859 26.8688 41.5542C27.0258 41.9225 27.2922 42.2336 27.6319 42.4453C28.0482 42.7266 31.4682 44.535 32.4497 44.535C33.0601 44.535 34.2582 44.0175 34.9557 43.6913C35.5507 44.7958 36.3828 45.7549 37.3923 46.4998C38.4018 47.2448 39.5636 47.7571 40.7944 48H40.876C40.9499 48.0054 41.0241 47.9961 41.0944 47.9728C41.1646 47.9495 41.2297 47.9125 41.2857 47.8641C41.3417 47.8157 41.3876 47.7566 41.4208 47.6905C41.4541 47.6243 41.4739 47.5522 41.4793 47.4783C41.4846 47.4044 41.4754 47.3302 41.4521 47.2599C41.4287 47.1896 41.3918 47.1246 41.3434 47.0686C41.2949 47.0126 41.2359 46.9667 41.1697 46.9334C41.1035 46.9002 41.0314 46.8804 40.9576 46.875C39.8856 46.6595 38.8751 46.2079 37.9994 45.5531C37.1237 44.8983 36.4049 44.0567 35.8951 43.0894C35.6755 42.6454 35.482 42.189 35.3157 41.7225C34.9163 40.6791 34.5057 39.6019 33.7969 38.986C33.4229 38.6597 32.0476 37.5797 30.4585 36.3197L28.186 34.5197C27.4041 33.901 25.0276 32.0138 24.5691 31.5638C24.405 31.4233 24.2706 31.2514 24.174 31.0582C24.0774 30.865 24.0205 30.6544 24.0066 30.4388C24.0421 30.0053 24.2436 29.6023 24.5691 29.3138C25.0444 28.8328 25.7841 28.861 26.7629 29.3925L36.1875 34.5C36.2688 34.5439 36.3596 34.5671 36.4519 34.5675C36.5784 34.5708 36.7022 34.5313 36.8034 34.4555C36.9047 34.3797 36.9774 34.272 37.0099 34.1498C37.0425 34.0275 37.0328 33.8979 36.9826 33.7819C36.9324 33.6658 36.8445 33.57 36.7332 33.51L33.6563 31.8506C33.6504 31.82 33.6419 31.7899 33.631 31.7606L32.5313 28.875C33.4847 28.8075 35.1076 28.7006 35.9204 28.695C36.8204 28.695 37.5854 29.4488 38.3925 30.2447L38.5922 30.4416C39.2391 31.0744 43.936 38.3166 46.9538 43.0416C46.9921 43.1067 47.0432 43.1634 47.1039 43.2084C47.1647 43.2533 47.2339 43.2856 47.3073 43.3032C47.3808 43.3209 47.4571 43.3235 47.5316 43.311C47.6062 43.2985 47.6774 43.2711 47.7411 43.2305C47.8048 43.1898 47.8597 43.1368 47.9024 43.0744C47.9452 43.0121 47.9749 42.9418 47.9899 42.8678C48.0049 42.7937 48.0048 42.7174 47.9896 42.6433C47.9744 42.5693 47.9445 42.4991 47.9016 42.4369H47.9129ZM33.9516 41.3119C34.0641 41.5931 34.1738 41.8744 34.2779 42.1331C34.351 42.3244 34.4213 42.5072 34.4944 42.6956C33.6647 43.081 32.7535 43.4353 32.4497 43.4381C31.9097 43.4241 28.9341 41.9785 28.2479 41.5313C28.0604 41.4206 27.9229 41.2418 27.8642 41.0321C27.8055 40.8224 27.8301 40.5982 27.9329 40.4063C27.983 40.2752 28.0614 40.1569 28.1625 40.0597C28.2636 39.9624 28.385 39.8887 28.5179 39.8438C28.8947 40.125 29.3335 40.4063 29.7385 40.6538C30.0676 40.8591 30.3769 41.0531 30.5485 41.1853C30.8522 41.4244 31.4119 41.5003 31.9997 41.5003C32.6548 41.4939 33.3081 41.429 33.9516 41.3063V41.3119ZM33.4285 40.2741C32.7563 40.381 31.5132 40.4681 31.2404 40.3135C31.021 40.1419 30.7032 39.945 30.3347 39.7116C29.9663 39.4781 29.5669 39.2306 29.2322 38.9831L30.8438 38.055C31.9407 38.9213 32.8125 39.6047 33.0713 39.8438C33.21 39.9694 33.3311 40.1132 33.4313 40.2713L33.4285 40.2741ZM23.7676 28.5319C23.498 28.7788 23.2807 29.0773 23.1286 29.4096C22.9764 29.742 22.8924 30.1015 22.8816 30.4669C22.897 30.83 22.986 31.1863 23.1431 31.5141C23.3002 31.8418 23.5222 32.1343 23.7957 32.3738C24.1416 32.7113 25.2835 33.6478 27.4997 35.4056L29.7751 37.2056L29.8988 37.3013L24.2541 40.5441L13.3332 21.796L22.4485 16.5619L30.2982 30.0366L27.2972 28.411C25.4635 27.4181 24.3751 27.9272 23.7676 28.5319Z" fill="#335F99"/>
</g>
<defs>
<clipPath id="clip0_159_368">
<rect width="36" height="36" fill="white" transform="translate(12 12)"/>
</clipPath>
</defs>
</svg>
