<svg width="60" height="60" viewBox="0 0 60 60" fill="none" xmlns="http://www.w3.org/2000/svg">
<rect width="60" height="60" rx="30" fill="white"/>
<path d="M28.9797 17.9645C25.2609 18.1991 21.6594 19.5423 18.6856 21.7947C17.4655 22.7214 15.5709 24.528 15.2542 25.0677C15.0313 25.4607 14.9433 25.9768 15.0372 26.4168C15.131 26.886 15.2659 27.1441 15.5827 27.4608C16.1223 28.0063 16.9904 28.194 17.706 27.9301C18.011 27.8128 18.187 27.6661 19.1607 26.7218C20.41 25.5135 20.9438 25.0618 21.8764 24.4401C23.6772 23.2435 25.56 22.5044 27.8007 22.1173C28.8213 21.9413 30.9212 21.8944 31.9946 22.0293C33.7249 22.2463 35.3145 22.7214 36.8337 23.4664C38.4526 24.2641 39.5436 25.0559 41.01 26.4813C42.0364 27.4784 42.2711 27.6075 43.0218 27.6075C43.4383 27.6075 43.5732 27.584 43.843 27.455C44.846 26.9798 45.2801 25.795 44.8109 24.7803C44.541 24.1878 42.8166 22.5572 41.3032 21.4721C38.3939 19.3839 35.0447 18.2049 31.32 17.9586C30.3405 17.8941 30.0707 17.8941 28.9797 17.9645Z" fill="#335F99"/>
<path d="M28.7098 25.3257C26.7389 25.6249 24.9558 26.3757 23.3604 27.584C22.6096 28.1588 20.8323 29.9478 20.6446 30.3232C20.0932 31.4435 20.5273 32.7281 21.6535 33.3029C21.9644 33.4554 22.0465 33.473 22.5802 33.473C23.4542 33.473 23.5891 33.3909 24.8678 32.1591C26.2228 30.8511 27.0088 30.3291 28.1701 29.9595C30.3463 29.2733 32.7336 29.6604 34.5167 30.9802C34.7572 31.162 35.2968 31.6371 35.7191 32.036C36.6752 32.9451 37.0037 33.1211 37.7134 33.1211C37.9715 33.1211 38.2883 33.0859 38.4232 33.0507C38.998 32.8747 39.5611 32.3234 39.7957 31.7016C39.9834 31.2089 39.9424 30.4874 39.7077 30.0182C39.3851 29.3788 37.9598 28.018 36.7163 27.1617C35.2968 26.1821 33.4961 25.5134 31.7012 25.2905C31.0091 25.2084 29.3785 25.226 28.7098 25.3257Z" fill="#335F99"/>
<path d="M29.3081 33.5904C28.0881 33.8543 27.044 34.8573 26.6862 36.1008C26.5689 36.5114 26.5513 37.3443 26.6569 37.7842C26.8328 38.5468 27.3373 39.3328 27.9297 39.7727C28.6453 40.3006 29.2377 40.5 30.1234 40.5C31.4197 40.4941 32.5987 39.7609 33.1911 38.5878C33.5783 37.8253 33.6721 36.9865 33.4609 36.1771C33.2908 35.5143 33.0328 35.0626 32.5225 34.5523C31.6602 33.6842 30.493 33.3323 29.3081 33.5904Z" fill="#335F99"/>
</svg>
