<svg width="60" height="60" viewBox="0 0 60 60" fill="none" xmlns="http://www.w3.org/2000/svg">
<rect width="60" height="60" rx="30" fill="white"/>
<g clip-path="url(#clip0_159_315)">
<path d="M48 25.699C48 19.9962 43.3605 15.3567 37.6577 15.3567H22.3423C16.6395 15.3568 12 19.9963 12 25.699C12 27.383 13.37 28.753 15.054 28.753H17.9692L15.8585 33.5328C15.1127 35.2219 14.7345 37.0147 14.7345 38.8612V40.8197C14.7345 42.9282 16.4498 44.6435 18.5583 44.6435H41.4412C43.5497 44.6435 45.2651 42.9282 45.2651 40.8197V38.8612C45.2651 37.0146 44.8868 35.2219 44.1409 33.5328L42.0303 28.753H44.9459C46.63 28.753 48 27.383 48 25.699ZM22.3423 17.7147H37.6577C40.9789 17.7147 43.8324 19.7533 45.0341 22.6445H38.2392C37.6585 22.0434 36.8451 21.6685 35.9452 21.6685H24.0548C23.1533 21.6685 22.3385 22.0449 21.7575 22.6479C21.7349 22.6466 21.7125 22.6444 21.6896 22.6444H14.9659C16.1676 19.7531 19.0212 17.7147 22.3423 17.7147ZM15.054 26.3949C14.6703 26.3949 14.3581 26.0828 14.3581 25.699C14.3581 25.4643 14.3688 25.2322 14.3888 25.0026H20.8632V25.9126C20.8632 26.1786 20.6468 26.3948 20.381 26.3948H15.054V26.3949ZM42.9071 38.861V40.8195C42.9071 41.6277 42.2496 42.2853 41.4412 42.2853H18.5583C17.7501 42.2853 17.0925 41.6278 17.0925 40.8195V38.861C17.0925 37.3446 17.4031 35.8723 18.0157 34.4851L20.5494 28.7476C22.0375 28.6601 23.2214 27.4222 23.2214 25.9127V24.8603C23.2214 24.4006 23.5953 24.0267 24.0549 24.0267H35.9451C36.4048 24.0267 36.7786 24.4006 36.7786 24.8603V25.9127C36.7786 27.4221 37.9622 28.6599 39.4501 28.7476L41.9838 34.4853C42.5965 35.8723 42.9071 37.3445 42.9071 38.861ZM39.6191 26.395C39.3532 26.395 39.1368 26.1786 39.1368 25.9127V25.0027H45.6113C45.6312 25.2322 45.642 25.4644 45.642 25.6991C45.642 26.0829 45.3298 26.395 44.946 26.395H39.6191V26.395Z" fill="#335F99"/>
<path d="M25.8828 31.2549C26.6032 31.2549 27.1872 30.6709 27.1872 29.9504C27.1872 29.23 26.6032 28.646 25.8828 28.646C25.1624 28.646 24.5784 29.23 24.5784 29.9504C24.5784 30.6709 25.1624 31.2549 25.8828 31.2549Z" fill="#335F99"/>
<path d="M30 31.2549C30.7204 31.2549 31.3044 30.6709 31.3044 29.9504C31.3044 29.23 30.7204 28.646 30 28.646C29.2796 28.646 28.6956 29.23 28.6956 29.9504C28.6956 30.6709 29.2796 31.2549 30 31.2549Z" fill="#335F99"/>
<path d="M34.1172 31.2549C34.8376 31.2549 35.4216 30.6709 35.4216 29.9504C35.4216 29.23 34.8376 28.646 34.1172 28.646C33.3968 28.646 32.8127 29.23 32.8127 29.9504C32.8127 30.6709 33.3968 31.2549 34.1172 31.2549Z" fill="#335F99"/>
<path d="M25.8828 35.2196C26.6032 35.2196 27.1872 34.6356 27.1872 33.9152C27.1872 33.1947 26.6032 32.6107 25.8828 32.6107C25.1624 32.6107 24.5784 33.1947 24.5784 33.9152C24.5784 34.6356 25.1624 35.2196 25.8828 35.2196Z" fill="#335F99"/>
<path d="M30 35.2196C30.7204 35.2196 31.3044 34.6356 31.3044 33.9152C31.3044 33.1947 30.7204 32.6107 30 32.6107C29.2796 32.6107 28.6956 33.1947 28.6956 33.9152C28.6956 34.6356 29.2796 35.2196 30 35.2196Z" fill="#335F99"/>
<path d="M34.1172 35.2196C34.8376 35.2196 35.4216 34.6356 35.4216 33.9152C35.4216 33.1947 34.8376 32.6107 34.1172 32.6107C33.3968 32.6107 32.8127 33.1947 32.8127 33.9152C32.8127 34.6356 33.3968 35.2196 34.1172 35.2196Z" fill="#335F99"/>
<path d="M25.8828 39.1843C26.6032 39.1843 27.1872 38.6003 27.1872 37.8799C27.1872 37.1595 26.6032 36.5754 25.8828 36.5754C25.1624 36.5754 24.5784 37.1595 24.5784 37.8799C24.5784 38.6003 25.1624 39.1843 25.8828 39.1843Z" fill="#335F99"/>
<path d="M30 39.1843C30.7204 39.1843 31.3044 38.6003 31.3044 37.8799C31.3044 37.1595 30.7204 36.5754 30 36.5754C29.2796 36.5754 28.6956 37.1595 28.6956 37.8799C28.6956 38.6003 29.2796 39.1843 30 39.1843Z" fill="#335F99"/>
<path d="M34.1172 39.1843C34.8376 39.1843 35.4216 38.6003 35.4216 37.8799C35.4216 37.1595 34.8376 36.5754 34.1172 36.5754C33.3968 36.5754 32.8127 37.1595 32.8127 37.8799C32.8127 38.6003 33.3968 39.1843 34.1172 39.1843Z" fill="#335F99"/>
</g>
<defs>
<clipPath id="clip0_159_315">
<rect width="36" height="36" fill="white" transform="translate(12 12)"/>
</clipPath>
</defs>
</svg>
