<svg width="60" height="60" viewBox="0 0 60 60" fill="none" xmlns="http://www.w3.org/2000/svg">
<rect width="60" height="60" rx="30" fill="white"/>
<g clip-path="url(#clip0_159_299)">
<path d="M19.4672 39.5723C19.4941 39.601 20.1223 40.276 20.7543 41.1787C21.686 42.5094 22.139 43.6149 22.139 44.5576C22.139 46.4557 20.5948 47.9999 18.6967 48C16.7985 48 15.2543 46.4558 15.2543 44.5576C15.2543 43.6149 15.7073 42.5094 16.639 41.1787C17.2713 40.2758 17.8997 39.6005 17.9261 39.5723L18.6967 38.7471L19.4672 39.5723ZM18.6957 41.9336C18.0083 42.8359 17.3636 43.915 17.3636 44.5576C17.3637 45.2927 17.9616 45.8906 18.6967 45.8906C19.4316 45.8905 20.0296 45.2926 20.0297 44.5576C20.0297 43.9216 19.3776 42.8323 18.6957 41.9336ZM37.7045 12C39.7724 12 41.4553 13.6823 41.4554 15.75C41.4554 17.818 39.7725 19.501 37.7045 19.501C36.8538 19.5009 34.7496 19.1852 32.8324 18.6758C32.6029 18.6147 32.3839 18.5528 32.1742 18.4902C31.7524 18.8841 31.2403 19.1819 30.6722 19.3486V21.208C32.2165 21.4594 33.6339 22.2565 34.6537 23.459H38.6224C38.8697 22.1314 40.0358 21.1221 41.434 21.1221H43.4144V18.9082H45.5238V36.9082H43.4144V34.6934H41.434C39.9254 34.6933 38.687 33.5191 38.5814 32.0371H34.6117C33.3641 33.4783 31.5356 34.3242 29.6176 34.3242C27.6996 34.3242 25.871 33.4783 24.6234 32.0371H23.0541V37.6162H14.476V30.0225C14.476 26.4033 17.4203 23.459 21.0394 23.459H24.5814C25.6013 22.2565 27.0186 21.4595 28.5629 21.208V19.3486C27.9948 19.1818 27.4828 18.8841 27.0609 18.4902C26.8514 18.5528 26.6331 18.6148 26.4037 18.6758C24.4864 19.1852 22.3814 19.5009 21.5306 19.501C19.4627 19.501 17.7797 17.818 17.7797 15.75C17.7799 13.6822 19.4628 12 21.5306 12C22.3814 12.0001 24.4864 12.3157 26.4037 12.8252C26.6327 12.886 26.8517 12.9474 27.0609 13.0098C27.7313 12.3839 28.6303 12 29.6176 12C30.6049 12 31.5038 12.384 32.1742 13.0098C32.3836 12.9473 32.6032 12.8861 32.8324 12.8252C34.7495 12.3158 36.8538 12.0001 37.7045 12ZM29.6176 23.2314C28.1676 23.2314 26.7984 23.9399 25.9554 25.125L25.64 25.5684H21.0394C18.5834 25.5684 16.5853 27.5664 16.5853 30.0225V35.5068H20.9447V29.9277H25.6683L25.9838 30.3613C26.828 31.5216 28.1866 32.2148 29.6176 32.2148C31.0486 32.2148 32.4071 31.5216 33.2513 30.3613L33.5668 29.9277H38.5726V25.5684H33.5951L33.2797 25.125C32.4368 23.9399 31.0675 23.2315 29.6176 23.2314ZM41.434 23.2324C41.0196 23.2324 40.6821 23.569 40.682 23.9834V31.832C40.682 32.2464 41.0196 32.583 41.434 32.583L43.4144 32.584V23.2324H41.434ZM21.5306 14.1094C20.6259 14.1094 19.8893 14.8453 19.889 15.75C19.889 16.6549 20.6258 17.3916 21.5306 17.3916C22.0597 17.3915 23.6919 17.172 25.3812 16.7598C25.5895 16.7089 25.7842 16.6588 25.9672 16.6094C25.9023 16.3334 25.8676 16.0455 25.8676 15.75C25.8676 15.4547 25.9023 15.1675 25.9672 14.8916C25.7842 14.8421 25.5895 14.792 25.3812 14.7412C23.6919 14.3291 22.0597 14.1094 21.5306 14.1094ZM29.6176 14.1094C28.7129 14.1094 27.9771 14.8453 27.9769 15.75C27.9769 16.6548 28.7127 17.3916 29.6176 17.3916C30.5224 17.3916 31.2592 16.6549 31.2592 15.75C31.2589 14.8453 30.5223 14.1094 29.6176 14.1094ZM37.7045 14.1094C37.1754 14.1095 35.5432 14.3291 33.8539 14.7412C33.6459 14.792 33.4508 14.8422 33.2679 14.8916C33.3328 15.1675 33.3675 15.4546 33.3676 15.75C33.3676 16.0455 33.3328 16.3334 33.2679 16.6094C33.4507 16.6588 33.6458 16.709 33.8539 16.7598C35.5432 17.1719 37.1754 17.3915 37.7045 17.3916C38.6094 17.3916 39.3461 16.6549 39.3461 15.75C39.3459 14.8453 38.6093 14.1094 37.7045 14.1094Z" fill="#335F99"/>
</g>
<defs>
<clipPath id="clip0_159_299">
<rect width="36" height="36" fill="white" transform="translate(12 12)"/>
</clipPath>
</defs>
</svg>
