<svg width="40" height="40" viewBox="0 0 40 40" fill="none" xmlns="http://www.w3.org/2000/svg">
<path d="M16.6666 6.66663C10.3816 6.66663 7.23825 6.66663 5.28659 8.61996C3.33325 10.5716 3.33325 13.715 3.33325 20C3.33325 26.285 3.33325 29.4283 5.28659 31.38C7.23825 33.3333 10.3816 33.3333 16.6666 33.3333H19.1666M23.3333 6.66663C29.6183 6.66663 32.7616 6.66663 34.7132 8.61996C36.4866 10.3916 36.6499 13.1433 36.6666 18.3333" stroke="#335F99" stroke-width="1.5" stroke-linecap="round"/>
<path d="M25.8333 23.3333V33.3333M25.8333 33.3333L29.1667 29.9999M25.8333 33.3333L22.5 29.9999M33.3333 33.3333V23.3333M33.3333 23.3333L36.6667 26.6666M33.3333 23.3333L30 26.6666" stroke="#335F99" stroke-width="1.5" stroke-linecap="round" stroke-linejoin="round"/>
<path d="M16.6666 26.6666H9.99992M3.33325 16.6666H11.6666M36.6666 16.6666H18.3333" stroke="#335F99" stroke-width="1.5" stroke-linecap="round"/>
</svg>
